<?xml version="1.0" encoding="UTF-8" standalone="no"?>
<svg xmlns:dc="http://purl.org/dc/elements/1.1/" xmlns:cc="http://creativecommons.org/ns#" xmlns:rdf="http://www.w3.org/1999/02/22-rdf-syntax-ns#" xmlns:svg="http://www.w3.org/2000/svg" xmlns="http://www.w3.org/2000/svg" xmlns:sodipodi="http://sodipodi.sourceforge.net/DTD/sodipodi-0.dtd" xmlns:inkscape="http://www.inkscape.org/namespaces/inkscape" version="1.1" width="50px" height="50px" viewBox="0 0 50 50" id="svg19" sodipodi:docname="arrowUp.svg" inkscape:version="1.0.1 (3bc2e813f5, 2020-09-07)">
<metadata id="metadata23">
<rdf:RDF>
<cc:Work rdf:about="">
<dc:format>image/svg+xml</dc:format>
<dc:type rdf:resource="http://purl.org/dc/dcmitype/StillImage" />
<dc:title />
</cc:Work>
</rdf:RDF>
</metadata>
<sodipodi:namedview pagecolor="#ffffff" bordercolor="#666666" borderopacity="1" objecttolerance="10" gridtolerance="10" guidetolerance="10" inkscape:pageopacity="0" inkscape:pageshadow="2" inkscape:window-width="2329" inkscape:window-height="1236" id="namedview21" showgrid="false" inkscape:zoom="12.727922" inkscape:cx="22.105652" inkscape:cy="14.579882" inkscape:window-x="2568" inkscape:window-y="30" inkscape:window-maximized="0" inkscape:current-layer="g17" inkscape:document-rotation="0" />
<defs id="defs7">
<linearGradient x1="0.008639223" y1="4.0049898" x2="0.008639223" y2="58.026051" id="mx-gradient-009900-1-ccffcc-1-s-0" gradientTransform="matrix(1.1575115,0,0,0.8639223,-8.333823,-40.404689)" gradientUnits="userSpaceOnUse">
<stop offset="0%" style="stop-color:#009900" id="stop2" />
<stop offset="100%" style="stop-color:#CCFFCC" id="stop4" />
</linearGradient>
</defs>
<g id="g17" transform="matrix(-7.7477663e-4,-0.74101905,0.74101905,-7.7477663e-4,4.5923026,49.413219)" style="fill:none">
<path d="m 4.1149565,16.633532 m 0.02,-0.02 c 6.2699995,2.88 14.3399995,-0.19 34.5499995,-0.94 m -35.5999995,1.66 c 12.1999995,1.29 24.7799995,0 36.4799995,0.84 m -1.18,-0.6 c 0.59,-2.77 0.61,-7.07 2.18,-14.32 m -1.62,13.6 c 0.84,-4.12 0.39,-8.19 1.03,-13.65 m -1.55,-1.83 c 8.62,11.18 15.59,17.86 25.38,28.04 m -24.38,-25.21 c 7.1,7.69 16.24,16.92 23.35,23.79 m 0.4,-0.55 c -6.39,6.28 -14.27,15.1 -22.27,26.65 m 22.23,-26.77 c -5.61,7.07 -13.09,13.42 -24.5,25.12 m -0.28,-0.03 c -0.26,-3.51 0.26,-6.42 2.06,-12.36 m -1.58,13.86 c 1.27,-3.5 1.3,-6.79 0.16,-14.91 m -1.5,1.31 c -11.62,-2.56 -25.51,-3.22 -34.0999995,0.67 m 35.5699995,-2.05 c -10.54,0.23 -21.48,0.66 -36.5899995,-0.15 m 0.39,1.15 c -0.1,-6.02 1.54,-13.44 0.98,-21.82 m -1.4,21.55 c 0.22,-4.43 0.01,-8.97 0.4,-22.46" fill="none" stroke="#000000" stroke-width="4" stroke-linejoin="round" stroke-linecap="round" stroke-miterlimit="10" pointer-events="all" id="path15" style="stroke:#777777" />
</g>
</svg>
