<?xml version="1.0" encoding="UTF-8" standalone="no"?>
<svg
   width="50px"
   height="50px"
   viewBox="0 0 50px 50px"
   version="1.1"
   id="svg891"
   inkscape:version="1.1.1 (3bf5ae0d25, 2021-09-20)"
   sodipodi:docname="fullScreen.svg"
   xmlns:inkscape="http://www.inkscape.org/namespaces/inkscape"
   xmlns:sodipodi="http://sodipodi.sourceforge.net/DTD/sodipodi-0.dtd"
   xmlns="http://www.w3.org/2000/svg"
   xmlns:svg="http://www.w3.org/2000/svg"
   xmlns:rdf="http://www.w3.org/1999/02/22-rdf-syntax-ns#"
   xmlns:cc="http://creativecommons.org/ns#"
   xmlns:dc="http://purl.org/dc/elements/1.1/">
  <defs
     id="defs885">
    <inkscape:path-effect
       effect="sketch"
       id="path-effect917"
       is_visible="true"
       lpeversion="1"
       nbiter_approxstrokes="4"
       strokelength="29"
       strokelength_rdm="0.4;1"
       strokeoverlap="0.4"
       strokeoverlap_rdm="0.3;1"
       ends_tolerance="0;1"
       parallel_offset="0.4;1"
       tremble_size="0.5;1"
       tremble_frequency="4.51"
       nbtangents="0"
       tgt_places_rdmness="0;1"
       tgtscale="0"
       tgtlength="0"
       tgtlength_rdm="0;1" />
    <inkscape:path-effect
       effect="sketch"
       id="path-effect898"
       is_visible="true"
       lpeversion="1"
       nbiter_approxstrokes="4"
       strokelength="29"
       strokelength_rdm="0.4;1"
       strokeoverlap="0.4"
       strokeoverlap_rdm="0.3;1"
       ends_tolerance="0;1"
       parallel_offset="0.4;1"
       tremble_size="0.5;1"
       tremble_frequency="4.51"
       nbtangents="0"
       tgt_places_rdmness="0;1"
       tgtscale="0"
       tgtlength="0"
       tgtlength_rdm="0;1" />
    <inkscape:path-effect
       effect="sketch"
       id="path-effect889"
       is_visible="true"
       lpeversion="1"
       nbiter_approxstrokes="4"
       strokelength="29"
       strokelength_rdm="0.4;1"
       strokeoverlap="0.4"
       strokeoverlap_rdm="0.3;1"
       ends_tolerance="0;1"
       parallel_offset="0.4;1"
       tremble_size="0.5;1"
       tremble_frequency="4.51"
       nbtangents="0"
       tgt_places_rdmness="0;1"
       tgtscale="0"
       tgtlength="0"
       tgtlength_rdm="0;1" />
    <inkscape:path-effect
       effect="sketch"
       id="path-effect870"
       is_visible="true"
       lpeversion="1"
       nbiter_approxstrokes="4"
       strokelength="29"
       strokelength_rdm="0.4;1"
       strokeoverlap="0.4"
       strokeoverlap_rdm="0.3;1"
       ends_tolerance="0;1"
       parallel_offset="0.4;1"
       tremble_size="0.5;1"
       tremble_frequency="4.51"
       nbtangents="0"
       tgt_places_rdmness="0;1"
       tgtscale="0"
       tgtlength="0"
       tgtlength_rdm="0;1" />
    <inkscape:path-effect
       effect="sketch"
       id="path-effect1515"
       is_visible="true"
       lpeversion="1"
       nbiter_approxstrokes="4"
       strokelength="29"
       strokelength_rdm="0.4;1"
       strokeoverlap="0.4"
       strokeoverlap_rdm="0.3;1"
       ends_tolerance="0;1"
       parallel_offset="0.4;1"
       tremble_size="0.5;1"
       tremble_frequency="4.51"
       nbtangents="0"
       tgt_places_rdmness="0;1"
       tgtscale="0"
       tgtlength="0"
       tgtlength_rdm="0;1" />
    <inkscape:path-effect
       effect="sketch"
       id="path-effect1496"
       is_visible="true"
       lpeversion="1"
       nbiter_approxstrokes="4"
       strokelength="29"
       strokelength_rdm="0.4;1"
       strokeoverlap="0.4"
       strokeoverlap_rdm="0.3;1"
       ends_tolerance="0;1"
       parallel_offset="0.4;1"
       tremble_size="0.5;1"
       tremble_frequency="4.51"
       nbtangents="0"
       tgt_places_rdmness="0;1"
       tgtscale="0"
       tgtlength="0"
       tgtlength_rdm="0;1" />
    <inkscape:path-effect
       effect="sketch"
       id="path-effect1477"
       is_visible="true"
       lpeversion="1"
       nbiter_approxstrokes="4"
       strokelength="29"
       strokelength_rdm="0.4;1"
       strokeoverlap="0.4"
       strokeoverlap_rdm="0.3;1"
       ends_tolerance="0;1"
       parallel_offset="0.4;1"
       tremble_size="0.4;1"
       tremble_frequency="4.51"
       nbtangents="0"
       tgt_places_rdmness="0;1"
       tgtscale="0"
       tgtlength="0"
       tgtlength_rdm="0;1" />
    <inkscape:path-effect
       effect="sketch"
       id="path-effect1458"
       is_visible="true"
       lpeversion="1"
       nbiter_approxstrokes="4"
       strokelength="29"
       strokelength_rdm="0.4;1"
       strokeoverlap="0.4"
       strokeoverlap_rdm="0.3;1"
       ends_tolerance="0;1"
       parallel_offset="0.4;1"
       tremble_size="0.4;1"
       tremble_frequency="4.51"
       nbtangents="0"
       tgt_places_rdmness="0;1"
       tgtscale="0"
       tgtlength="0"
       tgtlength_rdm="0;1" />
  </defs>
  <sodipodi:namedview
     id="base"
     pagecolor="#444444"
     bordercolor="#666666"
     borderopacity="1.0"
     inkscape:pageopacity="0.0"
     inkscape:pageshadow="0"
     inkscape:zoom="11.2"
     inkscape:cx="15.892857"
     inkscape:cy="26.473214"
     inkscape:document-units="mm"
     inkscape:current-layer="layer1"
     inkscape:document-rotation="0"
     showgrid="false"
     inkscape:window-width="1920"
     inkscape:window-height="1017"
     inkscape:window-x="-8"
     inkscape:window-y="-8"
     inkscape:window-maximized="1"
     inkscape:pagecheckerboard="0" />
  <metadata
     id="metadata888">
    <rdf:RDF>
      <cc:Work
         rdf:about="">
        <dc:format>image/svg+xml</dc:format>
        <dc:type
           rdf:resource="http://purl.org/dc/dcmitype/StillImage" />
        <dc:title />
      </cc:Work>
    </rdf:RDF>
  </metadata>
  <g
     inkscape:label="Layer 1"
     inkscape:groupmode="layer"
     id="layer1">
    <path
       style="fill:none;stroke:#ffffff;stroke-width:3.92825;stroke-linecap:round;stroke-linejoin:round;fill-opacity:1;stroke-opacity:1"
       d="M 3.0043605,18.558046 C 3.1210467,16.329122 2.9686424,14.283423 2.8881883,12.135183 v -10e-7 C 2.8076089,9.983596 2.8200869,7.7796583 2.6913133,5.5050284 v -8e-7 C 2.653653,4.8398035 2.6449312,4.1991989 2.6551278,3.5735727 c 1.5412133,0.00294 3.1931598,0.09355 4.8139432,0.1353074 0.7667626,0.019755 1.4862529,0.022894 2.1756531,0.016298 M 2.7845259,2.8610177 c -0.00345,-0.068275 -0.00665,-0.1362548 -0.0096,-0.2039508 1.9805508,-0.1044441 4.2146406,0.085662 6.3650576,0.2049382 h 3e-7 c 2.2206462,0.1231721 4.3283352,0.049171 6.5801542,0.14375 h 10e-7 c 0.726266,0.030504 1.42248,0.034915 2.100095,0.023194 M 3.12513,17.862079 C 3.0057756,15.826994 2.9667057,13.767201 2.6631883,11.985183 l 1e-7,-10e-7 C 2.3591983,10.200388 2.8094219,7.4903273 3.1069382,4.9394035 l 10e-8,-9e-7 C 3.193948,4.1933754 3.2087801,3.521075 3.1740655,2.8919156 4.5709551,2.8864459 5.6920988,3.1210726 6.834629,3.1942241 M 3.0478348,4.5336534 c 0.011565,-0.4198975 0.019637,-0.83977 0.02552,-1.258739 1.7367006,0.032033 3.4381451,0.07861 5.1885062,0.1964657 h 3e-7 C 10.451867,3.6188378 12.434688,3.6125332 14.335765,3.905755 l 10e-7,10e-8 c 0.934663,0.1441623 2.035642,0.1503454 3.214951,0.1219777 M 2.7814196,17.799577 C 2.6706863,15.763671 2.7368038,13.439653 2.6538133,11.125808 v -10e-7 C 2.5706935,8.8083582 2.7543304,6.9418317 2.9413132,5.0206532 l 10e-8,-6e-7 c 0.054684,-0.5618558 0.074661,-1.1548083 0.073536,-1.7623081 1.5138231,0.046793 2.9041336,0.00844 4.3635968,0.1192856 1.2282645,0.093289 2.5163144,0.069688 3.8097689,0.025578 M 3.263049,2.9998292 c 2.2661389,0.069015 4.2762372,-0.07637 6.3883141,-0.2378241 h 7e-7 C 11.76673,2.6002993 13.87337,2.7366813 15.865893,2.6807551 v 0 c 0.414455,-0.011633 0.846237,-0.00745 1.291335,0.011203 M 2.9002127,17.912195 C 2.7985672,15.902024 2.7862876,13.851799 2.5663133,12.141433 v -10e-7 C 2.3459965,10.428402 2.6452507,7.8112883 2.8006882,5.5925283 l 10e-8,-7e-7 c 0.045458,-0.6488846 0.054984,-1.2855321 0.0407,-1.9152571 1.4598486,-0.00687 2.7844687,0.02557 4.1379587,0.02539 M 2.7317307,4.2579218 c -0.00865,-0.404721 -0.00988,-0.8118965 -0.00465,-1.2199145 1.7421827,0.046521 3.5933466,0.078858 5.488816,0.2083728 h 4e-7 c 2.3610909,0.1613299 4.3431469,0.050324 6.5895289,0.140625 v 0 c 1.09647,0.044077 2.144049,0.00512 3.17985,-0.087472"
       id="path1456"
       sodipodi:nodetypes="ccc"
       inkscape:path-effect="#path-effect1458"
       inkscape:original-d="M 2.7600633,17.927313 V 3.1963801 H 17.490996" />
    <path
       style="fill:none;stroke:#ffffff;stroke-width:3.92825;stroke-linecap:round;stroke-linejoin:round;fill-opacity:1;stroke-opacity:1"
       d="m 32.426905,3.8904163 c 2.256273,-0.1334848 4.243455,-0.083744 6.302588,-0.136545 2.06234,-0.052883 4.217737,-0.158118 6.231882,-0.3340451 l 1e-6,-1e-7 c 0.589043,-0.05145 1.207025,-0.078282 1.843925,-0.090134 0.05628,1.5191542 0.2233,3.1259808 0.359154,4.6839542 0.06427,0.7370479 0.08127,1.4574802 0.06818,2.1681777 M 46.741386,2.4278095 c 0.06099,-0.00517 0.122229,-0.010037 0.183716,-0.014623 -0.05178,1.9707044 0.149979,4.2359591 0.268066,6.4303848 v 7e-7 c 0.121942,2.266091 0.130929,4.335009 0.284044,6.572506 v 10e-7 c 0.04938,0.721646 0.06871,1.417199 0.06945,2.09662 M 32.547675,3.1944486 c 2.020232,0.060355 4.120749,0.096001 5.956818,0.4094227 1.838929,0.3139094 4.432072,-0.297449 6.872507,-0.74967 l 10e-7,-2e-7 C 46.090714,2.7219476 46.73225,2.6634207 47.324239,2.6480347 47.273172,4.1210291 46.946357,5.8341205 46.64093,7.3857365 M 45.917432,3.0356156 c 0.438424,-0.00185 0.873355,-0.00367 1.306096,-0.00458 0.05931,1.7447611 0.08337,3.5040657 0.156344,5.3346489 v 8e-7 c 0.0913,2.2903767 -0.02458,4.4269907 -0.222205,6.8631307 v 10e-7 c -0.09716,1.197726 -0.02801,2.257472 0.119474,3.282668 M 32.203964,3.1319467 c 2.028854,0.059534 4.234558,-0.1690446 6.291154,-0.3874504 2.059799,-0.218746 4.386355,0.01343 6.716257,0.1909548 h 1e-6 c 0.681387,0.051918 1.328068,0.072739 1.953647,0.079012 0.02889,1.5630084 -0.06573,3.0408677 -0.09119,4.6679325 -0.02143,1.3693149 0.01692,2.6217404 0.06068,3.8536554 m -0.25299,-8.2371984 c 0.170699,2.2086015 0.08536,4.2028038 0.101995,6.180936 0.01666,1.9812134 0.0246,4.2605144 -0.08158,6.3475074 v 10e-7 c -0.02209,0.434103 -0.02684,0.884026 -0.01829,1.348411 M 32.322757,3.2445651 c 2.037942,0.085268 4.165249,0.1304832 6.084861,0.5155562 1.922602,0.3856726 4.364775,-0.132738 6.663132,-0.2527951 l 1e-6,-1e-7 c 0.672162,-0.035111 1.308391,-0.057985 1.920812,-0.073936 -0.0029,1.4866916 -0.141026,3.0127003 -0.250283,4.5060865 M 45.624113,2.7821997 c 0.410618,0.00589 0.828646,0.00933 1.253146,0.011927 0.05736,1.766844 0.223695,3.5195041 0.434338,5.3693418 v 8e-7 c 0.262388,2.3042487 0.145742,4.3361607 0.29342,6.5693807 v 1e-6 c 0.07208,1.090045 0.09527,2.097058 0.106688,3.050433"
       id="path1456-4"
       sodipodi:nodetypes="ccc"
       inkscape:path-effect="#path-effect1477"
       inkscape:original-d="M 32.182508,3.259585 46.910237,2.9524992 47.217322,17.68023" />
    <path
       style="fill:none;stroke:#ffffff;stroke-width:3.92825;stroke-linecap:round;stroke-linejoin:round;fill-opacity:1;stroke-opacity:1"
       d="m 46.890322,32.08643 c 0.174782,2.028766 0.0132,4.286563 -0.05844,6.416184 -0.07175,2.132937 -0.02719,4.200435 -0.159186,6.179567 v 10e-7 c -0.0386,0.578803 -0.04103,1.188382 -0.01982,1.816683 -1.485571,0.02417 -2.832724,0.157931 -4.218832,0.230626 -0.655741,0.03439 -1.370573,0.04801 -2.123017,0.04946 m 6.461921,-1.45035 c -0.0034,0.05967 -0.0066,0.119705 -0.0094,0.180097 -2.194221,-0.102502 -4.071518,0.163183 -6.053406,0.340333 v 0 c -2.046612,0.182934 -4.234421,0.119403 -6.242067,0.266596 h -10e-7 c -0.647513,0.04747 -1.332592,0.06233 -2.040919,0.05702 M 47.07019,31.248502 c -0.120268,2.271065 -0.140182,4.511245 -0.490654,7.098643 -0.351018,2.591428 0.240731,4.026271 0.641596,5.660036 v 10e-7 c 0.117234,0.4778 0.144246,1.047758 0.109325,1.671642 -1.581019,0.01315 -3.506721,0.32642 -5.40569,0.437847 m 5.163403,-1.309673 c 0.02023,0.435732 0.03609,0.871495 0.04921,1.308387 -1.683442,0.0632 -3.410953,0.144571 -5.077319,0.315044 v 0 c -2.084913,0.213292 -4.428806,0.23438 -6.87488,0.629877 v 0 c -1.20261,0.194446 -2.197324,0.216418 -3.094126,0.195201 M 46.689771,31.266468 c -0.109492,2.27004 0.0021,4.179938 -0.07274,6.102552 -0.07493,1.925609 0.183585,4.41487 0.446283,6.835817 v 1e-6 c 0.07683,0.708014 0.11027,1.377157 0.117337,2.028116 -1.519808,0.07899 -3.194007,0.05154 -4.781765,0.210599 -1.336235,0.133862 -2.597738,0.121611 -3.852484,0.08372 m 7.656345,-0.616377 c -1.982247,0.115193 -4.284545,-0.03761 -6.45937,-0.210506 -2.178212,-0.173163 -4.367332,0.02628 -6.699098,-0.01465 h -1e-6 c -0.485018,-0.0085 -0.948376,0.0027 -1.395089,0.03208 M 46.781231,31.290835 c -0.09813,2.302207 -0.08456,4.554347 -0.330601,7.23131 -0.246427,2.681132 0.15661,4.23216 0.379877,6.28113 v 0 c 0.0653,0.599228 0.08567,1.213753 0.07629,1.83693 -1.536304,0.0116 -3.241643,0.07234 -4.910896,0.09231 m 4.726351,-2.075938 c -0.0051,0.43761 -10e-4,0.872152 0.0112,1.305641 -1.693682,0.08141 -3.251136,0.145086 -4.753209,0.330236 -1.871056,0.230632 -4.215905,0.120843 -6.230348,0.26269 h -1e-6 c -0.983259,0.06923 -2.027631,0.03468 -3.086725,-0.06692"
       id="path1456-4-6"
       sodipodi:nodetypes="ccc"
       inkscape:path-effect="#path-effect1496"
       inkscape:original-d="m 46.615418,31.38607 0.199099,14.729585 -14.729587,0.1991" />
    <path
       style="fill:none;stroke:#ffffff;stroke-width:3.92825;stroke-linecap:round;stroke-linejoin:round;fill-opacity:1;stroke-opacity:1"
       d="m 17.832725,47.106963 c -1.994137,-0.126696 -4.324638,-0.02436 -6.5652,-0.0502 h -10e-7 C 9.0234724,47.03088 6.8957423,46.939559 4.5914478,46.759873 h -8e-7 c -0.6738991,-0.05255 -1.3116251,-0.07433 -1.9257032,-0.07738 0.041895,-1.512832 0.2222068,-2.916072 0.3635645,-4.380379 0.066874,-0.692737 0.074657,-1.406242 0.044828,-2.131917 m -0.092355,5.536783 c -0.068764,-0.0052 -0.1372092,-0.01013 -0.2053491,-0.01465 -0.103675,-2.2061 0.1095739,-4.044012 0.2182317,-5.97046 v 0 c 0.1122064,-1.989363 0.083217,-4.225192 0.2343891,-6.250296 l 10e-8,-10e-7 c 0.048757,-0.653144 0.059948,-1.338904 0.047892,-2.044829 m 14.7356479,14.84229 c -2.289188,0.115604 -4.47802,0.200322 -6.997412,0.632259 v 0 C 8.4918654,47.333902 6.9113173,46.609927 5.1398851,46.084873 h -6e-7 C 4.6218228,45.931319 4.0135392,45.869924 3.3433224,45.862454 3.2517368,44.376871 2.8154687,43.191409 2.4059336,41.804102 m 1.9932355,4.476605 c -0.4124845,0.0057 -0.8293353,0.01144 -1.2489234,0.01831 0.041994,-1.673012 0.039918,-3.327845 0.098987,-4.893579 C 3.3231395,39.44643 3.1380654,37.295221 2.85081,35.518421 l -1e-7,-10e-7 C 2.7095811,34.644859 2.7762476,33.598823 2.9408264,32.509599 M 17.632174,46.287001 c -2.278412,0.114578 -4.33576,-0.130986 -6.579493,-0.363833 v 0 c -2.2472278,-0.23321 -4.1610093,0.09723 -6.0706084,0.359361 h -6e-7 c -0.558469,0.07666 -1.1603217,0.11445 -1.7885513,0.134055 0.00766,-1.458013 -0.1390761,-3.022463 -0.1993687,-4.400406 -0.050741,-1.159658 -0.026751,-2.465428 0.004,-3.796835 m -0.2355985,7.324841 c 0.1732144,-2.053727 0.026378,-4.375452 0.00701,-6.717265 -0.019393,-2.34546 -0.049695,-4.31831 -0.222642,-6.531546 l -10e-8,-10e-7 C 2.5109484,31.83501 2.4966341,31.394423 2.4989648,30.971912 M 17.723634,46.311368 c -2.267052,0.146744 -4.422396,0.243424 -6.837359,0.764925 h -10e-7 C 8.4675506,47.598606 6.6982908,46.990815 4.7492602,46.880967 h -7e-7 C 4.1792586,46.848841 3.564342,46.832012 2.9196639,46.823835 2.888007,45.321394 2.6873144,43.868098 2.522709,42.374024 m 1.4874461,3.733309 c -0.4301513,0.01524 -0.851041,0.0274 -1.2638395,0.03852 0.039406,-1.662499 0.2150382,-3.342728 0.4460525,-4.901486 v 0 c 0.2877629,-1.941666 0.1017325,-4.223752 0.246108,-6.254203 0.07047,-0.991072 0.079827,-2.085932 0.074462,-3.247842"
       id="path1456-4-6-1"
       sodipodi:nodetypes="ccc"
       inkscape:path-effect="#path-effect1515"
       inkscape:original-d="M 17.557922,46.406703 2.827382,46.299285 2.9348011,31.568746" />
    <path
       style="fill:none;stroke:#ffffff;stroke-width:3.92825;stroke-linecap:round;stroke-linejoin:round;fill-opacity:1;stroke-opacity:1"
       d="M 3.518221,46.419723 C 5.2026073,44.8211 6.5506305,43.451509 7.9885915,41.953742 l 3e-7,-10e-7 c 1.4402007,-1.5001 2.9967232,-3.06564 4.3766812,-4.719546 1.379957,-1.653905 3.182849,-2.948001 4.90793,-4.364077 l 1e-6,-10e-7 c 0.577431,-0.473999 1.095772,-0.968768 1.5765,-1.475705 m -5.19404,3.626461 c 1.395338,-1.646155 3.148573,-2.880629 4.776414,-4.219664 0.597415,-0.491423 1.176796,-1.014386 1.753989,-1.547329 M 3.0303534,45.826893 c 1.4397134,-1.56916 3.2930788,-3.050125 5.2840193,-4.708308 1.9940413,-1.660765 2.8837123,-2.748248 4.0446493,-3.789858 l 1e-6,-10e-7 c 1.140485,-1.02326 3.190814,-3.162714 5.076198,-5.133238 M 12.69515,36.48691 c 1.442179,-1.486375 3.254673,-3.018924 5.123851,-4.607132 1.002602,-0.851894 1.826166,-1.620749 2.620139,-2.351514 M 2.7172057,45.95428 c 1.6349195,-1.559826 3.329957,-2.956354 5.3612295,-4.415382 l 8e-7,-1e-6 c 2.034436,-1.461301 3.027649,-3.108126 4.478243,-4.871889 1.450594,-1.763764 3.025593,-3.078524 4.462618,-4.785952 l 10e-7,-1e-6 c 0.855693,-1.016709 1.829617,-1.83356 2.852254,-2.583985 m -5.247555,6.097297 c 1.701384,-1.43976 3.097455,-2.985281 4.622635,-4.540945 0.384803,-0.392495 0.762474,-0.784649 1.131425,-1.180253 M 3.0978173,45.650991 c 1.664884,-1.428201 2.992898,-3.007679 4.3454617,-4.564437 h 3e-7 c 1.3546701,-1.559182 3.2060527,-2.660624 5.0016797,-3.49689 h 10e-7 c 1.776649,-0.827427 3.114392,-3.21943 4.772645,-5.30137 m -4.418407,4.298727 c 1.476823,-1.416656 3.177284,-3.034259 4.908844,-4.611366 0.922639,-0.840341 1.695132,-1.634143 2.411551,-2.41692"
       id="path1456-4-6-1-0"
       sodipodi:nodetypes="cc"
       inkscape:original-d="M 3.2432463,45.719532 20.004187,29.514156"
       inkscape:path-effect="#path-effect870" />
    <path
       style="fill:none;stroke:#ffffff;stroke-width:3.92825;stroke-linecap:round;stroke-linejoin:round;fill-opacity:1;stroke-opacity:1"
       d="m 30.384618,19.800356 c 1.684386,-1.598623 3.032409,-2.968214 4.47037,-4.465981 v -10e-7 c 1.440201,-1.5001 2.996723,-3.065641 4.376681,-4.719546 1.379958,-1.6539056 3.18285,-2.948001 4.90793,-4.3640775 l 1e-6,-8e-7 C 44.717032,5.7767505 45.235373,5.2819819 45.716101,4.7750446 M 40.522061,8.401506 C 41.917399,6.7553506 43.670633,5.520877 45.298474,4.1818419 45.89589,3.690418 46.47527,3.1674549 47.052464,2.6345114 M 29.89675,19.207526 c 1.439713,-1.56916 3.293079,-3.050125 5.284019,-4.708308 1.994042,-1.660765 2.883713,-2.748249 4.04465,-3.789858 v -1e-6 C 40.365905,9.6860988 42.416233,7.546645 44.301617,5.5761206 M 39.561546,9.8675431 C 41.003725,8.3811674 42.81622,6.8486186 44.685398,5.2604102 45.688,4.408516 46.511563,3.6396607 47.305537,2.9088963 M 29.583602,19.334913 c 1.63492,-1.559826 3.329957,-2.956354 5.36123,-4.415382 l 1e-6,-10e-7 c 2.034436,-1.461301 3.027648,-3.108126 4.478242,-4.87189 1.450595,-1.7637633 3.025593,-3.078523 4.462618,-4.7859518 l 10e-7,-1e-6 c 0.855693,-1.0167083 1.829617,-1.8335596 2.852254,-2.5839849 m -5.247555,6.097297 C 43.191777,7.3352398 44.587849,5.7897185 46.113028,4.2340544 46.497832,3.8415593 46.875503,3.4494052 47.244454,3.0538006 M 29.964214,19.031624 c 1.664884,-1.428201 2.992898,-3.00768 4.345462,-4.564437 v 0 c 1.35467,-1.559182 3.206052,-2.660624 5.00168,-3.49689 h 10e-7 c 1.776648,-0.827427 3.114392,-3.2194299 4.772645,-5.3013707 m -4.418408,4.298727 C 41.142417,8.550998 42.842879,6.933395 44.574439,5.3562873 45.497078,4.5159459 46.26957,3.7221444 46.98599,2.9393663"
       id="path1456-4-6-1-0-5"
       sodipodi:nodetypes="cc"
       inkscape:original-d="M 30.109643,19.100165 46.870584,2.8947878"
       inkscape:path-effect="#path-effect889" />
    <path
       style="fill:none;stroke:#ffffff;stroke-width:3.92825;stroke-linecap:round;stroke-linejoin:round;fill-opacity:1;stroke-opacity:1"
       d="m 30.169721,29.870555 c 1.65193,1.409293 2.967497,3.047618 4.373002,4.557766 h 10e-7 c 1.407694,1.5125 2.931709,2.959561 4.27916,4.318256 1.347451,1.358695 3.117837,3.0772 4.810411,4.673724 v 10e-7 c 0.566551,0.5344 1.074011,1.04803 1.543858,1.549492 m -5.089465,-6.065172 c 1.362881,1.36176 3.083183,3.134852 4.679046,4.804084 0.647786,0.677568 1.273434,1.316425 1.898382,1.945827 M 29.681854,29.277724 c 1.407257,1.438756 3.228166,2.965707 5.18665,4.315441 1.961535,1.351835 2.818699,3.276952 3.94713,5.247942 v 10e-7 c 1.108552,1.936269 3.126946,2.756344 4.980396,3.745348 m -4.653363,-3.744315 c 1.409722,1.52154 3.189579,2.996797 5.026483,4.416615 1.056778,0.816827 1.907419,1.729134 2.736518,2.681478 M 29.368706,29.405111 c 1.602463,1.44809 3.265045,3.059479 5.263861,4.608366 l 10e-7,10e-7 c 2.001929,1.551299 2.962635,2.917075 4.380723,4.165911 1.418087,1.248837 2.960579,2.946678 4.365097,4.25185 h 10e-7 c 0.836337,0.77718 1.790905,1.754216 2.794185,2.797678 M 41.043853,40.31312 c 1.668926,1.568155 3.031985,3.030066 4.525266,4.482802 0.434871,0.423064 0.860093,0.846471 1.273314,1.264453 M 29.749318,29.101822 c 1.632427,1.579715 2.927985,3.008153 4.248093,4.459311 v 1e-6 c 1.322163,1.453418 3.141039,3.364576 4.90416,5.540911 l 1e-6,1e-6 c 1.744485,2.153331 3.050066,2.742087 4.676156,3.640904 m -4.331359,-3.768665 c 1.444367,1.591261 3.112324,2.981801 4.811476,4.412381 0.971498,0.817941 1.770204,1.689706 2.512168,2.571134"
       id="path1456-4-6-1-0-9"
       sodipodi:nodetypes="cc"
       inkscape:original-d="M 29.894748,29.170223 46.477945,45.911002"
       inkscape:path-effect="#path-effect898" />
    <path
       style="fill:none;stroke:#ffffff;stroke-width:3.92825;stroke-linecap:round;stroke-linejoin:round;fill-opacity:1;stroke-opacity:1"
       d="M 3.8626668,3.7482358 C 5.514597,5.157529 6.8301641,6.7958539 8.235669,8.306002 l 3e-7,4e-7 c 1.407694,1.5125001 2.9317097,2.9595606 4.2791607,4.3182556 1.347451,1.358695 3.117836,3.0772 4.810411,4.673724 v 10e-7 c 0.566551,0.5344 1.074011,1.04803 1.543858,1.549492 m -5.089465,-6.065171 c 1.362881,1.361759 3.083183,3.134851 4.679046,4.804083 0.647786,0.677568 1.273435,1.316426 1.898384,1.945829 M 3.3747993,3.1554058 C 4.7820566,4.5941614 6.6029658,6.1211126 8.5614502,7.4708457 10.522985,8.822681 11.380149,10.747798 12.50858,12.718788 v 10e-7 c 1.108552,1.936269 3.126946,2.756344 4.980396,3.745348 m -4.653363,-3.744315 c 1.409722,1.52154 3.189579,2.996797 5.026483,4.416615 1.056779,0.816828 1.90742,1.729135 2.73652,2.681481 M 3.0616516,3.2827926 C 4.664115,4.7308825 6.3266963,6.3422709 8.3255127,7.8911582 l 8e-7,8e-7 c 2.0019295,1.5512996 2.9626355,2.917075 4.3807225,4.165912 1.418088,1.248836 2.96058,2.946677 4.365098,4.251849 h 1e-6 c 0.836337,0.77718 1.790905,1.754216 2.794185,2.797678 m -5.128721,-4.915797 c 1.668926,1.568155 3.031985,3.030066 4.525266,4.482802 0.434871,0.423064 0.860095,0.846473 1.273316,1.264455 M 3.4422632,2.9795037 C 5.0746911,4.5592186 6.370249,5.987656 7.6903565,7.4388145 l 4e-7,4e-7 c 1.3221634,1.4534185 3.1410391,3.3645771 4.9041601,5.5409111 l 1e-6,1e-6 c 1.744485,2.153331 3.050066,2.742087 4.676156,3.640904 m -4.331359,-3.768665 c 1.444367,1.591261 3.112324,2.981801 4.811476,4.412381 0.971499,0.817941 1.770205,1.689707 2.51217,2.571136"
       id="path1456-4-6-1-0-9-8"
       sodipodi:nodetypes="cc"
       inkscape:original-d="M 3.5876937,3.0479043 20.170893,19.788685"
       inkscape:path-effect="#path-effect917" />
  </g>
</svg>
