<?xml version="1.0" encoding="UTF-8" standalone="no"?>
<svg xmlns:dc="http://purl.org/dc/elements/1.1/" xmlns:cc="http://creativecommons.org/ns#" xmlns:rdf="http://www.w3.org/1999/02/22-rdf-syntax-ns#" xmlns:svg="http://www.w3.org/2000/svg" xmlns="http://www.w3.org/2000/svg" xmlns:sodipodi="http://sodipodi.sourceforge.net/DTD/sodipodi-0.dtd" xmlns:inkscape="http://www.inkscape.org/namespaces/inkscape" viewBox="0 0 512 512" version="1.1" id="svg16" sodipodi:docname="logout.svg" inkscape:version="1.0.1 (3bc2e813f5, 2020-09-07)">
<metadata id="metadata22">
<rdf:RDF>
<cc:Work rdf:about="">
<dc:format>image/svg+xml</dc:format>
<dc:type rdf:resource="http://purl.org/dc/dcmitype/StillImage" />
<dc:title />
</cc:Work>
</rdf:RDF>
</metadata>
<defs id="defs20">
<inkscape:path-effect effect="sketch" id="path-effect881" is_visible="true" lpeversion="1" nbiter_approxstrokes="2" strokelength="300" strokelength_rdm="1;1" strokeoverlap="0.1" strokeoverlap_rdm="0.1;1" ends_tolerance="1;1" parallel_offset="0;1" tremble_size="4;1" tremble_frequency="4" nbtangents="0" tgt_places_rdmness="0;1" tgtscale="0" tgtlength="0" tgtlength_rdm="0;1" />
<inkscape:path-effect effect="sketch" id="path-effect856" is_visible="true" lpeversion="1" nbiter_approxstrokes="2" strokelength="200" strokelength_rdm="1;1" strokeoverlap="0.1" strokeoverlap_rdm="0.1;1" ends_tolerance="1;1" parallel_offset="0;1" tremble_size="4;1" tremble_frequency="4" nbtangents="0" tgt_places_rdmness="0;1" tgtscale="0" tgtlength="0" tgtlength_rdm="0;1" />
<inkscape:path-effect effect="sketch" id="path-effect880" is_visible="true" lpeversion="1" nbiter_approxstrokes="2" strokelength="200" strokelength_rdm="1;1" strokeoverlap="0.1" strokeoverlap_rdm="0.1;1" ends_tolerance="1;1" parallel_offset="0;1" tremble_size="4;1" tremble_frequency="4" nbtangents="0" tgt_places_rdmness="0;1" tgtscale="0" tgtlength="0" tgtlength_rdm="0;1" />
<inkscape:path-effect effect="sketch" id="path-effect842" is_visible="true" lpeversion="1" nbiter_approxstrokes="2" strokelength="200" strokelength_rdm="1;1" strokeoverlap="0.1" strokeoverlap_rdm="0.1;1" ends_tolerance="1;1" parallel_offset="0;1" tremble_size="4;1" tremble_frequency="4" nbtangents="0" tgt_places_rdmness="0;1" tgtscale="0" tgtlength="0" tgtlength_rdm="0;1" />
</defs>
<sodipodi:namedview pagecolor="#555555" bordercolor="#666666" borderopacity="1" objecttolerance="10" gridtolerance="10" guidetolerance="10" inkscape:pageopacity="0" inkscape:pageshadow="2" inkscape:window-width="2560" inkscape:window-height="1361" id="namedview18" showgrid="false" inkscape:zoom="1.0019531" inkscape:cx="-120.24254" inkscape:cy="354.1311" inkscape:window-x="2391" inkscape:window-y="-9" inkscape:window-maximized="1" inkscape:current-layer="svg16" inkscape:document-rotation="0" inkscape:snap-global="false" />
<path id="rect852" style="fill:#ff044a;fill-rule:evenodd;stroke-width:10.0313;stroke-linecap:round;stroke-linejoin:round" d="m 137.01463,10.978558 c 82.86944,0.234261 165.76194,-0.473643 248.61666,0.363251 62.12431,3.269683 115.26673,59.229576 115.34947,121.437731 -0.14267,84.94593 0.49166,169.91628 -0.32257,254.84787 -3.26968,62.12431 -59.22958,115.26673 -121.43774,115.34947 -83.94794,-0.13964 -167.92006,0.48752 -251.85369,-0.32257 C 65.242449,499.38463 12.100026,443.42473 12.017292,381.21657 12.159962,296.27064 11.52563,211.30029 12.33986,126.3687 15.912223,62.735214 73.260427,9.6540233 137.01463,10.978558 Z" />
<path id="path877" style="color:#000000;fill:none;fill-rule:evenodd;stroke:#000000;stroke-width:23.7932;stroke-linecap:round;stroke-linejoin:round" d="m 19.517553,143.90109 c 1.461085,34.65371 -1.64942,69.29179 -1.797288,103.94486 m 0.953475,-10.58468 c 0.240495,5.75763 0.294821,11.52218 0.21106,17.2839 m -3.11818,-5.48588 c -0.728803,15.34985 -0.348495,30.72482 0.165661,46.07471 m 2.615547,-1.1789 c -0.284717,29.74445 -2.815486,59.62745 -1.2783,89.30303 5.338686,37.46781 35.952745,63.03782 60.702343,88.75287 12.077507,11.10914 26.328909,21.31114 43.319889,22.10318 M 95.384406,482.32616 c 40.128204,14.30209 83.178434,2.67515 124.610734,7.08578 8.97746,0.41601 17.94877,0.95126 26.92081,1.46833 m -17.53998,4.47987 c 23.40851,-0.52223 46.82253,0.002 70.2306,0.26573 m -5.84366,-3.10883 c 15.35768,0.66444 30.73709,0.15618 46.07603,-0.70083 m -1.89839,1.41865 2.43949,-0.10986 m -1.36932,1.86079 c 29.94345,2.01301 61.05859,-1.05039 86.72954,-17.97048 38.60012,-19.47325 65.95534,-60.11334 66.26378,-103.75646 m -0.42298,29.00954 c 6.003,-33.66438 3.90752,-68.20213 5.38671,-102.26349 -0.99812,-33.42341 -7.28812,-66.69367 -2.87995,-100.18556 l 0.27626,-4.03068 0.27988,-4.02093 m -2.02017,19.39303 c -3.72704,-40.58157 9.06075,-83.33702 -8.4545,-121.879548 m 7.63314,13.922438 C 478.22746,67.607899 452.20006,32.172525 414.35453,20.749912 385.44618,12.893686 355.01228,16.888546 325.55493,18.065395 m 14.04679,-1.537308 C 294.88358,17.140491 250.40128,11.54656 205.68369,15.14706 m 15.86189,-1.087761 c -11.94501,0.06792 -23.88827,0.543724 -35.79881,1.45625 m 1.00427,2.137725 c -30.005,2.187433 -60.95579,-6.436223 -90.181569,3.291053 m 6.820709,4.364252 C 68.211148,35.535185 30.190293,57.068046 22.301987,95.931993 12.969184,130.47172 18.937059,166.65597 18.401211,201.90286 m 1.616183,22.7178 c 2.298158,59.60565 -7.099125,120.26762 5.626622,179.08984 8.004503,31.80594 26.532907,62.37945 57.402823,76.34335 M 62.951146,463.44934 c 29.919303,25.95978 70.411594,35.78213 109.291404,32.0559 53.16502,-3.9349 106.40764,3.995 159.39273,-2.47755 m -29.48088,-3.98017 c 40.88795,-3.33311 83.80056,11.05181 122.46663,-7.71714 m -7.30242,6.81709 c 52.12752,-18.70281 86.63122,-75.62908 81.47331,-130.48161 -0.1992,-13.13552 -0.56182,-26.26906 -1.14668,-39.39325 m -5.1151,21.66373 c -0.3234,-56.53508 1.77142,-113.07267 1.45303,-169.62003 -0.12741,-26.16696 7.1889,-53.40613 -2.72348,-78.633143 m -1.07551,28.548973 C 482.28975,77.333296 451.57289,40.999197 411.78781,23.798187 389.41503,10.921761 363.45044,8.3619109 338.27015,11.943108 c -25.10938,2.177815 -50.36481,1.094742 -75.49863,3.001337 m 23.27299,-0.479295 c -42.80057,-1.825381 -84.94629,9.83815 -127.79995,5.295325 -35.7771,-0.894388 -73.7624,5.062459 -103.977783,25.085829 l -3.620213,3.344471 -1.733354,1.818152 M 69.520082,41.812112 C 39.05718,59.967332 27.125295,94.953396 22.297683,128.16176 c -5.267743,31.56838 -12.3343031,63.50386 -6.013592,95.54998 5.020437,31.10833 4.268653,62.51588 4.903763,93.89119" />
<path id="path882" style="fill:#ffffff;fill-rule:evenodd;stroke-width:9.48596;stroke-linecap:round;stroke-linejoin:round" d="m 455.26158,426.48066 c 4.96018,32.76737 -31.65255,38.98925 -55.34897,30.61743 -63.88909,-15.01867 -129.45538,-32.51192 -195.54609,-21.38609 -45.23818,4.79052 -88.44633,22.14267 -133.954583,24.35162 -31.327534,3.04769 -36.326025,-34.26485 -28.087285,-56.66046 17.029329,-53.82904 72.691488,-83.22794 123.843958,-97.0466 80.58303,-20.09103 172.77376,-12.27449 241.57451,37.19721 26.13832,19.53843 47.74879,49.05574 47.51846,82.92689 z" />
<path id="path874" style="fill:#ffffff;fill-rule:evenodd;stroke-width:12.2332;stroke-linecap:round;stroke-linejoin:round" d="m 367.43317,161.8737 c 0.896,60.59756 -39.85076,119.59305 -97.92418,138.10761 C 214.9633,319.05579 150.36385,298.90771 115.44194,253.09866 75.490811,203.74599 73.541658,128.34983 110.76048,76.932367 143.16955,29.292089 206.54078,5.5157188 262.10936,21.528544 324.09416,37.666322 368.24204,98.251866 367.43317,161.8737 Z" />
<path id="path838" style="fill:none;fill-rule:evenodd;stroke:#000000;stroke-width:25;stroke-linecap:round;stroke-linejoin:round" d="m 350.48577,451.95678 c -22.82269,-6.84512 -46.72006,-9.07763 -70.2294,-12.34723 m 7.42191,-0.17222 c -3.80313,-0.59476 -7.62714,-1.04505 -11.45958,-1.39835 m -2.05593,-3.80852 c -10.01144,-1.49929 -20.20235,-1.60048 -30.26852,-0.60945 m 5.39767,2.96224 c -50.79209,-0.40563 -101.55905,7.73447 -148.86128,26.62152 -5.72859,2.01508 -11.718465,3.46325 -17.810303,3.65552 m 14.164648,-8.26046 c -24.525822,9.15328 -60.028116,1.31713 -56.678598,-31.35937 -0.159218,-4.34756 0.09751,-8.72337 0.957118,-12.99365 m -4.539667,13.76365 c 1.333128,-15.1151 7.571586,-29.57461 17.266333,-41.19677 m -1.734701,0.4268 c 4.584645,-9.40458 10.719898,-17.9616 17.282832,-26.07217 m 0.480865,3.53843 1.136962,-1.27527 m -1.25321,1.96549 c 20.740084,-19.55242 38.706541,-44.30346 67.524341,-52.33707 18.1189,-8.39669 37.19524,-14.10355 56.92865,-17.20861 m -11.31077,10.28932 c 22.0333,-4.20969 43.28963,-13.05627 65.5611,-15.16001 24.82626,4.13896 46.29755,18.30209 72.68365,16.69994 m -15.2558,-3.91527 c 26.92556,5.60034 55.35798,10.54913 78.71356,25.97787 m -3.36113,-0.36626 c 23.09935,13.374 52.00326,23.43718 62.33574,50.60139 6.89567,15.29283 11.36143,31.82108 13.02862,48.51748 m -6.64531,-14.37348 c 10.08127,26.68333 -5.27899,57.87696 -37.5521,46.99205 l -5.50178,-0.39151 -5.73641,-0.52052 m 11.46221,0.30829 c -7.87868,-1.01373 -15.73679,-2.19332 -23.63767,-3.02929 m -0.11985,2.61663 c -20.49364,-3.66477 -39.48076,-12.59311 -59.371,-18.3233 m -40.77574,0.15097 c -25.90943,-0.76693 -52.00562,-17.68125 -77.46522,-6.76484 -19.3675,10.62823 -39.47985,17.6303 -61.85516,18.33273 m 15.32973,-9.99356 c -24.82562,5.14976 -46.91859,19.41999 -72.001595,22.88894 -23.774641,3.90066 -55.156421,-6.64527 -53.209377,-35.64368 -0.620149,-10.71335 2.292067,-21.332 6.509363,-31.08752 m -2.927599,16.14148 c 5.285455,-33.94597 34.088535,-57.20475 58.578508,-78.49631 22.54858,-16.21353 49.74358,-23.78906 75.50849,-33.25048 m -19.61062,0.67344 c 26.44706,-9.22371 54.98806,-6.96173 82.5052,-7.63355 m -4.37751,2.60873 c 32.0857,-0.17201 65.31198,-5.49415 95.81202,7.8001 11.69087,3.7667 23.41517,7.48594 34.80161,12.11375 m -17.14923,-2.73758 c 23.75686,11.69718 53.97534,12.80227 70.63287,35.96652 17.2861,21.69572 36.62744,45.54596 40.20523,73.85309 m -9.65325,-10.36198 c 8.78547,24.46101 -2.91539,63.54035 -35.64805,48.46408 -22.50896,-9.23118 -45.0532,-18.21768 -69.73228,-19.65477 -10.9229,-2.37506 -21.90882,-4.57696 -33.03781,-5.73165 m 13.66781,2.99831 c -28.84938,-7.60048 -58.72846,-0.30912 -88.0955,-3.35416 -25.10085,3.47538 -50.56973,-0.89552 -75.48557,2.4422" />
<path id="path840" style="fill:none;fill-rule:evenodd;stroke:#000000;stroke-width:25;stroke-linecap:round;stroke-linejoin:round" d="m 313.10742,277.11163 c -18.56842,14.64376 -40.96174,24.74502 -64.39118,28.23981 m 7.32304,-2.13498 c -3.74374,0.76911 -7.5199,1.37324 -11.3131,1.83546 m -2.06368,-4.04477 c -10.06114,0.66281 -20.12273,1.51801 -30.21331,1.51856 m 5.39236,3.17494 C 181.91963,303.66426 144.92129,287.05989 125.90755,255.347 114.55312,240.88227 94.612712,232.05414 90.211412,212.92831 m 4.253468,9.54435 C 79.741057,194.3695 84.800739,161.23027 87.118988,130.95395 l 0.827506,-3.55778 m -5.229006,13.665 c 2.780355,-14.83436 8.607109,-29.13984 17.492712,-41.374629 m -1.496127,0.547589 c 3.947197,-9.720544 9.188577,-18.866522 14.923167,-27.631764 m 0.71964,3.731444 1.00642,-1.379792 m -1.24146,1.974991 c 18.11858,-20.765807 33.1133,-47.800235 61.79608,-55.21938 19.20893,-7.986026 39.87497,-11.8844672 60.64133,-9.015074 m -11.51364,6.884995 c 20.64651,0.496544 42.43655,-1.211491 62.15496,5.430405 21.65334,12.632355 29.99975,38.524988 49.67358,53.596136 l 2.48771,2.570934 2.42541,2.635553 m -9.86366,-12.012062 c 16.00549,21.538118 29.6817,45.598364 32.80222,72.728504 m 2.31627,-4.27764 c 9.48192,44.40401 -12.65779,86.89983 -38.63411,121.22527 m 3.02666,-11.38271 c -17.29004,24.47644 -42.88643,41.08216 -71.83923,48.40444 m 2.16322,-0.85611 c -7.8293,2.12586 -15.73072,3.98302 -23.67914,5.60639 m -0.0767,1.92345 c -20.71084,3.35972 -41.24186,-3.07802 -60.17435,-10.91813 m 4.18427,8.68156 C 151.29369,294.45243 134.00019,265.82385 109.35396,248.09765 97.711544,236.43123 93.065133,219.62387 89.284203,204.02938 m 6.044652,6.40149 C 83.178981,181.62374 80.919349,149.09294 91.980279,119.59005 100.43819,93.427718 113.91544,68.479523 136.02267,51.360505 m -10.99811,11.263181 c 20.77231,-24.744321 53.39929,-35.301148 83.60274,-43.341784 29.03377,-6.575774 56.0056,8.161604 83.29747,15.316572 M 273.5823,22.543772 c 26.76493,10.40621 48.52836,31.353415 65.07332,54.355227 m -1.30112,-3.761074 c 20.74533,25.452558 34.6155,57.318215 31.90535,90.681985 -0.2621,11.29537 -2.0552,22.59054 -5.74451,33.28631 m -2.50495,-10.55808 c -5.68689,34.43163 -27.88189,63.87155 -52.76306,87.20318 -12.38932,10.18134 -26.16328,19.16579 -41.36953,24.47134 m 7.18765,0.33678 c -31.87709,14.68157 -71.10848,14.16483 -100.07829,-6.99221 -23.46063,-11.99734 -48.95168,-22.35284 -62.05608,-47.16122" />
<path id="path840-1" style="fill:#000000;fill-rule:evenodd;stroke-width:10;stroke-linecap:round;stroke-linejoin:round" d="m 195.55486,152.6801 c -4.6417,28.00221 -45.94735,31.48815 -63.70714,13.69501 -17.1393,-21.14758 6.12775,-19.13327 18.90663,-9.9574 14.6969,11.01943 37.42621,-16.30828 44.80051,-3.73761 z" />
<path id="path840-1-2" style="fill:#000000;fill-rule:evenodd;stroke-width:10;stroke-linecap:round;stroke-linejoin:round" d="m 311.73023,152.97356 c -4.64169,28.00221 -45.94736,31.48816 -63.70715,13.69502 -17.13471,-21.68507 6.31584,-18.31136 18.90663,-9.05146 14.95245,11.40283 37.20009,-16.68517 44.80052,-4.64356 z" />
<path id="path840-1-2-4" style="fill:#000000;fill-rule:evenodd;stroke-width:9.0658;stroke-linecap:round;stroke-linejoin:round" d="m 248.90175,232.27581 c 3.95392,29.23536 -27.74884,48.10896 -53.586,37.83813 -17.78695,1.86305 -32.94296,-42.05668 -19.55436,-38.04901 13.99553,25.95211 56.00276,31.96346 68.89604,1.90527 1.53884,-2.66091 5.06885,-11.37731 4.24432,-1.69439 z" />
<g aria-label="Z" transform="matrix(0.95678916,0.32498185,-0.33368946,0.93182179,0,0)" id="text897" style="font-weight:bold;font-size:54.3231px;font-family:'Comic Sans MS';-inkscape-font-specification:'Comic Sans MS, Bold';fill:#000000;stroke-width:1.35808">
<path id="path889" d="m 464.93497,117.19793 c -9.30459,6.75623 -37.39846,33.7418 -9.13121,25.92814 20.73992,-2.41877 8.97949,12.10896 -4.37165,6.82849 -16.74823,4.90183 -26.90899,-4.82435 -10.94652,-17.60428 8.40998,-10.7667 19.57809,-19.33678 0.5917,-16.31948 -24.50682,-5.36116 18.15053,-10.83258 26.86494,-4.98346 1.67444,2.32815 -1.3058,5.12602 -3.00726,6.15059 z" />
</g>
<g aria-label="Z" transform="matrix(0.97829948,0.31783633,-0.34119139,0.91133339,0,0)" id="text897-6" style="font-weight:bold;font-size:87.7472px;font-family:'Comic Sans MS';-inkscape-font-specification:'Comic Sans MS, Bold';fill:#000000;stroke-width:2.19368">
<path id="path886" d="m 465.57425,32.960473 c -12.34387,7.886354 -40.04425,37.107398 -32.92663,42.609663 9.19274,-1.7182 50.93572,-3.339564 32.02688,10.432834 -14.12366,-5.122694 -63.2929,12.710453 -48.83295,-15.00657 8.35576,-13.200203 27.73788,-33.039638 29.87925,-40.186226 -10.34949,-0.426879 -21.53417,1.895226 -31.38955,-1.063105 -2.74137,-20.2961182 35.67069,-5.382089 49.71664,-9.506304 9.22751,0.0753 8.80134,9.319337 1.52636,12.719708 z" />
</g>
<g aria-label="Z" transform="matrix(0.99972885,0.31102344,-0.34866509,0.8917988,0,0)" id="text897-2" style="font-weight:bold;font-size:130.008px;font-family:'Comic Sans MS';-inkscape-font-specification:'Comic Sans MS, Bold';fill:#000000;stroke-width:3.25021">
<path id="path883" d="m 459.08878,-70.789282 c -25.12202,14.612413 -38.96457,41.453496 -56.68806,63.4169858 20.42417,2.9013064 50.52025,-10.5256348 64.68659,6.47500758 C 452.50675,17.45039 416.96229,2.7166489 394.18,8.2756388 c -35.74795,-4.5315997 8.63385,-41.3378708 16.85406,-56.6563168 7.18623,-12.681552 36.74134,-31.310665 6.74898,-25.201745 -11.48985,-0.924449 -23.86046,2.078257 -34.6169,-1.967895 -7.38549,-27.289752 38.91997,-9.218619 55.30339,-14.457677 13.24253,-2.211888 43.97437,2.092645 20.61925,19.218713 z" />
</g>
</svg>
