<?xml version="1.0" encoding="UTF-8" standalone="no"?>
<svg xmlns:dc="http://purl.org/dc/elements/1.1/" xmlns:cc="http://creativecommons.org/ns#" xmlns:rdf="http://www.w3.org/1999/02/22-rdf-syntax-ns#" xmlns:svg="http://www.w3.org/2000/svg" xmlns="http://www.w3.org/2000/svg" xmlns:sodipodi="http://sodipodi.sourceforge.net/DTD/sodipodi-0.dtd" xmlns:inkscape="http://www.inkscape.org/namespaces/inkscape" version="1.1" width="50px" height="50px" viewBox="0 0 50 50" id="svg19" sodipodi:docname="magnifier.svg" inkscape:version="1.0.1 (3bc2e813f5, 2020-09-07)">
<metadata id="metadata23">
<rdf:RDF>
<cc:Work rdf:about="">
<dc:format>image/svg+xml</dc:format>
<dc:type rdf:resource="http://purl.org/dc/dcmitype/StillImage" />
<dc:title />
</cc:Work>
</rdf:RDF>
</metadata>
<sodipodi:namedview pagecolor="#333333" bordercolor="#666666" borderopacity="1" objecttolerance="10" gridtolerance="10" guidetolerance="10" inkscape:pageopacity="0" inkscape:pageshadow="2" inkscape:window-width="2560" inkscape:window-height="1361" id="namedview21" showgrid="false" inkscape:zoom="9" inkscape:cx="-16.867394" inkscape:cy="23.115171" inkscape:window-x="2391" inkscape:window-y="-9" inkscape:window-maximized="1" inkscape:current-layer="svg19" inkscape:document-rotation="0" inkscape:snap-global="false" />
<defs id="defs7">
<inkscape:path-effect effect="sketch" id="path-effect844" is_visible="true" lpeversion="1" nbiter_approxstrokes="5" strokelength="100" strokelength_rdm="1;1" strokeoverlap="0.1" strokeoverlap_rdm="0.1;1" ends_tolerance="0;1" parallel_offset="0;1" tremble_size="1.8;1" tremble_frequency="4" nbtangents="0" tgt_places_rdmness="0;1" tgtscale="0" tgtlength="0" tgtlength_rdm="0;1" />
<inkscape:path-effect effect="sketch" id="path-effect1707" is_visible="true" lpeversion="1" nbiter_approxstrokes="2" strokelength="200" strokelength_rdm="1;1" strokeoverlap="0.1" strokeoverlap_rdm="0.1;1" ends_tolerance="0;1" parallel_offset="0;1" tremble_size="1;1" tremble_frequency="4" nbtangents="0" tgt_places_rdmness="0;1" tgtscale="0" tgtlength="0" tgtlength_rdm="0;1" />
<marker style="overflow:visible" id="Arrow1Lend" refX="0.0" refY="0.0" orient="auto" inkscape:stockid="Arrow1Lend" inkscape:isstock="true">
<path transform="scale(0.8) rotate(180) translate(12.5,0)" style="fill-rule:evenodd;stroke:#01fd00;stroke-width:1pt;fill:#01fd00" d="M 0.0,0.0 L 5.0,-5.0 L -12.5,0.0 L 5.0,5.0 L 0.0,0.0 z " id="path851" />
</marker>
</defs>
<path style="fill:none;stroke:#000000;stroke-width:10;stroke-linecap:round;stroke-linejoin:round" d="m 31.104559,21.140041 c -5.138539,5.702903 -11.497644,12.224835 -17.522058,18.302053 -1.613838,1.627982 -3.19812,3.238014 -4.7730065,4.828848 M 30.724786,20.605829 c -1.221368,1.368929 -2.528157,2.758318 -3.899206,4.159201 M 25.790666,22.626511 C 22.019487,25.997736 18.7192,29.914625 15.512184,33.967837 m 2.114358,0.321861 c -3.121846,3.099728 -6.041951,6.086676 -8.9629768,9.00147 M 32.172027,18.581718 C 25.966441,25.16008 20.132472,31.618489 13.090313,39.343656 11.203839,41.413097 9.5620463,43.183354 8.0859577,44.748229 M 28.78319,18.89053 c -5.267332,5.348176 -9.520936,10.561956 -13.491465,15.636133 m 2.147806,-0.61763 c -2.566879,2.834056 -5.35581,5.861371 -8.2986873,9.051769 M 32.032436,21.478295 c -0.167095,0.197886 -0.3356,0.395439 -0.50543,0.592624 m -1.07574,-2.658716 c -5.905264,6.657604 -10.886469,12.679052 -15.707074,19.777468 -1.154229,1.699619 -2.414045,3.306132 -3.745405,4.860176" id="path842" sodipodi:nodetypes="cc" inkscape:path-effect="#path-effect844" inkscape:original-d="M 30.555554,19.888889 9.0000003,43.111112" />
<ellipse style="fill:#86ddff;fill-rule:evenodd;stroke-width:2.66864;stroke-linecap:round;stroke-linejoin:round" id="path1688" cx="31.747385" cy="16.609015" rx="14.675573" ry="14.821748" />
<path style="fill:none;fill-rule:evenodd;stroke:#000000;stroke-width:2.63604;stroke-linecap:round;stroke-linejoin:round" id="ellipse1705" inkscape:path-effect="#path-effect1707" sodipodi:type="arc" sodipodi:cx="31.820452" sodipodi:cy="16.573338" sodipodi:rx="14.619789" sodipodi:ry="14.517139" d="m 46.745105,17.268616 c 0.141491,7.916516 -6.426397,14.405283 -14.560852,14.426731 -8.147721,0.02148 -14.808241,-6.431397 -14.914877,-14.43663 -0.01875,-1.407342 0.170164,-2.808479 0.560545,-4.159614 1.777112,-6.1507033 7.433865,-10.3817149 13.851137,-10.4298495 0.291079,-0.00218 0.582093,0.00433 0.872644,0.019529 m -6.124315,0.8261786 c 1.771341,-0.7170703 3.651629,-1.0909881 5.540285,-1.1028191 2.050194,-0.012843 4.066891,0.4012933 5.921324,1.2140755 M 36.126248,2.2609937 c 5.705086,1.9529016 9.562391,7.4140369 9.596505,13.5856703 0.02379,4.302883 -1.821048,8.413655 -5.043505,11.24988 m 5.823304,-10.327766 c -0.15146,8.03537 -6.729099,14.51384 -14.852046,14.445514 -8.121573,-0.06831 -14.688886,-6.661696 -14.812897,-14.805121 -0.02181,-1.432219 0.160361,-2.857437 0.539187,-4.231943 1.723354,-6.252889 7.457029,-10.5102212 14.04571,-10.54913 8.259601,-0.048776 15.081533,6.4280865 15.478334,14.351245 0.1403,2.801474 -0.55065,5.532931 -1.968085,7.845922 -2.44376,3.987765 -6.962813,6.439641 -11.919365,6.507616 -8.160685,0.111917 -15.017876,-6.119466 -15.430199,-13.776026 -0.22018,-4.088602 1.469974,-7.9455422 4.579729,-10.4695623 2.477105,-2.0105317 5.726495,-3.1258916 9.147419,-3.1114335 2.333836,0.00986 4.659141,0.5450993 6.779083,1.5663106" />
</svg>
