<svg version="1.1" viewBox="0 0 100 100" xmlns="http://www.w3.org/2000/svg">
 <g fill="none" stroke="#808080" stroke-linecap="round" stroke-linejoin="bevel" stroke-width="10">
  <g fill="#808080" stroke="none">
   <path d="m50 10a5 5 0 0 0-5 5v70a5 5 0 0 0 5 5 5 5 0 0 0 5-5v-70a5 5 0 0 0-5-5z" color="#000000" style="-inkscape-stroke:none"/>
   <g fill-rule="evenodd">
    <path d="m37.899 34.256 12.053-32.778 12.053 32.778c-7.1163-5.2365-16.852-5.2062-24.106 0z" color="#000000" style="-inkscape-stroke:none"/>
    <path d="m49.951 0.54102a0.93759 0.93759 0 0 0-0.87891 0.61328l-12.053 32.777a0.93759 0.93759 0 0 0 1.4258 1.0859c6.9322-4.9755 16.218-4.9994 23.004-0.0059a0.93759 0.93759 0 0 0 1.4355-1.0801l-12.053-32.777a0.93759 0.93759 0 0 0-0.88086-0.61328zm2e-3 3.6523 10.236 27.846c-6.3492-3.4805-14.065-3.4486-20.488 0.035157z" color="#000000" style="-inkscape-stroke:none"/>
    <path d="m62.101 65.744-12.053 32.778-12.053-32.778c7.1163 5.2365 16.852 5.2062 24.106 0z" color="#000000" style="-inkscape-stroke:none"/>
    <path d="m62.311 64.83a0.93759 0.93759 0 0 0-0.75586 0.15234c-6.9322 4.9755-16.218 4.9994-23.004 0.0059a0.93759 0.93759 0 0 0-1.4355 1.0801l12.053 32.777a0.93759 0.93759 0 0 0 1.7598 0l12.053-32.777a0.93759 0.93759 0 0 0-0.66992-1.2383zm-2.0117 3.0957-10.252 27.881-10.236-27.846c6.3492 3.4805 14.065 3.4486 20.488-0.03516z" color="#000000" style="-inkscape-stroke:none"/>
   </g>
   <path d="m15 45a5 5 0 0 0-5 5 5 5 0 0 0 5 5h70a5 5 0 0 0 5-5 5 5 0 0 0-5-5z" color="#000000" style="-inkscape-stroke:none"/>
   <g fill-rule="evenodd">
    <path d="m34.256 62.101-32.778-12.053 32.778-12.053c-5.2365 7.1163-5.2062 16.852 0 24.106z" color="#000000" style="-inkscape-stroke:none"/>
    <path d="m33.932 37.115-32.777 12.053a0.93759 0.93759 0 0 0 0 1.7598l32.777 12.053a0.93759 0.93759 0 0 0 1.0859-1.4258c-4.9755-6.9322-4.9994-16.218-0.0059-23.004a0.93759 0.93759 0 0 0-1.0801-1.4355zm-1.8926 2.6953c-3.4805 6.3492-3.4486 14.065 0.03516 20.488l-27.881-10.252z" color="#000000" style="-inkscape-stroke:none"/>
    <path d="m65.744 37.899 32.778 12.053-32.778 12.053c5.2365-7.1163 5.2062-16.852 0-24.106z" color="#000000" style="-inkscape-stroke:none"/>
    <path d="m66.068 37.02a0.93759 0.93759 0 0 0-1.0859 1.4258c4.9755 6.9322 4.9994 16.218 0.0059 23.004a0.93759 0.93759 0 0 0 1.0801 1.4355l32.777-12.053a0.93759 0.93759 0 0 0 0-1.7598zm1.8574 2.6816 27.881 10.252-27.846 10.236c3.4805-6.3492 3.4486-14.065-0.03516-20.488z" color="#000000" style="-inkscape-stroke:none"/>
   </g>
  </g>
 </g>
</svg>
