<?xml version="1.0" encoding="UTF-8" standalone="no"?>
<svg xmlns:dc="http://purl.org/dc/elements/1.1/" xmlns:cc="http://creativecommons.org/ns#" xmlns:rdf="http://www.w3.org/1999/02/22-rdf-syntax-ns#" xmlns:svg="http://www.w3.org/2000/svg" xmlns="http://www.w3.org/2000/svg" xmlns:sodipodi="http://sodipodi.sourceforge.net/DTD/sodipodi-0.dtd" xmlns:inkscape="http://www.inkscape.org/namespaces/inkscape" version="1.1" width="50px" height="50px" viewBox="0 0 50 50" id="svg19" sodipodi:docname="nextWave.svg" inkscape:version="1.0.1 (3bc2e813f5, 2020-09-07)">
<metadata id="metadata23">
<rdf:RDF>
<cc:Work rdf:about="">
<dc:format>image/svg+xml</dc:format>
<dc:type rdf:resource="http://purl.org/dc/dcmitype/StillImage" />
<dc:title />
</cc:Work>
</rdf:RDF>
</metadata>
<sodipodi:namedview pagecolor="#333333" bordercolor="#666666" borderopacity="1" objecttolerance="10" gridtolerance="10" guidetolerance="10" inkscape:pageopacity="0" inkscape:pageshadow="2" inkscape:window-width="2560" inkscape:window-height="1361" id="namedview21" showgrid="false" inkscape:zoom="6.363961" inkscape:cx="-7.417974" inkscape:cy="14.10619" inkscape:window-x="2391" inkscape:window-y="-9" inkscape:window-maximized="1" inkscape:current-layer="svg19" inkscape:document-rotation="0" inkscape:snap-global="false" />
<defs id="defs7">
<inkscape:path-effect effect="sketch" id="path-effect856" is_visible="true" lpeversion="1" nbiter_approxstrokes="2" strokelength="200" strokelength_rdm="1;1" strokeoverlap="0.1" strokeoverlap_rdm="0.1;1" ends_tolerance="0;1" parallel_offset="0;1" tremble_size="2;1" tremble_frequency="4" nbtangents="0" tgt_places_rdmness="0;1" tgtscale="0" tgtlength="0" tgtlength_rdm="0;1" />
<inkscape:path-effect effect="sketch" id="path-effect888" is_visible="true" lpeversion="1" nbiter_approxstrokes="2" strokelength="41" strokelength_rdm="0.5;1" strokeoverlap="0.3" strokeoverlap_rdm="0.3;1" ends_tolerance="0.1;1" parallel_offset="0;1342692942" tremble_size="1.1;1" tremble_frequency="1.51" nbtangents="0" tgt_places_rdmness="0.7;1" tgtscale="0" tgtlength="0" tgtlength_rdm="0;1" />
<linearGradient x1="0%" y1="0%" x2="0%" y2="100%" id="mx-gradient-009900-1-ccffcc-1-s-0">
<stop offset="0%" style="stop-color:#009900" id="stop2" />
<stop offset="100%" style="stop-color:#CCFFCC" id="stop4" />
</linearGradient>
<filter style="color-interpolation-filters:sRGB" inkscape:label="Drop Shadow" id="filter1757" x="-0.077248335" y="-0.067331195" width="1.1418569" height="1.1321493">
<feFlood flood-opacity="0.364706" flood-color="rgb(0,0,0)" result="flood" id="feFlood1747" />
<feComposite in="flood" in2="SourceGraphic" operator="in" result="composite1" id="feComposite1749" />
<feGaussianBlur in="composite1" stdDeviation="0.3" result="blur" id="feGaussianBlur1751" />
<feOffset dx="2.7" dy="2" result="offset" id="feOffset1753" />
<feComposite in="SourceGraphic" in2="offset" operator="over" result="composite2" id="feComposite1755" />
</filter>
</defs>
<rect style="fill:#7a00cb;fill-opacity:0.59553695;stroke-width:3.076;stroke-linecap:round;stroke-linejoin:round" id="rect880" width="45.333332" height="45.666668" x="2.6666665" y="2.3333335" ry="16.111111" />
<g aria-label="NEXT" id="text848" style="font-weight:bold;font-size:11.8224px;font-family:'Comic Sans MS';-inkscape-font-specification:'Comic Sans MS, Bold';fill:#00e3f4;stroke-width:0.886686">
<path d="m 17.201677,21.394761 q 0,0.288633 -0.09813,0.91208 -0.115453,0.744673 -0.842808,0.744673 -0.404086,0 -0.912079,-0.45604 -2.222473,-2.003112 -5.016439,-5.616795 -0.03464,1.500891 -0.03464,1.841477 0,0.45604 0.01732,1.373893 0.02309,0.917852 0.02309,1.373892 0,1.702933 -0.8312627,1.702933 -0.4214039,0 -0.6754008,-0.259769 -0.2251335,-0.230906 -0.2251335,-0.559948 0,-0.230906 0.034636,-0.698491 0.040409,-0.467585 0.040409,-0.698492 0,-0.340586 0.023091,-1.02176 0.023091,-0.681173 0.023091,-1.02176 0,-0.363677 -0.017318,-1.096805 -0.017318,-0.733127 -0.017318,-1.096804 0,-0.34636 -0.069272,-1.033306 -0.069272,-0.686946 -0.069272,-1.033305 0,-0.34636 0.2944055,-0.617674 0.3001781,-0.271315 0.6811735,-0.271315 0.4271765,0 0.946716,0.7389 2.620786,3.740681 5.1723,6.101697 0.0058,-0.184725 0.0058,-0.877443 0,-2.84592 -0.05773,-3.838817 -0.01155,-0.167407 -0.07504,-0.623447 -0.05773,-0.404086 -0.05773,-0.634992 0,-0.796626 0.842807,-0.796626 0.940943,0 0.940943,2.903646 0,0.0635 -0.01155,0.912079 -0.03464,2.93251 -0.03464,3.648319 z" id="path846" />
<path d="m 24.088456,15.414289 q -0.115453,0 -0.242451,-0.03464 -0.93517,-0.253997 -1.818387,-0.253997 -0.432949,0 -0.929397,0.06927 -0.496449,0.06927 -1.056397,0.207816 0,0.767763 -0.05195,2.280199 0.323268,-0.02309 2.257108,-0.213588 1.102577,-0.109681 1.396983,-0.109681 0.340587,0 0.583038,0.219361 0.242452,0.213589 0.242452,0.571493 0,0.686946 -0.733128,0.779309 -0.461812,0.03464 -1.379664,0.115453 -0.819718,0.09236 -2.470697,0.225134 -0.04041,0.733127 -0.04041,1.183394 0,1.131441 0.132771,1.287303 0.0635,0.07504 0.727355,0.07504 0.357905,0 1.079487,-0.01732 0.721582,-0.01732 1.079486,-0.01732 0.115453,0 0.340587,-0.03464 0.225134,-0.03464 0.334814,-0.03464 0.334814,0 0.571493,0.190498 0.271315,0.213588 0.271315,0.600356 0,0.646538 -0.675401,0.773536 -0.577265,0.109681 -2.395652,0.109681 -1.881886,0 -2.453379,-0.507994 -0.62922,-0.559948 -0.62922,-2.424516 0,-0.773536 0.109681,-2.320608 0.115453,-1.552844 0.115453,-2.320607 0,-0.202043 -0.05773,-0.594584 -0.05773,-0.398313 -0.05773,-0.600356 0,-0.877444 0.808172,-0.877444 0.253997,0 0.467585,0.144316 0.669628,-0.167407 1.269984,-0.248224 0.606129,-0.08659 1.142986,-0.08659 1.45471,0 2.326381,0.334814 0.531084,0.202043 0.531084,0.733128 0,0.300178 -0.207816,0.531084 -0.230906,0.265542 -0.588811,0.265542 z" id="path848" />
<path d="m 33.111119,15.339245 q -0.76199,0.871671 -1.177622,1.454709 -0.438722,0.640765 -1.408528,1.864568 0.606129,0.842808 1.212258,1.691388 0.715809,0.987125 1.287302,1.633662 0.213589,0.242452 0.213589,0.519539 0,0.323269 -0.248225,0.559948 -0.242451,0.236679 -0.577265,0.236679 -0.571493,0 -1.495118,-1.316166 -0.248224,-0.380995 -0.767764,-1.131441 -0.242451,-0.334814 -0.733127,-0.998669 -0.710037,0.802399 -1.801069,1.974248 -0.346359,0.392541 -1.067941,1.142986 -0.253997,0.242452 -0.583038,0.242452 -0.334814,0 -0.583039,-0.236679 -0.248224,-0.230906 -0.248224,-0.554175 0,-0.277088 0.202043,-0.507994 0.352132,-0.36945 1.050624,-1.114122 0.76199,-0.819718 2.037747,-2.251336 -0.583038,-0.7389 -1.229576,-1.4778 -0.05195,-0.05773 -0.658082,-0.842808 -0.398314,-0.513767 -0.733128,-0.773536 -0.329041,-0.265542 -0.329041,-0.623447 0,-0.305951 0.230906,-0.548402 0.236679,-0.248225 0.588811,-0.248225 0.311724,0 0.819717,0.438722 0.36945,0.323269 0.611902,0.65231 0.242451,0.323269 0.721582,0.935171 0.554175,0.629219 1.067941,1.275757 0.727355,-0.958261 1.448937,-1.916522 1.119895,-1.385438 1.529754,-1.385438 0.334814,0 0.583038,0.236679 0.248224,0.230907 0.248224,0.554175 0,0.271315 -0.213588,0.513767 z" id="path850" />
<path d="m 41.106248,15.89342 q -0.450267,0 -1.402755,-0.0635 -0.917853,-0.0635 -1.402756,-0.05773 0.02309,0.658083 0.155862,2.343698 0.121226,1.489346 0.121226,2.355244 0,0.19627 0.04041,0.583038 0.04041,0.386768 0.04041,0.583039 0,0.432949 -0.184725,0.779308 -0.236679,0.444495 -0.675401,0.444495 -0.317496,0 -0.559948,-0.202043 -0.271314,-0.225134 -0.271314,-0.56572 0,-0.08082 0.02886,-0.242452 0.02886,-0.167407 0.02886,-0.253997 0,-0.265542 -0.04041,-0.802399 -0.03464,-0.536857 -0.03464,-0.808172 0,-0.773536 -0.121226,-2.095474 -0.138544,-1.518209 -0.161635,-2.095474 h -0.300178 q -1.287302,0 -2.04352,-0.184725 -0.640765,-0.155862 -0.640765,-0.756218 0,-0.294406 0.207816,-0.531085 0.242451,-0.28286 0.634992,-0.253997 0.202043,0.01155 0.917852,0.09814 0.571493,0.0635 0.923625,0.0635 0.352132,0 1.050624,-0.01155 0.704264,-0.01154 1.056396,-0.01154 0.438722,0 1.316165,0.0635 0.877444,0.05773 1.316166,0.05773 0.346359,0 0.577266,0.225133 0.236679,0.225134 0.236679,0.554175 0,0.329042 -0.236679,0.559948 -0.230907,0.225134 -0.577266,0.225134 z" id="path852" />
</g>
<g aria-label="WAVE" id="text852" style="font-weight:bold;font-size:11.8224px;font-family:'Comic Sans MS';-inkscape-font-specification:'Comic Sans MS, Bold';fill:#00e3f4;stroke-width:0.886686">
<path d="m 18.953444,30.764977 q -0.09814,0.236679 -0.230906,0.583038 -0.09814,0.334814 -0.317497,0.992897 -0.329041,0.848581 -1.04485,2.470697 -0.733128,1.65098 -1.050624,2.464924 -0.236679,0.606129 -0.444494,0.969807 -0.271315,0.47913 -0.82549,0.47913 -0.329042,0 -0.594584,-0.178952 -0.311723,-0.207816 -0.334814,-0.548403 -0.265542,-0.663855 -0.334814,-1.085259 -0.253997,-1.235348 -0.704264,-3.711818 -0.375223,1.160304 -0.808172,2.083929 -0.646537,1.385438 -0.84858,2.176291 0.05195,0.126999 0.05195,0.271315 0,0.357905 -0.317497,0.583039 -0.277087,0.190497 -0.611901,0.190497 -0.421404,0 -0.6984915,-0.213588 -0.3001781,-0.236679 -0.3117234,-0.646538 l -0.1789524,-0.6754 q -0.1904976,-0.900535 -0.6234469,-2.690058 -0.3809953,-1.36812 -1.275757,-3.896543 -0.051954,-0.144317 -0.051954,-0.288633 0,-0.346359 0.2655422,-0.548402 0.2366789,-0.184725 0.5714929,-0.184725 0.4387219,0 0.6984915,0.36945 0.1443164,0.202043 0.3290414,0.733127 0.5657203,1.627889 1.2757572,4.745123 0.461812,-1.125667 0.940943,-2.655421 0.386768,-1.246894 0.629219,-1.772206 0.577266,-1.258439 1.177622,-1.258439 0.565721,0 0.82549,0.617674 0.126999,0.294406 0.248224,1.067942 0.03464,0.236679 0.150089,1.160304 0.121226,0.992896 0.727355,3.613682 0.611902,-1.431618 1.645207,-4.127449 0.0635,-0.161634 0.300178,-1.062169 0.167407,-0.646537 0.421404,-1.02176 0.277088,-0.404086 0.7389,-0.404086 0.352132,0 0.583039,0.219361 0.230906,0.213589 0.230906,0.554175 0,0.121226 -0.202043,0.623447 z" id="path855" />
<path d="m 26.613759,38.344475 q -0.45604,-0.01732 -0.917852,-1.073714 -0.305951,-0.681174 -0.525312,-1.570163 -0.427177,0.0635 -1.396983,0.126999 -0.912079,0.0635 -1.396983,0.150089 -0.265542,0.634992 -0.923625,1.910749 -0.253997,0.415631 -0.704264,0.415631 -0.317496,0 -0.571493,-0.213588 -0.253997,-0.219361 -0.253997,-0.554175 0,-0.294405 0.842808,-1.997339 -0.08082,-0.178952 -0.06927,-0.334814 0.02309,-0.277088 0.559948,-0.432949 0.819717,-1.420074 1.824159,-2.944055 1.443165,-2.187837 1.777979,-2.187837 0.634992,0 0.84858,0.767763 0.115453,0.617675 0.363677,1.853023 0.352132,1.662525 0.860126,3.804181 0.04041,0.161634 0.294406,0.76199 0.207815,0.496449 0.207815,0.744673 0,0.334814 -0.253997,0.559948 -0.248224,0.225133 -0.56572,0.213588 z m -2.153201,-5.922746 q -0.450267,0.773536 -1.241121,2.10702 0.25977,-0.05773 0.808172,-0.09236 0.646538,-0.04041 0.813945,-0.0635 -0.138544,-0.750445 -0.380996,-1.951158 z" id="path857" />
<path d="m 31.705241,35.74678 q 0.871671,-2.19361 1.350801,-3.492458 0.253997,-0.686946 0.502222,-1.379664 0.340586,-0.819718 0.733127,-1.264212 0.259769,-0.294406 0.623447,-0.294406 0.329041,0 0.577265,0.230907 0.248225,0.225133 0.248225,0.554175 0,0.230906 -0.155862,0.45604 -0.311724,0.450267 -0.571493,1.085259 -0.01155,0.02309 -0.427177,1.142986 -0.519539,1.333483 -1.547072,4.000451 -0.265542,0.698491 -0.65231,1.396982 -0.248224,0.450268 -0.721582,0.450268 -0.600356,0 -0.837035,-0.565721 -0.704264,-1.679843 -1.56439,-4.843258 -0.236679,-0.779309 -0.47913,-1.558617 -0.323269,-1.08526 -0.323269,-1.506664 0,-0.340586 0.253997,-0.56572 0.242451,-0.207816 0.56572,-0.207816 0.554175,0 0.773536,0.577266 0.115453,0.502221 0.230906,0.998669 0.190498,0.623447 0.548403,1.870341 0.450267,1.65098 0.871671,2.915192 z" id="path859" />
<path d="m 42.425064,30.77075 q -0.115453,0 -0.242451,-0.03464 -0.93517,-0.253997 -1.818387,-0.253997 -0.432949,0 -0.929398,0.06927 -0.496448,0.06927 -1.056396,0.207815 0,0.767764 -0.05195,2.2802 0.323269,-0.02309 2.257109,-0.213589 1.102577,-0.10968 1.396983,-0.10968 0.340587,0 0.583038,0.219361 0.242452,0.213588 0.242452,0.571493 0,0.686946 -0.733128,0.779308 -0.461812,0.03464 -1.379664,0.115454 -0.819718,0.09236 -2.470697,0.225133 -0.04041,0.733128 -0.04041,1.183395 0,1.13144 0.132771,1.287302 0.0635,0.07505 0.727355,0.07505 0.357905,0 1.079487,-0.01732 0.721582,-0.01732 1.079486,-0.01732 0.115453,0 0.340587,-0.03464 0.225134,-0.03464 0.334814,-0.03464 0.334814,0 0.571493,0.190497 0.271315,0.213589 0.271315,0.600357 0,0.646537 -0.675401,0.773536 -0.577266,0.10968 -2.395652,0.10968 -1.881886,0 -2.453379,-0.507994 -0.62922,-0.559947 -0.62922,-2.424515 0,-0.773536 0.109681,-2.320608 0.115453,-1.552845 0.115453,-2.320608 0,-0.202043 -0.05773,-0.594584 -0.05773,-0.398313 -0.05773,-0.600356 0,-0.877444 0.808172,-0.877444 0.253997,0 0.467585,0.144317 0.669628,-0.167407 1.269984,-0.248224 0.606129,-0.08659 1.142986,-0.08659 1.45471,0 2.326381,0.334814 0.531084,0.202043 0.531084,0.733127 0,0.300178 -0.207816,0.531085 -0.230906,0.265542 -0.588811,0.265542 z" id="path861" />
</g>
<path style="fill:none;fill-opacity:0.595537;stroke:#000000;stroke-width:2.97528;stroke-linecap:round;stroke-linejoin:round" id="rect854" inkscape:path-effect="#path-effect856" sodipodi:type="rect" d="m 19.102664,4.4234386 c 4.392572,-0.1139359 8.696743,-0.1695589 12.941377,-0.1895056 8.618113,-0.040499 15.373475,7.003279 15.128601,15.693554 -0.121013,4.294607 -0.246091,8.581291 -0.346003,12.837125 -0.0017,0.07103 -0.0033,0.142053 -0.005,0.213072 -0.159146,6.844752 -4.613118,12.58619 -10.831075,14.577867 m 6.016884,-3.725 c -2.660121,2.506234 -6.349932,4.02998 -10.494002,3.995572 -0.02308,-1.92e-4 -0.04616,-3.83e-4 -0.06925,-5.74e-4 m -0.496182,-1.976868 c -0.339486,0.0078 -0.681316,0.0061 -1.025202,-0.0054 C 25.546751,45.696511 21.258405,45.652117 17.028192,45.677647 11.110061,45.713365 6.0879799,42.583162 3.6057158,37.915104 m 2.8433265,3.820888 C 4.1876169,39.09135 2.823149,35.705602 2.7513071,31.992166 2.6670251,27.635716 2.6184159,23.251198 2.5724064,18.843655 2.4806896,10.057519 9.3592793,2.9196876 17.69289,2.6317565 18.334328,2.6095945 18.974358,2.5871136 19.612863,2.5643322 23.04817,2.4417629 26.585582,2.3568419 30.20549,2.29253 c 8.729166,-0.155084 16.153013,6.7674825 16.915718,15.25326 0.382951,4.260672 0.821281,8.494591 1.280186,12.671513 0.06407,0.583148 0.09353,1.157226 0.09029,1.720334 -0.0432,7.50145 -6.753885,13.622951 -15.225183,14.078649 C 28.755662,46.258939 24.121037,46.58757 19.451089,46.96943 13.774206,47.433627 8.6985205,45.438645 5.4275908,42.114619 3.2312201,39.882596 1.9457812,36.864151 1.9023106,33.43932 1.871752,31.031753 1.9031429,28.547969 1.9821038,26.004906 M 16.523952,1.9237103 c 4.14359,0.00131 8.381868,-0.010436 12.695352,-0.035057 8.795793,-0.050205 16.091357,6.8064465 16.676996,15.2900696 0.289041,4.187067 0.616147,8.361473 0.961589,12.523389 0.0058,0.06946 0.01148,0.138944 0.01716,0.208448 0.689955,8.45461 -6.296455,15.464094 -14.985617,15.697974 -4.295146,0.115609 -8.62768,0.267899 -12.930858,0.437769 -3.930399,0.155155 -7.494369,-1.09032 -10.1796684,-3.259655 M 15.46953,48.665986 C 7.8317129,47.697171 1.9519301,41.114445 2.3549472,33.103967 2.5713654,28.802378 2.8383393,24.517316 3.17574,20.233115 3.3916136,17.492024 4.3395575,14.923026 5.8552564,12.698605 M 4.4656833,14.878722 C 5.9538748,8.3479134 11.966761,3.3866791 19.206119,3.2060873 22.749849,3.117686 26.303439,2.9913217 29.850768,2.8418678" />
</svg>
