<?xml version="1.0" encoding="UTF-8" standalone="no"?>
<svg
   xmlns:dc="http://purl.org/dc/elements/1.1/"
   xmlns:cc="http://creativecommons.org/ns#"
   xmlns:rdf="http://www.w3.org/1999/02/22-rdf-syntax-ns#"
   xmlns:svg="http://www.w3.org/2000/svg"
   xmlns="http://www.w3.org/2000/svg"
   xmlns:xlink="http://www.w3.org/1999/xlink"
   xmlns:sodipodi="http://sodipodi.sourceforge.net/DTD/sodipodi-0.dtd"
   xmlns:inkscape="http://www.inkscape.org/namespaces/inkscape"
   viewBox="0 0 512 512"
   style="height: 512px; width: 512px;"
   version="1.1"
   id="svg16"
   sodipodi:docname="quest.svg"
   inkscape:version="1.0.1 (3bc2e813f5, 2020-09-07)">
  <metadata
     id="metadata22">
    <rdf:RDF>
      <cc:Work
         rdf:about="">
        <dc:format>image/svg+xml</dc:format>
        <dc:type
           rdf:resource="http://purl.org/dc/dcmitype/StillImage" />
        <dc:title></dc:title>
      </cc:Work>
    </rdf:RDF>
  </metadata>
  <defs
     id="defs20">
    <inkscape:path-effect
       effect="sketch"
       id="path-effect1021"
       is_visible="true"
       lpeversion="1"
       nbiter_approxstrokes="3"
       strokelength="100"
       strokelength_rdm="0.3;216153133"
       strokeoverlap="0.1"
       strokeoverlap_rdm="0.1;1"
       ends_tolerance="0;1"
       parallel_offset="0.3;1"
       tremble_size="4;1"
       tremble_frequency="0.51"
       nbtangents="0"
       tgt_places_rdmness="1;1"
       tgtscale="10"
       tgtlength="50"
       tgtlength_rdm="0.5;1" />
    <linearGradient
       inkscape:collect="always"
       id="linearGradient945">
      <stop
         style="stop-color:#f1d441;stop-opacity:1"
         offset="0"
         id="stop941" />
      <stop
         style="stop-color:#fff8cc;stop-opacity:1"
         offset="1"
         id="stop943" />
    </linearGradient>
    <linearGradient
       inkscape:collect="always"
       xlink:href="#linearGradient945"
       id="linearGradient949"
       x1="282.40573"
       y1="471.51669"
       x2="284.9783"
       y2="40.857811"
       gradientUnits="userSpaceOnUse"
       gradientTransform="matrix(0.99049588,0,0,0.99072204,-5.8691739,0.91177418)" />
  </defs>
  <sodipodi:namedview
     pagecolor="#ffffff"
     bordercolor="#666666"
     borderopacity="1"
     objecttolerance="10"
     gridtolerance="10"
     guidetolerance="10"
     inkscape:pageopacity="0"
     inkscape:pageshadow="2"
     inkscape:window-width="2560"
     inkscape:window-height="1361"
     id="namedview18"
     showgrid="false"
     inkscape:zoom="2.0039062"
     inkscape:cx="133.05"
     inkscape:cy="253.40193"
     inkscape:window-x="2391"
     inkscape:window-y="-9"
     inkscape:window-maximized="1"
     inkscape:current-layer="svg16" />
  <path
     id="rect918"
     style="fill:url(#linearGradient949);fill-opacity:1;stroke:none;stroke-width:16.8404;stroke-linecap:round;stroke-miterlimit:4;stroke-dasharray:none;stop-color:#000000"
     d="M 166.14115,145.76962 65.250065,139.42585 32.148378,82.595373 66.790361,35.025057 401.43033,32.01394 l 51.23125,26.99973 20.92331,56.10345 -73.52705,191.9675 -7.43199,80.03997 75.50349,15.02371 6.97294,56.32734 -39.12007,21.34538 -312.34547,2.05884 -40.085059,-19.45299 -14.29412,-49.14505 1.981334,-57.88854 94.407985,-209.12926 z"
     sodipodi:nodetypes="cccccccccccccccccc" />
  <path
     id="path916"
     style="fill:none;stroke:#000000;stroke-width:21.7471;stroke-linecap:round;stroke-linejoin:round;stroke-miterlimit:4;stroke-dasharray:none;stroke-opacity:1"
     d="m 86.389253,144.36603 c 24.150677,-0.46892 47.941817,-0.70074 71.540787,-0.82663 m -10.03107,-2.06207 c 5.63339,-0.0733 11.28101,-0.13806 16.94167,-0.19497 m -83.038462,0.95639 c 26.704642,-0.35545 53.850152,-0.74787 81.189942,-1.27282 m -78.956767,-0.007 c 25.996167,0.19504 51.694457,0.19036 77.315467,0.14552 m -9.1344,-1.26032 c 4.12406,-0.0672 8.26154,-0.13144 12.4119,-0.19321 M 86.080917,65.636177 c 23.575343,0.430004 47.570013,0.384817 71.862733,-0.02469 m -9.76224,-3.96979 c 3.48789,0.02364 6.98443,0.04619 10.48926,0.06764 M 88.050658,61.88446 c 25.219692,0.06393 50.108322,0.415062 74.755232,1.010905 m -4.43635,4.027762 c 2.47586,0.03474 4.94895,0.06677 7.41941,0.09614 M 87.955963,60.883907 c 25.003527,0.638827 50.309797,1.070616 75.824897,1.509859 m 9.21306,423.205254 c 23.84068,-0.0747 47.35056,-0.27276 70.70735,-0.54326 m -10.94288,-4.09364 c 31.86947,0.0495 63.13612,-0.40038 94.21361,-1.12205 m -11.86356,-2.27336 c 26.94556,-0.1397 53.72391,0.0641 80.53875,0.66361 m -3.75746,-0.79779 c 16.91079,0.18603 33.88519,0.34234 50.86793,0.53947 4.17503,0.0485 8.4898,-1.34374 12.61107,-3.73218 4.12202,-2.38888 8.05449,-5.77639 11.47173,-9.72737 0.14692,-0.16988 0.29289,-0.34079 0.43789,-0.51272 m -5.02478,8.51433 c 1.63264,-1.51049 3.19725,-3.15516 4.66924,-4.90094 3.48687,-4.13541 6.45336,-8.83725 8.57619,-13.66968 2.12278,-4.83231 3.40202,-9.79525 3.51601,-14.45493 0.16818,-6.87411 -0.52237,-12.84676 -1.93348,-18.03453 -1.41123,-5.1882 -3.54452,-9.59661 -6.26708,-13.34043 -1.71701,-2.36107 -3.66892,-4.45856 -5.8232,-6.32145 m 3.58888,3.7495 c -2.56008,-3.27149 -5.59106,-6.00317 -8.99653,-8.28254 -3.72656,-2.49428 -7.89906,-4.44522 -12.38678,-5.96799 -8.97491,-3.04534 -19.2054,-4.37641 -29.6316,-4.91546 -5.72642,-0.29606 -11.51187,-0.35325 -17.18635,-0.32459 m 11.54557,3.05138 c -7.07861,-0.0845 -14.21759,0.022 -20.9025,0.0382 0.89321,-10.47301 2.81252,-24.53359 5.39321,-39.37785 0.88851,-5.11078 1.85838,-10.33061 2.89559,-15.54033 m -3.60597,3.4912 c 2.33359,-12.07603 5.11538,-24.30546 8.17697,-35.269 3.112,-11.14409 7.08904,-22.09613 11.56884,-32.90766 m -7.46186,6.19486 c 2.50223,-6.5046 5.2154,-12.9793 8.06517,-19.43706 6.70365,-15.19093 14.15061,-30.26116 21.38972,-45.42059 4.17554,-8.74401 8.27825,-17.51038 12.11747,-26.32499 m -5.19053,8.74338 c 4.16199,-9.31384 8.05853,-18.63839 11.47283,-28.01856 5.07468,-13.94175 9.08305,-28.00335 11.3183,-42.34306 m 0.57113,11.79622 c 0.69203,-3.73245 1.26478,-7.48319 1.70513,-11.25459 2.28082,-19.5342 -2.74926,-42.10324 -16.82181,-59.944298 -0.38862,-0.492687 -0.78413,-0.981767 -1.18657,-1.46708 m 3.33545,0.563918 c -1.07516,-1.584152 -2.2112,-3.136322 -3.40918,-4.65187 -7.11225,-8.997681 -16.40921,-16.706801 -28.09803,-22.142853 -11.68674,-5.43509 -25.77058,-8.598525 -42.41559,-8.467297 -0.0723,5.7e-4 -6.29375,0.05425 -6.36602,0.05482 m 7.77187,6.096336 c -0.88271,-0.02762 -1.77302,-0.04669 -2.67097,-0.0571 -33.72893,-0.390755 -63.13211,-1.143515 -89.42359,-2.134781 m 10.75379,2.053124 c -33.01351,-0.288962 -72.65034,-0.521341 -92.70818,-0.650043 m 12.24601,-6.797861 c -24.77012,0.292477 -46.87633,0.500846 -71.64645,0.793323 m 7.49839,3.218954 c -2.85581,-0.02537 -16.72232,-0.141738 -19.57814,-0.167103 -18.87327,-0.157588 -26.61132,-0.231434 -32.07079,-0.323254 -2.35953,-0.03968 -3.57351,-0.07312 -4.21313,-0.09801 -0.3176,-0.01235 -0.488096,-0.02242 -0.579768,-0.02968 -0.04582,-0.0036 -0.07189,-0.0066 -0.08674,-0.0087 -0.0074,-0.0011 -0.01203,-0.002 -0.0149,-0.0026 -0.0029,-6.84e-4 -0.004,-0.0012 -0.0044,-0.0014 -2.54e-4,-1.58e-4 -2.81e-4,-2.45e-4 -2.86e-4,-2.59e-4 M 172.00549,485.11525 c 31.56394,-0.67036 63.03486,-1.01977 94.5433,-1.30995 m -7.59573,1.23462 c 23.97934,-0.0313 48.15118,-0.24589 72.36175,-0.56655 m -11.72403,0.28667 c 31.29585,-0.0303 62.81819,-0.70847 94.56428,-1.86229 m -10.23932,-5.81015 c 11.68735,-0.26318 23.42948,-0.44096 35.21599,-0.54854 4.22198,-0.0385 8.58832,-1.51528 12.77707,-3.99082 4.18782,-2.47499 8.20029,-5.94983 11.70829,-9.98459 3.5082,-4.03499 6.51519,-8.63372 8.69016,-13.36239 1.83763,-3.99525 3.08192,-8.08434 3.53483,-12.00983 m 0.68659,14.8604 c 1.34689,-3.70337 2.14806,-7.44461 2.24716,-11.01412 0.18739,-6.74923 -0.45726,-12.63504 -1.81336,-17.76435 -1.35602,-5.12904 -3.42162,-9.495 -6.07025,-13.21024 -2.64843,-3.71495 -5.87747,-6.77599 -9.55661,-9.29771 -3.67886,-2.52152 -7.8064,-4.50285 -12.24998,-6.05903 -2.9026,-1.01651 -5.94011,-1.85162 -9.07534,-2.53729 m 11.05155,-1.10776 c -8.50587,-2.68775 -18.09059,-3.93435 -27.89909,-4.49336 -10.50226,-0.59854 -21.26045,-0.4087 -31.21785,-0.35476 0.74777,-9.35826 2.30386,-21.44674 4.43453,-34.3193 m -4.3688,7.79438 c 0.69213,-4.34771 1.45518,-8.85297 2.27476,-13.416 2.61407,-14.5539 5.84925,-29.96408 9.35876,-43.25652 2.59525,-9.82968 5.80572,-19.49806 9.38666,-29.04559 m -5.28091,4.50607 c 2.96987,-8.40671 6.31074,-16.72024 9.86345,-24.97062 6.54713,-15.2043 13.80179,-30.16791 20.78397,-45.1226 1.017,-2.17825 2.02798,-4.35582 3.02983,-6.53327 m 2.0632,8.23861 c -0.002,0.003 0.4353,-0.89846 0.4336,-0.89496 7.23921,-14.95949 14.00586,-29.85293 19.38324,-44.84739 3.51927,-9.81325 6.44422,-19.67203 8.5146,-29.61781 m -8.80136,13.17625 c 1.92568,-7.79946 3.41218,-15.67888 4.32777,-23.65996 2.21946,-19.34671 -2.6753,-41.763205 -16.40221,-59.39447 -0.11798,-0.151535 -0.23661,-0.302716 -0.35589,-0.453538 m 5.47391,-1.366344 c -1.46885,-2.284154 -3.05998,-4.508648 -4.77648,-6.660152 -7.1652,-8.981039 -16.5162,-16.691653 -28.27229,-22.15461 -7.90907,-3.675284 -16.90707,-6.332915 -27.05502,-7.669571 m 12.26746,5.450032 c -6.705,-1.366639 -14.02179,-2.132796 -21.99011,-2.197865 -27.95467,-0.228275 -52.64678,-0.471443 -76.36496,-0.765267 m 9.11615,3.340898 c -28.06591,0.08037 -55.63146,0.001 -76.61678,-0.08327 m 3.17741,-6.281357 c -39.72112,-0.04506 -69.6421,0.218988 -90.39426,0.466475 m 8.54468,5.691524 c -12.39819,-0.0022 -22.92935,-0.07969 -30.99065,-0.166705 -17.18276,-0.185476 -27.74392,-0.458978 -31.57636,-0.576881 -2.292063,-0.07051 -3.50269,-0.123154 -4.113236,-0.15664 -0.309628,-0.01698 -0.476135,-0.02959 -0.565387,-0.0382 -0.04467,-0.0043 -0.07009,-0.0076 -0.08456,-0.01 -0.0072,-0.0012 -0.01173,-0.0021 -0.01452,-0.0029 -0.0028,-7.28e-4 -0.0039,-0.0012 -0.0043,-0.0015 -2.47e-4,-1.63e-4 -2.66e-4,-2.54e-4 -2.63e-4,-2.73e-4 M 167.81392,481.94567 c 23.31142,-0.60105 46.9763,-0.77221 70.8965,-0.66207 m -0.9712,2.95275 c 25.93372,-0.25779 51.97649,-0.4966 78.06522,-0.72923 m -8.63138,-3.04529 c 25.12711,0.15043 50.52971,-0.0124 76.00792,-0.30967 m -6.50784,-1.70941 c 22.08743,-0.31199 44.47651,-0.52994 67.02388,-0.69363 4.23483,-0.0308 8.61551,-1.50628 12.81834,-3.98961 3.71104,-2.19275 7.28464,-5.17209 10.49435,-8.63695 m -8.12154,11.81264 c 2.66326,-2.03235 5.1996,-4.45161 7.51458,-7.13194 3.48415,-4.03402 6.46663,-8.65931 8.62124,-13.44026 2.15453,-4.78079 3.48057,-9.71597 3.6498,-14.36497 0.24976,-6.86088 -0.34375,-12.84582 -1.65456,-18.06569 -1.31077,-5.21972 -3.33732,-9.6688 -5.94889,-13.46506 -2.61127,-3.7958 -5.80597,-6.93678 -9.44986,-9.54117 -1.30826,-0.93506 -2.67441,-1.80093 -4.09218,-2.60304 m 8.13729,1.39973 c -1.02844,-0.86539 -2.10151,-1.6783 -3.21563,-2.44186 -3.70647,-2.54022 -7.86735,-4.53437 -12.35044,-6.09759 -8.96686,-3.12667 -19.22093,-4.52897 -29.71114,-5.13051 -10.02016,-0.57458 -20.24222,-0.41826 -29.77618,-0.34074 m 5.30577,-0.59051 c -2.07841,-0.012 -6.93858,-0.019 -9.01699,-0.031 0.96871,-10.57581 3.00223,-24.5461 5.77832,-39.20517 2.78286,-14.69485 6.29757,-30.01077 10.24822,-43.50018 0.55944,-1.91019 1.14443,-3.81506 1.75329,-5.71497 m 0.44388,7.07976 c 0.31121,-1.19557 0.62474,-2.37869 0.94041,-3.54745 4.24967,-15.73462 10.0053,-31.12809 16.27545,-46.35281 4.00039,-9.71344 8.21954,-19.38001 12.38602,-29.00601 m -2.3671,11.42664 c 3.88714,-8.10072 7.76111,-16.16409 11.49782,-24.2495 7.02848,-15.20806 13.54602,-30.44092 18.64491,-45.8996 1.04265,-3.16108 2.02598,-6.33165 2.94206,-9.51312 m -5.1583,4.52627 c 4.97995,-14.96765 8.75628,-29.97859 10.41368,-45.24037 1.34017,-12.34067 -0.22114,-25.840001 -5.13409,-38.511347 m 4.20874,13.440206 C 467.09142,80.757316 462.40183,70.859764 455.49616,62.083883 448.54111,53.245251 439.34741,45.554845 427.6924,39.953678 423.85096,38.10756 419.74348,36.488966 415.36168,35.130465 m 3.43951,-0.964762 c -10.85083,-4.322199 -23.51107,-6.825693 -38.05361,-6.802372 -15.22249,0.02441 -29.73993,0.240377 -43.24239,0.552919 m 6.10258,3.006147 c -31.30312,0.02741 -63.71589,-0.0479 -86.40955,-0.103208 m 11.36003,-1.28089 C 227.60572,29.191244 200.64304,28.925376 175.38406,28.6057 m 6.7803,0.755596 c -5.40784,0.0086 -45.35746,0.03432 -50.76529,0.04288 -18.24837,8.76e-4 -26.78614,-0.02451 -31.704752,-0.07055 -0.747214,-0.007 -1.377724,-0.01424 -1.911441,-0.02154 m 8.753293,-1.583676 c -2.61763,-0.0908 -4.45206,-0.15556 -6.00983,-0.214092 -2.378419,-0.08937 -3.558519,-0.144229 -4.21428,-0.182409 -0.317526,-0.01849 -0.487603,-0.03178 -0.57933,-0.04081 -0.04578,-0.0045 -0.07183,-0.0079 -0.08666,-0.01037 -0.0074,-0.0012 -0.01202,-0.0022 -0.01489,-0.0029 -0.0029,-7.41e-4 -0.004,-0.0013 -0.0044,-0.0015 -2.54e-4,-1.63e-4 -2.81e-4,-2.55e-4 -2.85e-4,-2.76e-4 M 193.18045,385.22517 c 32.50478,-0.32909 64.39019,-0.0757 95.6787,0.57795 m -14.23213,3.10156 c 33.5974,0.0601 67.19431,-0.22264 101.14994,-0.73809 m -8.29243,-4.41753 c 6.67131,-0.0796 13.35511,-0.12698 20.04749,-0.14389 m -198.43039,5.12086 c 27.90309,-0.0644 55.55703,-0.30179 83.10784,-0.70999 m -7.71287,-3.67532 c 28.21221,-0.5415 56.75223,-0.637 85.51084,-0.55501 m -11.01278,-1.9186 c 15.30872,-0.0656 30.69992,-0.1089 46.14488,-0.13407 m -196.94522,5.83604 c 27.47789,0.16673 55.50687,0.23839 83.81313,0.34691 m -9.63338,-3.47301 c 28.99397,-0.0213 58.48823,0.14151 88.41361,0.5214 m -3.45325,3.88166 c 14.40714,-0.26629 28.80519,-0.42511 43.18666,-0.51058 M 90.067082,65.052372 c 5.794239,6.443281 11.507478,13.432406 16.344148,20.582473 4.82815,7.137463 8.7496,14.389385 10.93901,21.278165 1.09431,3.44316 1.75568,6.79545 1.87879,9.99393 0.12312,3.19847 -0.29184,6.24584 -1.3533,9.08063 -0.0361,0.0963 -0.0728,0.19231 -0.11039,0.2881 m -1.70567,-4.96991 c -0.10825,2.08939 -0.47245,4.09677 -1.12364,6.00634 -0.97486,2.85872 -2.59329,5.49895 -4.95807,7.86334 -2.36432,2.36394 -5.47696,4.45411 -9.43868,6.20574 -4.522527,1.99958 -8.982835,3.02311 -13.310277,3.23256 -4.328014,0.20948 -8.526555,-0.39507 -12.529636,-1.65519 -8.008216,-2.5209 -15.234132,-7.66454 -21.184829,-14.17799 -4.02153,-4.40183 -7.458394,-9.42661 -10.16149,-14.68478 m 0.227764,3.12004 C 40.17908,112.45185 37.407768,107.27165 35.415745,102.05174 32.437167,94.246668 31.200094,86.350801 32.206041,79.622763 34.218683,66.161676 38.754373,56.28284 44.416063,48.897142 c 2.635781,-3.438388 5.513499,-6.33337 8.4891,-8.793806 m -0.477346,6.712729 c 4.944456,-5.544195 10.540453,-9.44825 15.920491,-12.345943 12.640231,-5.714262 26.583035,-8.191121 39.890862,-7.241449 6.8059,0.485682 13.446,1.867546 19.66199,4.170764 m -8.5641,-4.268026 c 8.80673,2.100048 17.11003,5.910431 24.256,11.483987 7.90745,7.110746 13.81642,14.727251 18.10929,22.731111 4.2921,8.002413 6.96084,16.376828 8.41169,25.001868 0.30298,1.801148 0.55281,3.613007 0.7532,5.434389 m 0.7969,-2.465756 c 0.1714,0.93757 0.32701,1.87845 0.46738,2.82246 2.54389,17.10788 0.0829,35.24307 -4.11074,53.35269 -1.03401,4.38147 -2.14651,8.72356 -3.33012,13.0288 m 1.49428,-8.02597 c -6.80928,25.79345 -16.22247,49.89192 -26.905,73.14273 m 5.02092,-10.26362 c -2.88204,6.83546 -5.92692,13.65457 -9.09252,20.46694 -8.21728,17.68353 -17.24766,35.32088 -26.36503,53.10047 m -0.0767,-2.14835 c -7.26773,14.05157 -14.345774,28.04751 -20.92502,42.09961 -5.719479,13.43774 -9.73625,27.79879 -11.993873,42.2986 m 2.432236,-10.95177 c -5.226181,27.02215 -5.225964,54.98938 0.829766,79.30051 1.502191,4.63362 3.11733,8.78679 4.831776,12.51217 m -6.240872,-7.18786 c 4.058826,10.82909 8.848516,18.76851 14.050938,24.57086 5.947083,6.63288 12.453739,10.49802 19.107319,12.72295 6.65557,2.2256 13.46683,2.81318 20.03047,2.88698 6.56327,0.0738 12.8778,-0.36629 18.52591,-0.19607 2.4789,0.0638 4.87075,0.0935 7.1781,0.0902 m -8.62463,-0.94156 c 0.56333,0.0135 1.12064,0.032 1.67146,0.0566 15.64147,0.62577 27.79824,-0.3617 37.07872,-2.5596 9.30744,-2.20429 15.80452,-5.63606 20.39487,-9.99716 4.59202,-4.36269 7.2834,-9.659 9.02844,-15.62033 1.50512,-5.14172 2.30771,-10.78476 3.01251,-16.74506 m 2.6237,9.60146 c 0.54535,-3.70845 0.89666,-7.5995 1.23232,-11.62343 0.775,-9.29063 -2.08805,-19.7243 -7.37436,-28.66585 -5.28553,-8.94023 -12.98856,-16.37978 -21.87785,-19.66301 -4.49511,-1.66025 -9.45954,-2.41564 -14.57355,-2.38795 m 2.27672,-1.28573 c -2.89973,-0.54023 -5.91218,-0.75743 -8.96479,-0.6779 -5.35331,0.13947 -10.82782,1.19132 -16.04063,3.01239 -5.2128,1.82107 -10.15943,4.40976 -14.45924,7.618 -4.29872,3.20743 -7.95009,7.03368 -10.56685,11.32435 -3.64681,5.97964 -4.74242,13.72016 -3.83931,21.48054 m 3.21306,-6.6977 c -0.30837,2.89322 -0.27739,5.88192 0.0594,8.859 0.89151,7.88051 3.92768,15.68104 8.47261,21.39229 4.22411,5.3081 10.48446,8.42258 17.39242,10.31106 6.90223,1.88691 14.4738,2.55428 21.28242,2.94028 3.15207,0.17871 7.035,-0.2478 11.08295,-0.9812 3.66389,-0.6638 7.47573,-1.58159 11.00198,-2.53455 m -7.86037,1.49544 c 3.34017,-0.7955 6.71532,-1.75449 9.81593,-2.71165 3.84092,-1.1857 7.28216,-2.37526 9.7533,-3.26488 1.23774,-0.44559 2.23467,-0.81685 2.92447,-1.07766 0.34485,-0.13038 0.61223,-0.23289 0.79435,-0.30318 0.091,-0.0351 0.16053,-0.0621 0.20763,-0.0805 0.006,-0.002 0.0478,-0.0187 0.0536,-0.0209 0.006,-0.002 0.0134,-0.005 0.019,-0.007 M 87.951153,65.782375 c 5.507849,6.691463 11.080309,13.906894 15.799187,21.096233 4.72815,7.203462 8.63423,14.430452 10.8452,21.238532 1.10573,3.4048 1.78799,6.70599 1.93795,9.84846 0.14994,3.14213 -0.23242,6.12585 -1.256,8.89056 -1.02343,2.76433 -2.68842,5.31053 -5.10281,7.57086 -1.14135,1.06852 -2.4503,2.07325 -3.93811,3.00667 m 5.26157,-6.70042 c -0.54041,0.6619 -1.13294,1.30532 -1.77971,1.92911 -2.40827,2.32272 -5.56829,4.37321 -9.58984,6.09344 -4.591093,1.96386 -9.113721,2.96975 -13.50651,3.17313 -4.392816,0.20338 -8.65537,-0.39576 -12.727172,-1.64124 -8.142967,-2.49077 -15.523801,-7.56711 -21.650446,-13.97509 -0.900451,-0.9418 -1.773818,-1.91238 -2.618512,-2.90775 m 3.610237,4.68767 C 52.596179,127.45706 51.969102,126.8062 51.355485,126.14132 45.378302,119.6647 40.680549,111.85935 37.748164,103.97567 34.816247,96.093259 33.649401,88.132824 34.73287,81.351497 36.899742,67.789255 41.623689,57.823199 47.467653,50.371366 c 1.097835,-1.399885 2.235299,-2.711191 3.402918,-3.941111 m -6.612487,3.865955 c 0.592375,-0.876742 1.20163,-1.721052 1.825654,-2.534359 5.587619,-7.28249 12.356196,-12.077455 18.835504,-15.451465 12.812771,-5.585802 27.019107,-7.897091 40.678318,-6.738748 4.77024,0.404531 9.47344,1.232225 14.0269,2.491373 m -7.66941,-0.01522 c 11.09132,1.647652 21.58187,5.8025 30.3359,12.551268 8.01487,7.117349 13.98955,14.766455 18.31981,22.800505 1.36284,2.528519 2.56295,5.095262 3.61319,7.69617 m -0.75576,-5.559491 c 3.50844,7.539579 5.662,15.371704 6.77483,23.418263 2.39737,17.334653 -0.0447,35.632823 -4.10708,53.873903 -0.72927,3.21142 -1.49689,6.40108 -2.30063,9.5706 m 4.57147,-9.61471 c -6.91864,29.04726 -17.62449,56.21826 -29.96307,82.52655 m 1.48772,-2.65098 c -2.57389,5.87615 -5.21705,11.70543 -7.90688,17.49681 -10.17813,21.91413 -21.02366,43.28293 -31.30621,64.58015 m 0.51866,-9.47437 c -4.955382,10.08004 -9.794233,20.15882 -14.389419,30.28681 -5.829909,14.15701 -9.822627,29.35458 -11.873399,44.71833 m 0.977476,-11.53584 c -5.403413,26.27706 -5.197454,53.32628 0.889378,77.17042 0.757828,2.30356 1.544489,4.49337 2.357322,6.57448 m -2.62301,-1.11181 c 0.06397,0.27839 0.12879,0.55628 0.194447,0.83367 4.161992,13.41544 9.474096,22.87265 15.324629,29.48729 5.86265,6.62833 12.323426,10.47511 18.929506,12.66912 6.61188,2.19595 13.38693,2.74336 19.91853,2.77014 4.70389,0.0193 9.28062,-0.23152 13.57385,-0.32959 m -3.25522,-7.61198 c 4.80644,-0.17333 9.38733,-0.46439 13.58646,-0.38594 16.00958,0.22675 28.02452,-0.80706 37.28742,-3.0305 9.22719,-2.21486 15.58301,-5.58758 20.03479,-9.891 3.19516,-3.08867 5.40089,-6.65056 6.96125,-10.58327 m -4.31748,10.39581 c 2.59974,-3.45785 4.32561,-7.37851 5.53609,-11.6498 1.66966,-5.89162 2.36142,-12.45915 3.01332,-19.43641 0.86605,-9.2693 -1.88965,-19.70797 -7.04955,-28.66865 -4.95126,-8.59837 -12.11182,-15.82775 -20.40348,-19.33571 m 6.16545,1.7368 c -2.74281,-2.07908 -5.68965,-3.74149 -8.78486,-4.86868 -4.68379,-1.70572 -9.88802,-2.36066 -15.22425,-2.1074 -5.33698,0.2533 -10.80382,1.41477 -16.01767,3.33913 -5.21352,1.92424 -10.17082,4.61013 -14.48765,7.90786 -4.31597,3.29707 -7.99194,7.20604 -10.63799,11.57379 -1.47852,2.44055 -2.54936,5.16437 -3.24806,8.06071 m -0.6211,-4.53797 c -3.67722,6.13804 -4.80826,13.94265 -3.95133,21.61807 0.8899,7.97071 3.92266,15.79676 8.46547,21.49532 4.22093,5.29475 10.47776,8.36343 17.37886,10.16703 3.64701,0.95315 7.47357,1.55304 11.27661,1.94291 m -8.78928,-3.643 c 5.76967,1.1334 11.82164,1.52711 17.37622,1.7281 3.10923,0.11251 6.93531,-0.39913 10.93027,-1.23016 3.99411,-0.83084 8.15958,-1.98155 11.9386,-3.14627 3.77921,-1.16479 7.1748,-2.34451 9.62659,-3.23354 1.22617,-0.44462 2.21616,-0.81649 2.90096,-1.07776 0.34238,-0.13062 0.60824,-0.23351 0.78912,-0.30398 0.0904,-0.0352 0.15955,-0.0623 0.20634,-0.0807 0.006,-0.002 0.0475,-0.0187 0.0533,-0.021 0.006,-0.002 0.0133,-0.005 0.0189,-0.007 M 85.804582,66.925374 c 5.780624,6.728205 11.553519,13.948927 16.440958,21.173787 4.89077,7.229768 8.90584,14.478469 11.19599,21.310079 1.14512,3.41594 1.8591,6.72801 2.03591,9.88073 0.17681,3.15271 -0.18355,6.14627 -1.18728,8.92125 -1.00359,2.77462 -2.65096,5.33154 -5.04783,7.60416 -0.62015,0.588 -1.29051,1.15699 -2.01291,1.70579 m 6.64867,-9.57004 c -0.88282,1.48098 -1.99317,2.88428 -3.35089,4.19863 -2.36077,2.28536 -5.467,4.29969 -9.42703,5.99111 -4.521062,1.93105 -8.977468,2.92047 -13.307781,3.11795 -4.330026,0.19746 -8.529945,-0.39709 -12.538452,-1.62937 -8.016264,-2.46434 -15.260747,-7.47746 -21.234014,-13.78731 -4.158656,-4.393 -7.702163,-9.41557 -10.463177,-14.64967 m 5.805401,5.40494 c -2.994257,-4.43713 -5.449338,-9.21105 -7.245967,-14.02204 -2.903013,-7.77365 -4.08875,-15.648881 -3.045512,-22.360626 2.088257,-13.434957 6.646626,-23.290587 12.331997,-30.67082 0.799795,-1.038221 1.621474,-2.026851 2.46113,-2.968912 m -6.729535,8.736874 c 0.649564,-0.983178 1.317912,-1.927517 2.002517,-2.834965 5.643241,-7.480158 12.394699,-12.457218 18.820669,-16.001625 12.710229,-5.911433 26.66354,-8.580871 39.944334,-7.83989 7.80631,0.43554 15.38082,2.049278 22.33726,4.874996 m -6.1252,0.266836 c 8.14632,2.392862 15.74816,6.144198 22.31111,11.314053 7.89223,7.163743 13.69343,14.711678 17.82665,22.586625 4.13056,7.86988 6.58468,16.049606 7.76627,24.418488 0.76813,5.440409 0.99815,10.959116 0.80087,16.520636 m -3.04794,-12.0501 c 0.72311,14.96635 -1.73024,30.48375 -5.4372,45.98083 -2.39002,9.81289 -5.16869,19.42901 -8.2633,28.89152 m 6.08328,-3.24749 c -7.93245,24.49205 -17.82981,48.13606 -28.45587,71.41887 -1.11882,2.45143 -2.24541,4.89821 -3.37829,7.34084 m 1.13685,-7.98153 c -9.84941,21.35029 -20.43029,42.36496 -30.53511,63.44897 m -1.022032,-4.21482 c -4.79966,10.32569 -9.536071,20.604 -14.062827,30.9083 -7.283379,18.30159 -11.656282,38.23781 -12.806012,58.0174 m 1.753961,-13.55749 c -2.874763,22.13001 -2.024531,44.54839 2.914662,64.61538 2.959103,9.22901 6.365668,16.58966 10.100266,22.46442 m 0.03244,-3.35521 c 2.762386,5.64333 5.786809,10.22015 8.989671,13.92724 5.724065,6.62521 12.028125,10.48517 18.470765,12.70488 6.44493,2.22051 13.03691,2.80319 19.36558,2.87173 6.32961,0.0685 12.39889,-0.37713 17.81168,-0.21261 5.37731,0.13862 10.31116,0.10262 14.83699,-0.0958 m -6.41047,-1.93177 c 12.84242,-0.16039 22.90733,-1.28018 30.88564,-3.28202 9.15571,-2.29725 15.48036,-5.73999 19.9082,-10.10798 4.42564,-4.36583 6.9407,-9.6428 8.47096,-15.57271 0.1935,-0.74983 0.37124,-1.51002 0.53509,-2.28003 m -3.6783,7.32523 c 0.59976,-1.5053 1.11004,-3.06283 1.549,-4.66729 1.63334,-5.97011 2.27938,-12.59031 2.8725,-19.58983 0.78823,-9.30198 -2.07198,-19.7026 -7.36536,-28.56935 -5.29139,-8.8634 -13.01198,-16.18988 -21.91789,-19.33604 -4.27411,-1.50989 -8.97072,-2.19597 -13.81876,-2.16127 m 7.42517,-3.82785 c -3.41954,-0.71912 -7.01455,-0.98363 -10.66438,-0.83832 -5.39596,0.21483 -10.91021,1.32528 -16.15644,3.18604 -5.24638,1.86081 -10.22272,4.4712 -14.54684,7.6848 -4.32352,3.21315 -7.99513,7.02955 -10.62966,11.30013 -3.31389,5.37186 -4.54709,12.1608 -4.10636,19.0834 m 2.6377,-7.48831 c -0.48528,3.38167 -0.48944,6.92467 -0.0688,10.45068 0.93998,7.88017 4.00177,15.67732 8.5542,21.38307 4.23123,5.30318 10.48481,8.41035 17.37315,10.28883 6.88285,1.87698 14.4181,2.5307 21.18434,2.90209 2.37882,0.13057 5.17361,-0.089 8.13846,-0.52764 m -12.75665,0.50717 c 3.07704,0.11137 6.83233,-0.36421 10.75215,-1.14526 4.0036,-0.79774 8.18159,-1.9148 11.97468,-3.04957 3.7924,-1.13455 7.20482,-2.2883 9.66799,-3.15801 1.23218,-0.43507 2.22744,-0.79928 2.91586,-1.05521 0.34421,-0.12797 0.6115,-0.22879 0.79338,-0.29786 0.0909,-0.0345 0.16042,-0.0611 0.20747,-0.0791 0.006,-0.002 0.0478,-0.0184 0.0536,-0.0206 0.006,-0.002 0.0134,-0.005 0.019,-0.007"
     inkscape:path-effect="#path-effect1021"
     inkscape:original-d="m 85.078817,141.32007 81.556623,-0.4944 M 87.055944,63.205593 162.68119,63.699987 m 7.90852,418.752883 271.85541,-2.47198 c 16.89592,-0.15363 36.02215,-23.45932 36.57689,-42.0236 1.63705,-54.78255 -51.13971,-52.52415 -90.94119,-52.40569 1.68922,-21.01545 7.46919,-55.58714 14.82169,-82.56425 17.09731,-62.73189 60.58222,-120.08359 67.7167,-182.92628 C 475.0299,81.21042 450.49238,30.335689 383.13119,30.081102 97.925345,29.003189 97.930165,28.10352 97.930165,28.10352 M 189.52331,386.04556 388.08082,385.5516 M 87.055944,63.205593 C 109.71775,89.526563 132.4834,124.51124 100.40158,138.35369 63.777639,154.15594 31.68682,108.45441 35.650561,81.498221 c 3.96374,-26.956187 18.179038,-39.575289 31.1398,-46.473164 25.626069,-11.456319 56.433959,-9.785753 77.108089,6.427138 31.76248,28.687632 30.31161,65.313765 21.74843,101.845455 -15.75658,65.9841 -49.54534,123.11303 -76.613803,181.93751 -14.957304,35.75559 -18.842806,78.17655 -9.885652,113.21653 17.49818,52.90569 50.133155,43.80651 72.165255,44.49557 63.71024,1.70367 66.72769,-20.02767 69.19955,-47.95634 1.64202,-18.55259 -11.16737,-41.59471 -28.66838,-47.95635 -18.85446,-6.85363 -46.06648,2.85099 -56.84249,19.77582 -7.82893,12.29614 -4.66456,32.1301 4.44854,43.50679 8.47028,10.57418 25.01923,12.29117 38.55405,12.85427 12.53698,0.52161 36.5769,-8.8991 36.5769,-8.8991" />
  <path
     style="fill:none;stroke:#000000;stroke-width:5.08214;stroke-linecap:butt;stroke-linejoin:miter;stroke-miterlimit:4;stroke-dasharray:none;stroke-opacity:1"
     d="m 219.78143,112.8926 c 4.11345,4.61013 13.77766,22.66889 21.65075,12.92398 7.00653,-8.67236 7.44386,-19.51281 8.75242,-30.002087 0.44918,-3.60055 -0.1763,-4.29659 2.30328,-5.53885 0.13734,-0.0688 0.36852,-0.12308 0.46065,0 0.97314,1.30011 1.4621,3.70468 1.84261,5.07728 1.98078,7.144947 2.77039,18.097117 10.1344,22.155387 1.35215,0.74516 3.06471,0.52593 4.60653,0.46157 11.94588,-0.49874 14.66747,-8.4914 21.65076,-16.15498 1.03536,-1.13621 2.47318,-1.824827 3.68524,-2.769417 0.17141,-0.13358 0.44262,-0.67841 0.46065,-0.46157 0.40827,4.909117 -0.86735,10.913507 0,15.693407 0.41998,2.31451 4.24381,1.1319 5.0672,0.46157 5.25106,-4.27498 8.64015,-11.5405 15.20159,-14.3087 1.13214,-0.477637 2.46186,-0.11143 3.68523,0 0.48358,0.044 1.12461,0.049 1.38197,0.46157 0.59246,0.94984 0.53485,2.17996 0.92131,3.231 0.88561,2.40861 4.23047,10.19535 5.52784,12.00084 4.92648,6.85593 13.14776,8.76984 21.1901,8.76984 8.2398,0 13.27241,-2.87478 16.58354,-10.61612 0.86605,-2.02479 0.68674,-4.37216 1.38197,-6.462 0.0486,-0.14597 -0.0333,0.31137 0,0.46158 0.27469,1.23851 0.46237,2.51009 0.92131,3.69256 1.71276,4.413 4.94255,12.02966 11.05571,10.61612 6.45207,-1.4919 10.92316,-7.87829 14.28027,-12.92398 1.60708,-2.41541 2.01521,-6.08688 4.60654,-7.38513 0.22316,-0.11179 1.38197,5.50651 1.38197,6.92357"
     id="path1011" />
  <path
     style="fill:none;stroke:#000000;stroke-width:5.08214;stroke-linecap:butt;stroke-linejoin:miter;stroke-miterlimit:4;stroke-dasharray:none;stroke-opacity:1"
     d="m 202.73722,198.74469 c 4.95486,-0.99294 10.67904,-2.04082 14.74093,-4.6157 4.03728,-2.55928 6.13829,-7.5312 10.13439,-10.15456 0.97817,-0.64214 2.48231,0.47929 3.22458,1.38472 2.89293,3.52883 3.54399,9.05838 7.37047,11.53926 4.62848,3.00085 10.62022,4.02876 16.1229,3.69257 7.47401,-0.45664 14.60696,-3.45498 21.65075,-6.00042 1.59246,-0.57547 10.59053,-8.21686 12.43766,-7.8467 0.33669,0.0674 0.29391,0.6224 0.46066,0.92314 0.60121,1.08433 1.20568,2.16734 1.84261,3.23099 0.74531,1.24465 1.22058,2.72825 2.30328,3.69257 0.92215,0.82133 7.03417,5.03331 9.67374,4.61571 8.65713,-1.36965 12.76274,-11.09183 16.58355,-17.53968 1.30474,-2.20182 2.67211,-4.36999 4.14589,-6.46199 0.37568,-0.53329 0.96491,-1.88618 1.38195,-1.38471 0.9063,1.08972 0.76148,2.74472 0.92131,4.15413 0.96743,8.53025 -0.32454,21.3383 7.83113,27.69423 1.30542,1.01735 2.9772,1.56235 4.60654,1.84629 11.15557,1.94395 20.0386,-8.35469 24.87533,-17.07812 0.35437,-0.63912 3.35534,-9.03185 4.60654,-11.53926 0.0149,-0.0298 -0.0394,2.55229 0,2.76943 0.42955,2.36721 1.88393,4.93476 3.68523,6.46198 2.85106,2.41723 12.0058,2.25018 13.81963,-1.38471"
     id="path1013" />
  <path
     style="fill:none;stroke:#000000;stroke-width:5.08214;stroke-linecap:butt;stroke-linejoin:miter;stroke-miterlimit:4;stroke-dasharray:none;stroke-opacity:1"
     d="m 185.23236,267.98026 c 0.46065,0.92314 0.6536,3.49923 1.38196,2.76943 6.67375,-6.68702 4.77285,-18.86643 10.59505,-26.30952 4.48118,-5.72874 9.52513,4.45191 11.97701,9.69298 0.88644,1.89484 1.09288,4.04723 1.84261,6.00041 0.0551,0.14361 0.30919,0.0252 0.46065,0 0.77231,-0.12897 1.65182,-0.0264 2.30328,-0.46156 5.78311,-3.86309 11.70065,-17.98277 19.34747,-13.38555 2.93868,1.76672 4.77601,9.08074 7.83113,9.69299 2.54178,0.50936 6.79783,-1.51628 9.21308,-1.84629 6.44138,-0.88011 11.85792,0.26794 17.96552,2.30785 1.24462,0.4157 2.62422,0.61153 3.68523,1.38472 3.9194,2.85613 -0.22803,8.76983 9.21309,8.76983 15.41301,0 20.25305,-14.38473 35.47038,-15.23182 3.68275,-0.20501 2.16775,2.9866 4.60654,4.61571 1.88639,1.26008 3.94157,2.25431 5.9885,3.23098 9.74488,4.64965 23.26517,5.41603 31.78515,-2.30784 2.26196,-2.05061 4.24693,-5.22914 5.98849,-7.8467"
     id="path1015" />
  <path
     style="fill:none;stroke:#000000;stroke-width:5.08214;stroke-linecap:butt;stroke-linejoin:miter;stroke-miterlimit:4;stroke-dasharray:none;stroke-opacity:1"
     d="m 171.87338,327.52285 c 0,0.61543 -0.40445,1.38313 0,1.84629 9.67196,11.07566 17.27602,8.17736 35.00972,2.76942 8.87492,-2.70644 16.14207,-9.17915 24.41468,-13.38555 2.0356,-1.03504 4.16646,-2.30784 6.44916,-2.30784 0.78297,0 0.0171,1.66137 0.46065,2.30784 1.29322,1.88479 2.57809,4.02825 4.60655,5.07728 6.97226,3.60574 24.96137,4.02112 32.70644,2.76942 2.95111,-0.47693 10.40605,-3.0698 12.89832,-4.6157 2.71555,-1.68441 2.14835,-3.69256 5.0672,-3.69256 1.31195,0 0.57651,2.65491 1.38197,3.69256 1.7106,2.20371 10.83009,1.22634 13.35896,1.38471 4.25881,0.2667 4.39564,0.90201 9.21309,1.38471 1.22231,0.12248 2.45895,-0.0722 3.68524,0 1.38807,0.0819 2.75733,0.5348 4.14588,0.46157 0.0948,-0.005 7.37048,-0.90737 7.37048,-2.30785"
     id="path1017" />
</svg>
