<?xml version="1.0" encoding="UTF-8" standalone="no"?>
<svg
   xmlns:dc="http://purl.org/dc/elements/1.1/"
   xmlns:cc="http://creativecommons.org/ns#"
   xmlns:rdf="http://www.w3.org/1999/02/22-rdf-syntax-ns#"
   xmlns:svg="http://www.w3.org/2000/svg"
   xmlns="http://www.w3.org/2000/svg"
   xmlns:xlink="http://www.w3.org/1999/xlink"
   xmlns:sodipodi="http://sodipodi.sourceforge.net/DTD/sodipodi-0.dtd"
   xmlns:inkscape="http://www.inkscape.org/namespaces/inkscape"
   width="80px"
   height="80px"
   viewBox="0 0 80 80"
   version="1.1"
   id="svg934"
   inkscape:version="1.0.1 (3bc2e813f5, 2020-09-07)"
   sodipodi:docname="repeat.svg">
  <defs
     id="defs928">
    <inkscape:path-effect
       effect="sketch"
       id="path-effect884"
       is_visible="true"
       lpeversion="1"
       nbiter_approxstrokes="2"
       strokelength="37"
       strokelength_rdm="0.1;1"
       strokeoverlap="0.1"
       strokeoverlap_rdm="0.4;1"
       ends_tolerance="1;1"
       parallel_offset="0;1"
       tremble_size="1.3;1"
       tremble_frequency="1"
       nbtangents="0"
       tgt_places_rdmness="1;1"
       tgtscale="10"
       tgtlength="50"
       tgtlength_rdm="0.2;1" />
    <inkscape:path-effect
       effect="sketch"
       id="path-effect880"
       is_visible="true"
       lpeversion="1"
       nbiter_approxstrokes="5"
       strokelength="100"
       strokelength_rdm="0.3;1"
       strokeoverlap="0.3"
       strokeoverlap_rdm="0.4;1"
       ends_tolerance="0;1"
       parallel_offset="1.7;1"
       tremble_size="1;1"
       tremble_frequency="5.5"
       nbtangents="5"
       tgt_places_rdmness="1;1"
       tgtscale="0"
       tgtlength="0"
       tgtlength_rdm="0.2;1" />
    <inkscape:path-effect
       effect="sketch"
       id="path-effect3064"
       is_visible="true"
       lpeversion="1"
       nbiter_approxstrokes="5"
       strokelength="100"
       strokelength_rdm="1;1"
       strokeoverlap="1"
       strokeoverlap_rdm="1;1"
       ends_tolerance="0;1"
       parallel_offset="1.4;1"
       tremble_size="1.4;1"
       tremble_frequency="1"
       nbtangents="5"
       tgt_places_rdmness="1;1"
       tgtscale="10"
       tgtlength="100"
       tgtlength_rdm="0.3;1" />
    <inkscape:path-effect
       effect="sketch"
       id="path-effect3014"
       is_visible="true"
       lpeversion="1"
       nbiter_approxstrokes="5"
       strokelength="100"
       strokelength_rdm="0.3;1"
       strokeoverlap="0.3"
       strokeoverlap_rdm="0.4;1"
       ends_tolerance="0;1"
       parallel_offset="1.7;1"
       tremble_size="1;1"
       tremble_frequency="5.5"
       nbtangents="5"
       tgt_places_rdmness="1;1"
       tgtscale="0"
       tgtlength="0"
       tgtlength_rdm="0.2;1" />
    <linearGradient
       inkscape:collect="always"
       id="linearGradient3000">
      <stop
         style="stop-color:#00ff00;stop-opacity:1;"
         offset="0"
         id="stop2996" />
      <stop
         style="stop-color:#ffffff;stop-opacity:1"
         offset="1"
         id="stop2998" />
    </linearGradient>
    <inkscape:path-effect
       effect="sketch"
       id="path-effect2020"
       is_visible="true"
       lpeversion="1"
       nbiter_approxstrokes="7"
       strokelength="100"
       strokelength_rdm="0.3;1"
       strokeoverlap="0.3"
       strokeoverlap_rdm="0.4;1"
       ends_tolerance="1;1"
       parallel_offset="0;1"
       tremble_size="2.1;1"
       tremble_frequency="3.01"
       nbtangents="0"
       tgt_places_rdmness="1;1"
       tgtscale="0"
       tgtlength="1"
       tgtlength_rdm="0.1;1" />
    <inkscape:path-effect
       effect="roughen"
       id="path-effect2018"
       is_visible="true"
       lpeversion="1"
       method="size"
       max_segment_size="1"
       segments="1"
       displace_x="0.1;1109600527"
       displace_y="0.1;1"
       global_randomize="0.1;1760933365"
       handles="along"
       shift_nodes="false"
       fixed_displacement="false"
       spray_tool_friendly="false" />
    <inkscape:path-effect
       effect="simplify"
       id="path-effect2016"
       is_visible="true"
       lpeversion="1"
       steps="1"
       threshold="0.002"
       smooth_angles="0"
       helper_size="5"
       simplify_individual_paths="false"
       simplify_just_coalesce="false" />
    <marker
       style="overflow:visible"
       id="Arrow2Lstart"
       refX="0.0"
       refY="0.0"
       orient="auto"
       inkscape:stockid="Arrow2Lstart"
       inkscape:isstock="true">
      <path
         transform="scale(1.1) translate(1,0)"
         d="M 8.7185878,4.0337352 L -2.2072895,0.016013256 L 8.7185884,-4.0017078 C 6.9730900,-1.6296469 6.9831476,1.6157441 8.7185878,4.0337352 z "
         style="fill-rule:evenodd;stroke-width:0.625;stroke-linejoin:round;stroke:#000000;stroke-opacity:1;fill:#000000;fill-opacity:1"
         id="path1524" />
    </marker>
    <marker
       style="overflow:visible"
       id="marker1790"
       refX="0.0"
       refY="0.0"
       orient="auto"
       inkscape:stockid="Arrow1Lstart"
       inkscape:isstock="true">
      <path
         transform="scale(0.8) translate(12.5,0)"
         style="fill-rule:evenodd;stroke:#000000;stroke-width:1pt;stroke-opacity:1;fill:#000000;fill-opacity:1"
         d="M 0.0,0.0 L 5.0,-5.0 L -12.5,0.0 L 5.0,5.0 L 0.0,0.0 z "
         id="path1788" />
    </marker>
    <marker
       style="overflow:visible"
       id="Arrow1Lstart"
       refX="0.0"
       refY="0.0"
       orient="auto"
       inkscape:stockid="Arrow1Lstart"
       inkscape:isstock="true">
      <path
         transform="scale(0.8) translate(12.5,0)"
         style="fill-rule:evenodd;stroke:#000000;stroke-width:1pt;stroke-opacity:1;fill:#000000;fill-opacity:1"
         d="M 0.0,0.0 L 5.0,-5.0 L -12.5,0.0 L 5.0,5.0 L 0.0,0.0 z "
         id="path1506" />
    </marker>
    <linearGradient
       inkscape:collect="always"
       xlink:href="#linearGradient3000"
       id="linearGradient3002"
       x1="31.428562"
       y1="5.0892873"
       x2="59.496552"
       y2="87.589287"
       gradientUnits="userSpaceOnUse"
       gradientTransform="matrix(1.1982943,0,0,1.2465727,-6.8589677,-12.119166)" />
    <filter
       style="color-interpolation-filters:sRGB;"
       inkscape:label="Drop Shadow"
       id="filter3244">
      <feFlood
         flood-opacity="0.364706"
         flood-color="rgb(0,0,0)"
         result="flood"
         id="feFlood3234" />
      <feComposite
         in="flood"
         in2="SourceGraphic"
         operator="in"
         result="composite1"
         id="feComposite3236" />
      <feGaussianBlur
         in="composite1"
         stdDeviation="0.3"
         result="blur"
         id="feGaussianBlur3238" />
      <feOffset
         dx="3.5"
         dy="2.3"
         result="offset"
         id="feOffset3240" />
      <feComposite
         in="SourceGraphic"
         in2="offset"
         operator="over"
         result="composite2"
         id="feComposite3242" />
    </filter>
    <filter
       inkscape:collect="always"
       style="color-interpolation-filters:sRGB;"
       id="filter890"
       x="-0.058197737"
       width="1.1159338"
       y="-0.054175735"
       height="1.0977659"
       inkscape:label="Drop Shadow">
      <feGaussianBlur
         inkscape:collect="always"
         stdDeviation="0.00014383196"
         id="feGaussianBlur892"
         result="fbSourceGraphic" />
      <feColorMatrix
         result="fbSourceGraphicAlpha"
         in="fbSourceGraphic"
         values="0 0 0 -1 0 0 0 0 -1 0 0 0 0 -1 0 0 0 0 1 0"
         id="feColorMatrix896" />
      <feFlood
         id="feFlood898"
         flood-opacity="0.364706"
         flood-color="rgb(0,0,0)"
         result="flood"
         in="fbSourceGraphic" />
      <feComposite
         in2="fbSourceGraphic"
         id="feComposite900"
         in="flood"
         operator="in"
         result="composite1" />
      <feGaussianBlur
         id="feGaussianBlur902"
         in="composite1"
         stdDeviation="0.3"
         result="blur" />
      <feOffset
         id="feOffset904"
         dx="2.87009"
         dy="2.3"
         result="offset" />
      <feComposite
         in2="offset"
         id="feComposite906"
         in="fbSourceGraphic"
         operator="over"
         result="composite2" />
    </filter>
  </defs>
  <sodipodi:namedview
     id="base"
     pagecolor="#ffffff"
     bordercolor="#666666"
     borderopacity="1.0"
     inkscape:pageopacity="0.0"
     inkscape:pageshadow="2"
     inkscape:zoom="5.6"
     inkscape:cx="27.653956"
     inkscape:cy="82.258651"
     inkscape:document-units="mm"
     inkscape:current-layer="layer1"
     inkscape:document-rotation="0"
     showgrid="false"
     inkscape:window-width="1431"
     inkscape:window-height="1208"
     inkscape:window-x="545"
     inkscape:window-y="438"
     inkscape:window-maximized="0" />
  <metadata
     id="metadata931">
    <rdf:RDF>
      <cc:Work
         rdf:about="">
        <dc:format>image/svg+xml</dc:format>
        <dc:type
           rdf:resource="http://purl.org/dc/dcmitype/StillImage" />
        <dc:title />
      </cc:Work>
    </rdf:RDF>
  </metadata>
  <g
     inkscape:label="Layer 1"
     inkscape:groupmode="layer"
     id="layer1">
    <ellipse
       style="fill:url(#linearGradient3002);fill-opacity:1;stroke:none;stroke-width:3.25092;stroke-linecap:round;stroke-linejoin:round;stroke-miterlimit:4;stroke-dasharray:none;stroke-opacity:1;filter:url(#filter3244)"
       id="path2922"
       cx="41.607754"
       cy="38.300247"
       rx="33.060093"
       ry="35.059853"
       transform="matrix(1.0506649,0,0,1.0275277,-3.6875265,0.98162967)" />
    <path
       id="path876"
       d="M 19.956476,63.784588 C 13.847449,57.264093 9.8005514,48.836239 9.4047503,39.900226 9.238015,36.135864 9.7280295,32.394554 10.897366,28.808272 14.918767,16.4749 26.40483,7.8004939 38.606324,6.4690012 c -10e-7,0 3e-6,0 3e-6,0 0.387032,-0.042245 0.77651,-0.074562 1.168103,-0.097058 4.66823,-0.2681536 9.571231,0.8623702 14.180976,3.1566665 M 33.438523,6.9374253 c 1.74078,-0.3688674 3.540085,-0.5775151 5.369645,-0.6268427 10.752525,-0.2898965 21.571353,4.9077764 27.746433,13.0925064 3.42791,4.543506 5.235775,10.643905 5.321509,17.117656 0.09291,7.016013 -1.834643,14.158914 -5.374162,20.010484 -1.083256,1.790851 -2.339206,3.435299 -3.742956,4.921577 M 70.359635,48.096377 C 65.720144,60.079873 56.10975,68.794338 45.275434,68.843958 c -0.591533,0.0027 -1.201084,-0.0099 -1.826427,-0.03831 C 32.604037,68.312802 18.824184,63.168596 11.577546,54.165083 9.757945,51.904335 8.6191934,49.115498 8.1129116,46.002201 M 7.16545,30.564862 C 9.2688032,17.741971 20.581779,7.5138345 34.940985,4.5511805 37.219856,4.0809944 39.450313,3.8428691 41.624713,3.8334907 53.027299,3.7843108 62.11737,9.9963935 68.301816,19.799862 c 3.608019,5.719367 5.288627,12.136097 4.903463,18.787675 -0.285435,4.929309 -1.697763,9.858034 -4.129947,14.598624 M 70.923816,24.59532 c 2.892638,4.971281 4.295,10.335293 4.173933,15.624391 -0.157863,6.896709 -2.899012,13.332932 -7.606318,18.289131 -6.451497,6.792611 -15.686353,11.593882 -25.744505,11.29079 -3.003006,-0.0905 -6.014604,-0.638106 -8.966279,-1.681796 C 25.735562,65.626745 20.000031,61.792767 16.202032,56.697939 m 19.765571,15.33904 C 24.033886,69.593141 13.404047,59.100516 11.021603,45.980088 10.656513,43.96949 10.45469,41.92537 10.418415,39.869235 10.219772,28.609801 14.971205,18.024317 22.77628,10.853809 25.538975,8.3157276 28.942456,6.5916999 32.666699,5.6398144 M 6.9951278,40.312539 C 6.8750212,38.910694 6.8409071,37.513821 6.8961316,36.131862 7.3390558,25.049222 13.551153,15.661635 24.553143,12.731704 c 5.538704,-1.475009 10.978708,-3.0611593 16.76445,-3.91165 7.113191,-1.0456241 13.847243,-0.7979553 19.829982,1.916459 2.652705,1.203551 4.893836,3.210017 6.673974,5.799861 M 54.112627,10.073119 c 11.615799,4.752458 18.433702,16.747941 17.233879,29.464201 -0.02932,0.310739 -0.06339,0.621218 -0.102229,0.931316 0,0 0,1e-6 0,1e-6 -1.633858,13.047754 -8.281316,24.235667 -19.993565,27.983607 0,0 -10e-7,0 -10e-7,0 -1.295147,0.41445 -2.626947,0.766278 -3.984799,1.048736 M 62.8988,65.722916 C 57.380048,70.546091 50.224803,72.713134 42.862001,71.952933 37.45822,71.394999 32.121582,69.278455 27.427379,65.787449 17.14867,58.143332 10.399316,49.075668 9.6810005,37.732462 9.6104247,36.617887 9.5997433,35.492507 9.6487026,34.356537 10.066623,24.65939 16.211916,16.1086 25.223322,11.884425 m 40.179566,44.084181 c -5.853872,9.188587 -15.345811,14.299988 -24.823227,13.656749 -1.787389,-0.121313 -3.544983,-0.447266 -5.242235,-0.97386 -10e-7,0 -10e-7,0 -3e-6,0 C 24.377447,65.251025 11.746694,56.516547 7.2654425,44.148178 6.5284192,42.113975 6.1373448,39.998973 6.0685575,37.847908 5.8375181,30.623005 9.2341259,23.219524 14.860834,17.138761 M 8.7202224,46.392664 C 8.3994471,44.430887 8.2410616,42.43682 8.2496458,40.431938 8.2976754,29.215992 13.542273,18.632478 22.471323,11.700761 27.532971,7.7713503 33.553145,5.7887314 39.691605,5.5760861 c 6.487553,-0.2247386 12.802984,1.5317458 18.024666,4.5395809 4.812902,2.772367 8.793471,7.616477 11.396344,13.49885 M 54.011073,11.995451 c 10.391512,5.390705 16.824565,15.318233 16.846672,24.80941 0.002,0.902997 -0.05477,1.792233 -0.170267,2.662055 -1.360424,10.244776 -9.93282,25.310618 -21.554228,32.14568 0,0 -2e-6,10e-7 -2e-6,10e-7 -2.728694,1.604865 -5.652561,2.421333 -8.627634,2.566182 C 34.749182,74.459046 28.931556,72.22556 24.010827,68.597627 M 34.641095,67.864059 C 22.435069,65.562247 12.243339,55.641585 9.7771726,45.12594 9.4535659,43.746092 9.2853378,42.251728 9.271024,40.678961 9.1777118,30.425957 15.546859,17.891415 25.583479,11.427862 30.932244,7.9832732 36.692796,6.3854908 42.390931,6.6219699 c 0.589786,0.024474 1.177635,0.068565 1.762972,0.1320374 M 22.707884,13.87726 C 28.361658,9.4863033 35.121498,7.2404374 42.09956,7.2442774 c 5.905904,0.00326 11.724576,1.6161229 16.927438,4.5310936 10.065686,5.639431 15.813626,16.53413 16.035154,28.33223 0.0315,1.677022 -0.04884,3.353454 -0.237064,5.015014 -0.316828,2.796815 -1.019739,5.476512 -2.078941,7.990082 M 71.396172,37.06591 c 0.118872,1.162032 0.182905,2.315873 0.191855,3.457619 0.09278,11.83703 -5.773494,21.500605 -15.059089,25.170204 -4.222848,1.66884 -9.515548,2.822966 -15.196292,2.860542 -7.80688,0.05163 -15.893921,-2.017669 -22.406588,-7.01434 -4.246009,-3.257639 -7.331689,-7.08571 -9.254262,-11.282814 M 11.035622,51.6189 C 9.5470956,48.127777 8.8425953,44.27712 8.9413675,40.340702 9.1609173,31.590815 13.328025,22.928124 20.414716,17.079945 27.069736,11.587996 34.831282,8.1014562 43.022196,7.5147187 47.486643,7.1949194 51.91154,7.7522048 56.155232,9.1653525 65.339113,12.223582 71.797802,20.684077 74.105969,30.616779 M 55.217434,8.9249563 C 66.626708,14.272439 72.81998,26.247301 71.40795,39.831581 c -0.06781,0.652413 -0.15296,1.30607 -0.255338,1.960296 -2.235144,14.283167 -8.979914,23.263798 -20.902894,25.068575 10e-7,0 -2e-6,0 -2e-6,0 -3.3065,0.500503 -6.81832,0.828447 -10.414573,0.78719 -8.18805,-0.09393 -16.198683,-2.121913 -22.144184,-7.391039 m 32.852219,8.207863 c -2.350766,0.639769 -4.82655,1.002814 -7.355879,1.086607 C 33.066349,69.886362 22.948069,65.743582 16.716561,58.88989 12.578255,54.338395 10.08434,47.655104 9.4244185,40.676198 8.8520311,34.622994 9.6781532,28.604591 11.638076,23.780336 c 3.715353,-9.145169 16.083,-15.3539662 28.420217,-15.4366217 1.160555,-0.00782 2.313919,0.038432 3.45228,0.1393599 M 7.7662462,40.661667 C 7.4525866,39.004799 7.2746955,37.357226 7.2295313,35.727777 6.9048183,24.012689 13.417439,14.10509 23.197469,8.4380146 28.216511,5.5297132 34.135065,4.0817684 40.368797,4.3226083 c 7.443466,0.2875784 14.983637,2.9648885 21.69483,7.8010677 5.83598,4.205487 9.308007,9.084115 10.633347,14.43587 M 57.73373,11.864832 c 10.30613,6.065644 16.147255,16.553647 16.521239,28.120508 0.04959,1.533748 0.0025,3.069288 -0.137459,4.597269 -1.199121,13.0927 -12.270209,22.408232 -26.8694,23.153006 0,0 -3e-6,0 -3e-6,0 -3.042269,0.1552 -5.91586,0.238404 -8.665416,0.170171 -6.511886,-0.1616 -11.96817,-1.178277 -16.400953,-3.730175 m 25.378953,7.296287 C 44.904519,72.162151 42.278776,72.493995 39.7252,72.467852 29.740192,72.365626 21.456326,66.794072 17.078309,57.676165 14.106156,51.486189 11.50318,44.884314 10.443908,37.979519 9.5447259,32.11826 9.8352508,26.43166 11.713868,21.215498 15.188844,11.56689 27.275617,6.3736939 39.725819,7.1442622"
       style="fill:none;fill-opacity:0.535433;stroke:#000000;stroke-width:4.45487;stroke-linecap:round;stroke-linejoin:round;stroke-miterlimit:4;stroke-dasharray:none;stroke-opacity:1;filter:url(#filter3244)"
       transform="matrix(0.67797945,0,0,0.64932173,11.972216,15.893845)" />
    <path
       style="mix-blend-mode:normal;fill:none;stroke:#000000;stroke-width:3.43116;stroke-linecap:round;stroke-linejoin:miter;stroke-miterlimit:4;stroke-dasharray:none;stroke-opacity:1;filter:url(#filter3244)"
       d="M 4.4881932,11.381918 C 11.582002,9.8063194 17.244029,9.1007013 22.174205,8.8142472 c 3.740703,-0.2173431 7.41814,-0.1837062 11.54222,0.096873 -1.152404,2.1082026 -2.22216,3.8258186 -3.245419,5.3249856 -1.553812,2.276475 -2.993316,4.592812 -4.014967,6.482322 -1.500506,2.775135 -2.623099,5.507102 -3.772198,9.819639 0,0 0,10e-7 0,10e-7 -0.24366,0.91445 -0.510192,1.891468 -0.80594,2.939116 M 4.2137945,7.3950402 C 10.563357,5.7321046 17.451746,5.3280319 22.510142,5.3197159 c 3.956616,-0.0065 7.757511,0.080163 12.003611,0.5398335 -1.021063,2.1434898 -2.02895,4.1383236 -2.839622,5.7413996 -1.303207,2.577049 -2.779577,4.780131 -3.963629,6.6083 -1.649963,2.54753 -3.272127,5.160333 -4.893848,9.053037 0,0 0,0 0,0 -0.35352,0.848572 -0.684878,1.772263 -0.9885,2.783386 M 3.433459,10.775564 c 6.845077,-1.1641693 13.065288,-2.9005198 19.085277,-4.099598 4.292453,-0.8549828 7.728434,-0.5541212 11.19837,0.215187 -1.504499,2.3788287 -2.96731,4.409864 -4.245318,6.058234 -1.970021,2.540924 -3.385483,4.82361 -4.313703,6.632974 -1.432265,2.791891 -2.07213,4.990538 -3.02815,9.168987 0,0 0,1e-6 0,1e-6 -0.199148,0.870411 -0.417613,1.796909 -0.670878,2.84301 M 4.1622451,11.648453 C 11.237934,10.14097 17.627925,9.4114289 23.629673,9.182216 28.16684,9.0089369 31.586624,8.9968145 35.540477,9.1703597 34.355974,11.068196 33.010621,13.010674 32.1296,14.299387 c -1.439527,2.105668 -3.046444,4.504478 -4.118332,6.245085 -1.714752,2.784532 -2.920112,5.170754 -4.559458,9.213126 0,0 0,10e-7 0,10e-7 -0.335093,0.826288 -0.657142,1.743165 -0.963784,2.769132 M 3.5038741,9.3605705 C 11.364582,8.0243441 15.660021,7.0658654 21.494517,6.6439347 c 3.887398,-0.2811233 7.437797,-0.2706394 11.399166,-0.072739 -1.253151,2.0484364 -2.453039,3.7284006 -3.563302,5.1430356 -1.683773,2.145371 -3.208642,4.439088 -4.264221,6.238523 -1.69765,2.893964 -2.611755,5.092604 -4.171381,9.25875 0,10e-7 0,10e-7 0,10e-7 -0.311553,0.832235 -0.624416,1.741819 -0.945087,2.751471 m 9.872915,-16.377229 z m -7.641303,14.733461 z m 2.019248,-5.002271 z M 12.965763,7.5451654 Z M 32.691034,6.8645035 Z"
       id="path878"
       sodipodi:nodetypes="ccc"
       inkscape:path-effect="#path-effect880"
       inkscape:original-d="M 3.6649539,9.1862122 C 15.83508,6.8069467 23.374686,5.9139817 33.438523,6.9374253 27.721746,18.420112 24.608191,19.777655 21.16137,31.534306"
       transform="matrix(0.67797945,0,0,0.64932173,11.972216,15.893845)" />
    <path
       style="opacity:1;fill:none;fill-opacity:0.295255;stroke:#000000;stroke-width:4.36873;stroke-miterlimit:4;stroke-dasharray:none;filter:url(#filter890);stop-color:#000000"
       id="path882"
       inkscape:path-effect="#path-effect884"
       sodipodi:type="arc"
       sodipodi:cx="39.107143"
       sodipodi:cy="37.678574"
       sodipodi:rx="34.80341"
       sodipodi:ry="36.594894"
       d="m 66.915492,61.130489 c -0.823956,1.133752 -1.727141,2.219277 -2.702191,3.248658 -6.386003,6.741842 -15.517142,10.74226 -24.969855,10.780401 -0.901019,0.0036 -1.801275,-0.02877 -2.698455,-0.09747 m 1.860403,-0.545081 C 29.077901,74.385762 20.454563,70.631298 14.267045,63.926791 12.960657,62.511249 11.777074,60.978953 10.727486,59.34465 m 0.165041,1.476255 C 5.6900207,54.228799 3.098325,46.018274 3.2556911,37.403617 3.3143654,34.191621 3.7542029,30.970611 4.5491399,27.808162 m -0.00675,2.646942 C 6.1036685,23.473545 9.434151,16.937186 14.371919,11.835958 17.880534,8.2111938 22.100326,5.4173493 26.833177,3.70018 M 23.108562,4.5716862 C 27.791341,1.9836272 33.1679,0.6358862 38.753001,0.57268942 45.406035,0.49740874 52.119088,2.2434132 58.158302,5.5130354 m -3.746761,0.2965861 c 3.236018,1.8291004 6.27258,4.0951721 8.98493,6.7344225 5.381307,5.236277 9.254847,11.718189 10.979121,18.583961 m -2.58295,-2.152695 c 0.501999,2.621324 0.772856,5.292296 0.799893,7.966109 0.08835,8.737426 -2.43152,17.10184 -7.295992,23.589985 m -6.052374,6.818535 c -5.731714,4.211247 -12.793352,6.649277 -20.176943,6.975014 -4.190483,0.184868 -8.392341,-0.31398 -12.4212,-1.466934 m 3.615391,1.047634 C 24.820997,72.24811 19.744637,69.014428 15.567725,64.534971 11.257698,59.912756 8.0414757,54.110768 6.3044014,47.709727 m 0.5265985,2.2013 C 5.2799864,45.914985 4.5393558,41.609044 4.623266,37.266403 4.7685379,29.748082 7.3779783,22.40525 11.999787,16.594464 m -1.978223,3.513474 c 1.585183,-2.593312 3.424894,-4.998616 5.499659,-7.157191 C 21.68715,6.5357497 29.623095,2.6243287 38.209983,2.0606875 M 34.326149,1.1751103 c 1.510504,-0.1689927 3.018908,-0.25036341 4.519038,-0.24233281 9.403717,0.0503406 18.027025,3.61327411 24.442027,10.09994751 0.845864,0.855314 1.647882,1.756083 2.404049,2.699066 m -2.704457,-2.68914 c 6.501241,6.884265 10.046262,16.413596 10.347675,26.83718 0.0759,2.624916 -0.05441,5.275749 -0.380461,7.921837 m 1.038911,-4.768626 c -1.156231,8.408496 -4.742058,16.181777 -10.482614,22.474542 -2.331195,2.555443 -4.978523,4.823338 -7.890798,6.77168"
       transform="matrix(1.0565787,0,0,1.0057784,-1.0447564,2.0138836)" />
  </g>
</svg>
