<?xml version="1.0" encoding="UTF-8" standalone="no"?>
<svg xmlns:dc="http://purl.org/dc/elements/1.1/" xmlns:cc="http://creativecommons.org/ns#" xmlns:rdf="http://www.w3.org/1999/02/22-rdf-syntax-ns#" xmlns:svg="http://www.w3.org/2000/svg" xmlns="http://www.w3.org/2000/svg" xmlns:sodipodi="http://sodipodi.sourceforge.net/DTD/sodipodi-0.dtd" xmlns:inkscape="http://www.inkscape.org/namespaces/inkscape" version="1.1" viewBox="0 0 100 100" id="svg28" sodipodi:docname="slideUp.svg" inkscape:version="1.0.1 (3bc2e813f5, 2020-09-07)">
<metadata id="metadata32">
<rdf:RDF>
<cc:Work rdf:about="">
<dc:format>image/svg+xml</dc:format>
<dc:type rdf:resource="http://purl.org/dc/dcmitype/StillImage" />
<dc:title />
</cc:Work>
</rdf:RDF>
</metadata>
<sodipodi:namedview pagecolor="#555555" bordercolor="#666666" borderopacity="1" objecttolerance="10" gridtolerance="10" guidetolerance="10" inkscape:pageopacity="0" inkscape:pageshadow="2" inkscape:window-width="2560" inkscape:window-height="1361" id="namedview30" showgrid="false" inkscape:zoom="5.74088" inkscape:cx="43.729358" inkscape:cy="62.072503" inkscape:window-x="2391" inkscape:window-y="-9" inkscape:window-maximized="1" inkscape:current-layer="svg28" inkscape:document-rotation="0" />
<defs id="defs12">
<inkscape:path-effect effect="sketch" id="path-effect864" is_visible="true" lpeversion="1" nbiter_approxstrokes="2" strokelength="200" strokelength_rdm="1;1" strokeoverlap="0.1" strokeoverlap_rdm="0.1;1" ends_tolerance="0;1" parallel_offset="0;1" tremble_size="1.3;1" tremble_frequency="4" nbtangents="0" tgt_places_rdmness="0;1" tgtscale="0" tgtlength="0" tgtlength_rdm="0;1" />
<inkscape:path-effect effect="sketch" id="path-effect854" is_visible="true" lpeversion="1" nbiter_approxstrokes="2" strokelength="200" strokelength_rdm="1;1" strokeoverlap="0.1" strokeoverlap_rdm="0.1;1" ends_tolerance="0;1" parallel_offset="0;1" tremble_size="0.9;1" tremble_frequency="4" nbtangents="0" tgt_places_rdmness="0;1" tgtscale="0" tgtlength="0" tgtlength_rdm="0;1" />
<inkscape:path-effect effect="sketch" id="path-effect1541" is_visible="true" lpeversion="1" nbiter_approxstrokes="2" strokelength="200" strokelength_rdm="1;1" strokeoverlap="0.1" strokeoverlap_rdm="0.1;1" ends_tolerance="0;1" parallel_offset="0;1" tremble_size="2;1" tremble_frequency="4" nbtangents="0" tgt_places_rdmness="0;1" tgtscale="0" tgtlength="0" tgtlength_rdm="0;1" />
<inkscape:path-effect effect="sketch" id="path-effect1311" is_visible="true" lpeversion="1" nbiter_approxstrokes="2" strokelength="200" strokelength_rdm="1;1" strokeoverlap="0.1" strokeoverlap_rdm="0.1;1" ends_tolerance="0;1" parallel_offset="0;1" tremble_size="2;1" tremble_frequency="4" nbtangents="0" tgt_places_rdmness="0;1" tgtscale="0" tgtlength="0" tgtlength_rdm="0;1" />
<inkscape:path-effect effect="sketch" id="path-effect1307" is_visible="true" lpeversion="1" nbiter_approxstrokes="2" strokelength="200" strokelength_rdm="1;1" strokeoverlap="0.1" strokeoverlap_rdm="0.1;1" ends_tolerance="0;1" parallel_offset="0;1" tremble_size="2;1" tremble_frequency="4" nbtangents="0" tgt_places_rdmness="0;1" tgtscale="0" tgtlength="0" tgtlength_rdm="0;1" />
<linearGradient id="linearGradient851" x1="49.21" x2="50.484" y1="30.859" y2="86.101" gradientUnits="userSpaceOnUse">
<stop stop-color="#ff0" offset="0" id="stop2" />
<stop stop-color="#fff" offset="1" id="stop4" />
</linearGradient>
<linearGradient id="linearGradient871-8" x1="49.385" x2="51.286" y1="6.6703" y2="127.21" gradientTransform="matrix(.99561 0 0 1.0608 .32341 -.64981)" gradientUnits="userSpaceOnUse">
<stop stop-color="#f00" offset="0" id="stop7" />
<stop stop-color="#fff" offset="1" id="stop9" />
</linearGradient>
</defs>
<path style="fill:none;stroke:#292929;stroke-width:6.69851;stroke-linecap:round;stroke-linejoin:round" d="m 34.117424,27.973148 c 0.724168,-0.101397 1.817214,-0.128356 2.958214,-0.03127 1.141345,0.09711 2.327325,0.318005 3.242849,0.709687 0.457557,0.195754 0.847067,0.433978 1.129305,0.720249 0.282212,0.286246 0.457075,0.620457 0.485383,1.007832 0.0566,0.774604 -0.472376,1.761697 -1.907005,3.005587 4.541712,-0.354593 7.187331,1.731936 7.925143,4.108666 0.738443,2.378765 -0.427454,5.053875 -3.535435,5.902156 1.090814,-0.599171 2.524791,-0.706496 3.908675,-0.394642 1.383707,0.311814 2.718395,1.042925 3.6104,2.120299 0.89187,1.077211 1.342107,2.501828 0.950594,4.200907 -0.391545,1.699213 -1.62572,3.674306 -4.099117,5.84726 5.1e-5,-2.7e-5 0.163332,-0.08377 0.163384,-0.08379 6.709743,-3.435355 12.876247,-5.864619 17.960525,-7.348539 m -5.958231,1.840635 c 3.416299,-1.275863 6.498851,-2.216224 9.181901,-2.845112 0.735719,-0.172447 1.441451,-0.321483 2.115719,-0.447558 m -1.74267,-0.672915 c 2.322249,-0.529233 4.336359,-0.78393 5.95599,-0.78981 0.9317,-0.0034 1.734884,0.07549 2.394953,0.232432 0.660164,0.156962 1.177586,0.39208 1.538592,0.701748 0.361069,0.309721 0.565731,0.693998 0.60107,1.150075 0.03535,0.456169 -0.09865,0.983936 -0.414247,1.581787 -0.631611,1.196479 -1.988173,2.669848 -4.164295,4.416901 -2.171217,1.743114 -5.172021,3.768873 -9.069185,6.049866 8.9e-5,-5.3e-5 -0.205755,0.120178 -0.205666,0.120126 m 3.007673,-0.709563 c -0.716098,0.415768 -1.4667,0.840224 -2.252251,1.272992 -4.014028,2.211365 -8.971541,4.656523 -14.919956,7.26849 -4.089083,1.754009 -8.171552,3.496321 -12.263413,5.229376 3.730693,2.223488 6.73631,4.220699 9.109784,6.012299 2.092317,1.579369 3.682459,2.991053 4.822363,4.235765 0.151168,0.165067 0.294666,0.327261 0.430566,0.486569 1.161171,1.361178 1.76518,2.508855 1.864317,3.436862 0.04954,0.463701 -0.02711,0.871807 -0.222568,1.223277 -0.195468,0.351493 -0.509545,0.645965 -0.934247,0.882852 -0.849495,0.473825 -2.140006,0.716283 -3.800212,0.725899 -1.65932,0.0096 -3.688025,-0.213493 -6.007945,-0.670825 C 41.345089,87.556339 35.522554,85.70348 29.123541,82.86591 27.29172,82.340335 24.838098,81.243875 22.231854,79.523631 20.629537,78.466027 18.968779,77.172223 17.356701,75.62858 16.346519,74.661282 15.33899,73.605101 14.362009,72.460545 9.2942203,66.523511 5.0011258,58.15401 5.314327,47.116515 c 2.2766652,-3.726959 4.863017,-7.838275 9.040804,-11.240927 0.490465,-0.399465 1.003071,-0.789334 1.539899,-1.167768 3.708379,-2.614207 8.645609,-4.848066 15.590493,-6.267308 M 15.85457,33.202494 c 4.129935,-2.903651 9.579189,-5.238434 17.149304,-6.388269 0.722219,-0.09538 1.817213,-0.11471 2.964166,-0.01209 1.146955,0.102621 2.345991,0.327225 3.274081,0.720137 0.464155,0.196503 0.860248,0.434955 1.148972,0.721311 0.288778,0.286411 0.46964,0.620232 0.505147,1.007367 0.07098,0.773897 -0.439059,1.759597 -1.825739,2.996065 4.662834,-0.373901 7.408326,1.682492 8.246209,4.034884 0.837841,2.35227 -0.240544,5.002748 -3.198462,5.807107 0.532337,-0.285358 1.13951,-0.465784 1.782753,-0.548503 0.746274,-0.09597 1.538492,-0.05925 2.314755,0.09933 1.445958,0.295382 2.834221,1.01291 3.772905,2.081687 0.938281,1.068317 1.427265,2.487455 1.076981,4.184745 -0.350366,1.697687 -1.539958,3.675396 -3.975855,5.873666 8.223513,-4.09685 15.453771,-6.599872 21.09621,-7.790142 2.8133,-0.593464 5.218675,-0.856142 7.102531,-0.811936 0.08944,0.0021 0.177714,0.0049 0.264802,0.0084 M 33.238463,28.057566 c 0.720024,-0.09834 1.809114,-0.121071 2.949544,-0.02005 1.140419,0.101017 2.330064,0.325617 3.250385,0.719946 0.460065,0.197124 0.852387,0.436488 1.137528,0.723761 0.285173,0.287305 0.46286,0.622235 0.494707,1.010553 0.06368,0.776504 -0.455783,1.76514 -1.86274,3.012839 4.613836,-0.347245 7.328681,1.739191 8.140259,4.119995 0.812237,2.382738 -0.283606,5.056003 -3.268472,5.908074 1.14096,-0.59805 2.632889,-0.704256 4.081724,-0.390852 1.448835,0.313405 2.853226,1.046189 3.81647,2.125808 0.964522,1.081051 1.483573,2.504668 1.188723,4.209139 -0.0611,0.35319 -0.157102,0.718255 -0.291175,1.094624 m 0.194948,-4.629795 c 0.314015,0.840044 0.397597,1.804031 0.152812,2.87524 -0.391009,1.711101 -1.62199,3.699381 -4.083545,5.873478 7.440841,-3.803458 14.172196,-6.448534 19.584478,-7.960237 m -2.214284,1.095378 c 0.517224,-0.164244 1.024468,-0.318687 1.521284,-0.463516 m -0.396233,0.456891 c 1.048009,-0.276514 2.048158,-0.518371 2.998744,-0.725624 2.858011,-0.623122 5.258456,-0.931087 7.134193,-0.927561 0.936708,0.0018 1.739975,0.08131 2.399236,0.23743 0.659131,0.156088 1.173934,0.388716 1.532124,0.695648 0.358189,0.306932 0.559772,0.688175 0.590866,1.140076 0.03109,0.451892 -0.108393,0.974383 -0.432864,1.563318 -0.648476,1.177024 -2.038056,2.622715 -4.28447,4.29618 -2.24925,1.675577 -5.351912,3.57574 -9.442285,5.670775 -3.921262,2.008418 -8.672922,4.157865 -14.467797,6.495452 6.93e-4,-2.79e-4 -0.839704,0.338371 -0.839011,0.338092 -4.207537,1.652762 -8.337415,3.363625 -12.42223,5.103541 3.732346,2.227102 6.805656,4.271218 9.230851,6.090817 2.429214,1.822615 4.217682,3.426352 5.425772,4.807255 1.208229,1.381062 1.835118,2.53818 1.949482,3.471489 0.05716,0.466433 -0.01381,0.876595 -0.204017,1.229697 -0.190192,0.353076 -0.499622,0.649112 -0.919573,0.88703 -0.839716,0.475732 -2.122494,0.719764 -3.783484,0.723032 -1.660328,0.0033 -3.704103,-0.23411 -6.06815,-0.725689 -0.268108,-0.05575 -0.540404,-0.114784 -0.8168,-0.177128 C 40.635436,86.979609 34.89669,85.124538 28.55046,82.49079 26.627597,81.976879 24.034798,80.902019 21.252947,79.227925 18.470367,77.553392 15.491079,75.274967 12.790765,72.34083 10.362277,69.702057 8.1572368,66.531077 6.5137091,62.778259 M 15.344074,76.204412 C 14.628132,75.522932 13.924092,74.798171 13.240107,74.029191 7.9231493,68.051536 3.8132079,59.410629 4.739855,47.54817 c 2.5336147,-4.085843 5.419942,-8.620946 9.940725,-12.649712 0.886687,-0.790184 1.835433,-1.560238 2.856498,-2.304102 4.171007,-3.038649 9.504435,-5.36375 16.551893,-6.265724 0.706031,-0.07604 1.767518,-0.06239 2.880261,0.08318 1.111353,0.145392 2.267325,0.421653 3.157761,0.862296 0.444782,0.220105 0.823634,0.481473 1.095675,0.788303 0.272136,0.306938 0.438408,0.660277 0.457155,1.068221 0.03751,0.816276 -0.515289,1.856958 -1.995238,3.212695 4.438031,-0.08887 7.025895,2.171242 7.71226,4.704166 0.68796,2.538809 -0.523643,5.339534 -3.6866,6.37043 0.6745,-0.332652 1.484442,-0.46775 2.332703,-0.424317 0.494485,0.02532 1.00285,0.10993 1.505557,0.249724 1.363531,0.379174 2.689694,1.165479 3.578282,2.282364 0.889729,1.118318 1.342937,2.570043 0.96483,4.292949 -0.377639,1.720782 -1.587133,3.713564 -3.998761,5.869611 8.186951,-4.164928 15.406527,-6.991738 21.226161,-8.488584" id="path852" sodipodi:nodetypes="ccccccccc" inkscape:path-effect="#path-effect854" inkscape:original-d="m 33.842947,27.347501 c 2.84875,-0.370597 11.558349,0.501115 5.813229,5.496642 9.087272,-0.688827 10.643789,8.31276 4.499385,9.985676 4.419224,-2.41504 14.366525,3.026302 4.614844,11.721215 32.904482,-16.685641 51.737955,-9.03377 4.342874,12.218696 L 40.917583,72.113424 C 70.937947,90.260848 55.769698,94.497478 28.961139,83.346364 21.31596,81.30397 3.1366601,70.260009 4.7527665,47.325064 9.7109744,39.511691 16.088381,30.014275 33.842947,27.347501 Z" />
<path id="path860" style="fill:none;stroke:#292929;stroke-width:4.68896;stroke-linecap:round;stroke-linejoin:round" d="M 89.081732,3.9910756 C 86.483753,7.3098374 83.826801,10.669979 81.130092,14.054393 M 88.065774,3.3310067 c -2.470643,3.0241422 -4.907195,6.0683914 -7.317418,9.1277603 m 0.240153,-0.78418 c -0.504965,0.606238 -1.00844,1.211946 -1.510494,1.817132 m 9.807149,41.397386 C 89.3588,38.519803 88.797025,21.725208 88.806054,5.3754598 c 3.67e-4,-0.6654593 -7.28e-4,-1.3322608 -0.0032,-2.000341 2.827899,3.7611233 5.591427,7.4632212 8.311832,11.1261862 M 90.858911,54.157886 C 90.147651,37.839489 89.709544,21.43024 88.389648,5.9442098 88.335926,5.3139051 88.286303,4.678602 88.240577,4.0385383 c 2.534145,3.9514703 5.248184,7.6831957 8.078946,11.2698087" sodipodi:nodetypes="ccccc" inkscape:path-effect="#path-effect864" inkscape:original-d="M 88.685471,3.0872657 80.593129,13.270734 M 89.691178,55.102312 88.685471,3.0872657 96.952737,14.166571" />
<path style="fill:none;stroke:#292929;stroke-width:1.11641px" d="m 70.452679,66.709333 c 3.247753,11.948925 3.251111,19.236355 -5.172111,28.714201" id="path866" sodipodi:nodetypes="cc" />
<path style="fill:none;stroke:#292929;stroke-width:1.11641px" d="m 75.904036,64.451261 c 5.050718,11.305529 3.4167,23.14744 -3.444968,33.810356" id="path866-3" sodipodi:nodetypes="cc" />
<path style="fill:none;stroke:#292929;stroke-width:1.11641px" d="m 81.662558,60.826293 c 6.034743,10.812337 6.469872,24.80228 0.582227,36.032417" id="path866-4" sodipodi:nodetypes="cc" />
</svg>
