<?xml version="1.0" encoding="UTF-8" standalone="no"?>
<svg
   xmlns:dc="http://purl.org/dc/elements/1.1/"
   xmlns:cc="http://creativecommons.org/ns#"
   xmlns:rdf="http://www.w3.org/1999/02/22-rdf-syntax-ns#"
   xmlns:svg="http://www.w3.org/2000/svg"
   xmlns="http://www.w3.org/2000/svg"
   xmlns:sodipodi="http://sodipodi.sourceforge.net/DTD/sodipodi-0.dtd"
   xmlns:inkscape="http://www.inkscape.org/namespaces/inkscape"
   viewBox="0 0 512 512"
   style="height: 50px; width: 50px;"
   version="1.1"
   id="svg15"
   sodipodi:docname="staff.svg"
   inkscape:version="1.0.1 (3bc2e813f5, 2020-09-07)">
  <metadata
     id="metadata19">
    <rdf:RDF>
      <cc:Work
         rdf:about="">
        <dc:format>image/svg+xml</dc:format>
        <dc:type
           rdf:resource="http://purl.org/dc/dcmitype/StillImage" />
      </cc:Work>
    </rdf:RDF>
  </metadata>
  <sodipodi:namedview
     pagecolor="#ffffff"
     bordercolor="#666666"
     borderopacity="1"
     objecttolerance="10"
     gridtolerance="10"
     guidetolerance="10"
     inkscape:pageopacity="0"
     inkscape:pageshadow="2"
     inkscape:window-width="2400"
     inkscape:window-height="1271"
     id="namedview17"
     showgrid="false"
     inkscape:zoom="2.0039062"
     inkscape:cx="256"
     inkscape:cy="256"
     inkscape:window-x="-9"
     inkscape:window-y="429"
     inkscape:window-maximized="1"
     inkscape:current-layer="svg15" />
  <defs
     id="defs7">
    <radialGradient
       id="lorc-wizard-staff-gradient-0">
      <stop
         offset="0%"
         stop-color="#ffffff"
         stop-opacity="1"
         id="stop2" />
      <stop
         offset="100%"
         stop-color="#ffffff"
         stop-opacity="0"
         id="stop4" />
    </radialGradient>
  </defs>
  <g
     class=""
     id="g13">
    <path
       d="m 335.656,19.53 c -24.51,0.093 -48.993,5.235 -71.062,15.626 -22.46,10.577 -43.112,34.202 -58.375,62.563 -15.264,28.36 -25.182,61.262 -27.69,88.75 -7.487,82.112 -51.926,155.352 -159.78,252.56 l -0.188,21.44 C 89.216,403.443 139.915,346.632 176.313,290 l 0.063,0.03 c -9.293,32.473 -22.623,63.18 -43.594,87.97 -31.47,35.584 -69.222,71.1 -114.468,106.53 l -0.062,8.25 25,0.064 h 0.47 l 1.28,-1.156 c 24.405,-16.498 48.607,-31.488 72.594,-41.5 l 0.187,0.187 -46.436,42.5 28.937,0.063 c 48.372,-41.685 94.714,-90.58 129.626,-137 33.587,-44.658 56.02,-87.312 60.688,-116.844 -1.268,-2.32 -2.552,-4.628 -3.656,-7.094 -18.833,-42.06 -4.273,-96.424 40.218,-116.063 32.73,-14.45 74.854,-3.165 90.438,31.344 0.15,0.333 0.324,0.634 0.47,0.97 13.302,24.062 6.175,49.48 -9.345,61.97 -7.866,6.328 -18.442,9.528 -28.75,6.56 -10.31,-2.966 -19.043,-11.772 -24.5,-25.124 l 17.28,-7.062 c 3.992,9.764 8.667,13.15 12.375,14.22 3.708,1.066 7.767,0.148 11.875,-3.158 8.216,-6.61 14.282,-21.91 4.406,-39.03 l -0.28,-0.47 -0.22,-0.5 c -10.7,-24.82 -41.96,-33.333 -66.22,-22.625 -34.063,15.037 -45.594,58.052 -30.686,91.345 20.527,45.846 77.97,61.177 122.375,40.875 60.157,-27.5 80.13,-103.328 53.094,-161.813 -24.737,-53.503 -81.41,-82.484 -138.908,-83.843 -1.633,-0.04 -3.272,-0.07 -4.906,-0.063 z m -25.75,26.72 c 3.238,0.035 6.363,0.348 9.406,0.906 10.343,1.898 19.946,6.753 29.032,13.25 -30.623,-5.437 -58.324,4.612 -80.78,24.782 -22.44,20.152 -39.16,50.59 -45.783,84.718 -4.655,-11.358 -7.166,-21.462 -6.686,-31.72 0.296,-6.343 1.715,-12.956 4.78,-20.217 9.094,-18.016 21.032,-33.946 35.22,-46.69 7.824,-7.026 16.39,-13.07 25.53,-17.905 10.932,-5.212 20.522,-7.22 29.282,-7.125 z m 122.938,62.313 c 22.583,13.167 34.365,41.86 32.937,70.656 -0.564,11.395 -3.466,22.975 -8.905,33.624 -12.48,18.937 -35.53,25.51 -49.97,20.875 l -0.092,-0.25 c 27.943,-10.365 39.18,-32.377 40.312,-55.19 0.124,-2.5 0.115,-4.994 -0.03,-7.468 1.447,-13.31 -0.412,-28.793 -5.47,-43.437 -2.244,-6.496 -5.15,-12.89 -8.844,-18.72 l 0.064,-0.093 z m -135.563,1.312 c -20.97,19.342 -29.406,35.252 -33.25,51.25 -3.848,16.023 -2.788,32.84 -2.905,52.875 -0.14,23.79 -2.56,51.542 -18.438,85.688 -0.005,0.012 -0.025,0.018 -0.03,0.03 -21.095,26.753 -45.276,52.25 -68.907,67.376 l -0.063,-0.03 c 64.195,-71.545 68.527,-114.792 68.75,-153.19 0.112,-19.197 -1.253,-37.594 3.438,-57.124 0.57,-2.37 1.233,-4.742 2,-7.125 h 0.03 c 8.098,-17.036 16.572,-26.058 25.47,-31.563 7.18,-4.44 15.035,-6.697 23.906,-8.187 z"
       fill="#000000"
       fill-opacity="1"
       id="path11" />
  </g>
</svg>
