<?xml version="1.0" encoding="UTF-8" standalone="no"?>
<svg xmlns:dc="http://purl.org/dc/elements/1.1/" xmlns:cc="http://creativecommons.org/ns#" xmlns:rdf="http://www.w3.org/1999/02/22-rdf-syntax-ns#" xmlns:svg="http://www.w3.org/2000/svg" xmlns="http://www.w3.org/2000/svg" xmlns:sodipodi="http://sodipodi.sourceforge.net/DTD/sodipodi-0.dtd" xmlns:inkscape="http://www.inkscape.org/namespaces/inkscape" viewBox="0 0 512 512" version="1.1" id="svg16" sodipodi:docname="unstuck.svg" inkscape:version="1.0.1 (3bc2e813f5, 2020-09-07)">
<metadata id="metadata22">
<rdf:RDF>
<cc:Work rdf:about="">
<dc:format>image/svg+xml</dc:format>
<dc:type rdf:resource="http://purl.org/dc/dcmitype/StillImage" />
<dc:title />
</cc:Work>
</rdf:RDF>
</metadata>
<defs id="defs20">
<inkscape:path-effect effect="sketch" id="path-effect907" is_visible="true" lpeversion="1" nbiter_approxstrokes="2" strokelength="200" strokelength_rdm="1;1" strokeoverlap="0.1" strokeoverlap_rdm="0.1;1" ends_tolerance="0;1" parallel_offset="0;1" tremble_size="4;1" tremble_frequency="4" nbtangents="0" tgt_places_rdmness="0;1" tgtscale="0" tgtlength="0" tgtlength_rdm="0;1" />
<inkscape:path-effect effect="sketch" id="path-effect905" is_visible="true" lpeversion="1" nbiter_approxstrokes="2" strokelength="200" strokelength_rdm="1;1" strokeoverlap="0.1" strokeoverlap_rdm="0.1;1" ends_tolerance="0;1" parallel_offset="0;1" tremble_size="4;1" tremble_frequency="4" nbtangents="0" tgt_places_rdmness="0;1" tgtscale="0" tgtlength="0" tgtlength_rdm="0;1" />
<inkscape:path-effect effect="sketch" id="path-effect903" is_visible="true" lpeversion="1" nbiter_approxstrokes="2" strokelength="200" strokelength_rdm="1;1" strokeoverlap="0.1" strokeoverlap_rdm="0.1;1" ends_tolerance="0;1" parallel_offset="0;1" tremble_size="4;1" tremble_frequency="4" nbtangents="0" tgt_places_rdmness="0;1" tgtscale="0" tgtlength="0" tgtlength_rdm="0;1" />
<inkscape:path-effect effect="sketch" id="path-effect901" is_visible="true" lpeversion="1" nbiter_approxstrokes="2" strokelength="200" strokelength_rdm="1;1" strokeoverlap="0.1" strokeoverlap_rdm="0.1;1" ends_tolerance="0;1" parallel_offset="0;1" tremble_size="4;1" tremble_frequency="4" nbtangents="0" tgt_places_rdmness="0;1" tgtscale="0" tgtlength="0" tgtlength_rdm="0;1" />
<inkscape:path-effect effect="sketch" id="path-effect899" is_visible="true" lpeversion="1" nbiter_approxstrokes="2" strokelength="200" strokelength_rdm="1;1" strokeoverlap="0.1" strokeoverlap_rdm="0.1;1" ends_tolerance="0;1" parallel_offset="0;1" tremble_size="4;1" tremble_frequency="4" nbtangents="0" tgt_places_rdmness="0;1" tgtscale="0" tgtlength="0" tgtlength_rdm="0;1" />
<inkscape:path-effect effect="sketch" id="path-effect897" is_visible="true" lpeversion="1" nbiter_approxstrokes="2" strokelength="200" strokelength_rdm="1;1" strokeoverlap="1" strokeoverlap_rdm="0.5;1" ends_tolerance="0;1" parallel_offset="0;1" tremble_size="4;1" tremble_frequency="4" nbtangents="0" tgt_places_rdmness="0;1" tgtscale="0" tgtlength="0" tgtlength_rdm="0;1" />
<inkscape:path-effect effect="sketch" id="path-effect895" is_visible="true" lpeversion="1" nbiter_approxstrokes="8" strokelength="300" strokelength_rdm="1;1" strokeoverlap="1" strokeoverlap_rdm="0.1;1" ends_tolerance="0;1" parallel_offset="0;1" tremble_size="4;1" tremble_frequency="4" nbtangents="0" tgt_places_rdmness="0;1" tgtscale="0" tgtlength="0" tgtlength_rdm="0;1" />
<inkscape:path-effect effect="sketch" id="path-effect893" is_visible="true" lpeversion="1" nbiter_approxstrokes="3" strokelength="200" strokelength_rdm="1;1" strokeoverlap="0.1" strokeoverlap_rdm="0.1;1" ends_tolerance="0;1" parallel_offset="0;1" tremble_size="4;1" tremble_frequency="4" nbtangents="0" tgt_places_rdmness="0;1" tgtscale="0" tgtlength="0" tgtlength_rdm="0;1" />
<inkscape:path-effect effect="sketch" id="path-effect891" is_visible="true" lpeversion="1" nbiter_approxstrokes="3" strokelength="200" strokelength_rdm="1;1" strokeoverlap="0.1" strokeoverlap_rdm="0.1;1" ends_tolerance="0;1" parallel_offset="0;1" tremble_size="4;1" tremble_frequency="4" nbtangents="0" tgt_places_rdmness="0;1" tgtscale="0" tgtlength="0" tgtlength_rdm="0;1" />
<inkscape:path-effect effect="sketch" id="path-effect881" is_visible="true" lpeversion="1" nbiter_approxstrokes="2" strokelength="200" strokelength_rdm="1;1" strokeoverlap="0.1" strokeoverlap_rdm="0.1;1" ends_tolerance="1;1" parallel_offset="0;1" tremble_size="4;1" tremble_frequency="4" nbtangents="0" tgt_places_rdmness="0;1" tgtscale="0" tgtlength="0" tgtlength_rdm="0;1" />
<inkscape:path-effect effect="sketch" id="path-effect879" is_visible="true" lpeversion="1" nbiter_approxstrokes="2" strokelength="200" strokelength_rdm="1;1" strokeoverlap="0.1" strokeoverlap_rdm="0.1;1" ends_tolerance="1;1" parallel_offset="0;1" tremble_size="4;1" tremble_frequency="4" nbtangents="0" tgt_places_rdmness="0;1" tgtscale="0" tgtlength="0" tgtlength_rdm="0;1" />
<inkscape:path-effect effect="sketch" id="path-effect839" is_visible="true" lpeversion="1" nbiter_approxstrokes="2" strokelength="200" strokelength_rdm="1;1" strokeoverlap="0.1" strokeoverlap_rdm="0.1;1" ends_tolerance="1;1" parallel_offset="0;1" tremble_size="4;1" tremble_frequency="4" nbtangents="0" tgt_places_rdmness="0;1" tgtscale="0" tgtlength="0" tgtlength_rdm="0;1" />
<inkscape:path-effect effect="sketch" id="path-effect840" is_visible="true" lpeversion="1" nbiter_approxstrokes="2" strokelength="500" strokelength_rdm="1;1" strokeoverlap="0.1" strokeoverlap_rdm="0.1;1" ends_tolerance="1;1" parallel_offset="0;1" tremble_size="8;1" tremble_frequency="4" nbtangents="0" tgt_places_rdmness="0;1" tgtscale="0" tgtlength="0" tgtlength_rdm="0;1" />
</defs>
<sodipodi:namedview pagecolor="#555555" bordercolor="#666666" borderopacity="1" objecttolerance="10" gridtolerance="10" guidetolerance="10" inkscape:pageopacity="0" inkscape:pageshadow="2" inkscape:window-width="2560" inkscape:window-height="1361" id="namedview18" showgrid="false" inkscape:zoom="1.0019531" inkscape:cx="-199.28252" inkscape:cy="317.4386" inkscape:window-x="2391" inkscape:window-y="-9" inkscape:window-maximized="1" inkscape:current-layer="svg16" inkscape:document-rotation="0" />
<ellipse style="fill:#9aff99;fill-rule:evenodd;stroke-width:16.6481;stroke-linecap:round;stroke-linejoin:round" id="path909" cx="257.49707" cy="255.50099" rx="248.51463" ry="250.51074" />
<path style="fill:none;stroke:#191919;stroke-width:18.8297;stroke-linecap:round;stroke-linejoin:round" d="m 190.36342,85.408143 c 17.04747,-5.969927 31.36792,-10.141001 46.45817,-15.255689 5.89883,-1.999348 11.93502,-4.08938 17.96998,-6.276053 m -5.23473,1.147458 c 3.95962,-1.328768 7.73476,-2.609917 11.36867,-3.864873 m -4.12532,-3.568799 c 7.45319,-3.218279 15.61883,-5.606673 24.03104,-7.675603 0.0708,1.81924 0.15174,3.651709 0.239,5.493105 m 2.61803,0.21095 c -1.3115,16.850333 -0.77512,32.749321 -2.15547,48.270891 -1.38062,15.52468 1.66992,32.68321 5.18749,48.03101 3.51758,15.34779 -1.65082,35.15015 -4.78125,55.43725 -1.07671,6.97775 -1.25032,12.85572 -0.89636,18.07626 m -2.01271,-22.07321 c -0.832,16.6735 1.25695,32.94452 3.90674,48.8335 2.56803,15.3987 0.30156,32.93368 0.5608,50.49862 m -3.49504,-4.86428 c 0.62907,14.0733 1.61399,29.144 4.47096,44.01679 m 0.21629,-7.14296 c -0.72872,11.07344 -0.7604,21.01094 -0.89893,30.55429 m 2.40528,-1.44841 c 0.0322,0.48084 0.0627,0.96519 0.0916,1.45291 m -1.15849,1.72023 c 0.17487,2.70579 0.26433,5.33653 0.28113,7.90335 -13.11652,4.97035 -28.46567,7.97645 -43.87948,10.90851 -18.19831,3.46174 -31.39334,10.68617 -47.25662,14.83689 -15.12287,3.95699 -30.5015,10.55323 -46.71314,15.66044 m 16.3353,2.76651 c -15.96729,4.94432 -30.75505,9.08529 -45.30954,10.02142 l -10e-6,1e-5 c -14.5574,0.93632 -32.41423,13.64535 -50.28786,23.71188 l -6e-6,10e-6 c -2.944767,1.65851 -5.747473,3.0711 -8.437993,4.29594 -0.367755,-9.46543 0.916969,-21.69653 2.165305,-33.40581 m -2.103089,12.61191 c -1.074953,-17.53745 0.592781,-34.04577 1.490596,-52.17606 0.561427,-11.33733 0.916631,-21.20323 1.654554,-30.67831 m 3.301121,10.93665 c 0.621124,-16.11219 0.238911,-35.05942 0.427077,-55.20817 l 0,0 c 0.188205,-20.15278 -0.495659,-33.07797 -1.791298,-49.24908 l -10e-7,-10e-6 c -0.870767,-10.8682 -0.262296,-21.53088 0.560549,-31.53482 m -5.40407,11.37865 c 0.247108,-16.42397 1.761954,-34.03827 5.021053,-52.11423 2.649199,-14.69328 0.141447,-27.23511 -2.452465,-39.89068 m 2.958695,7.4795 c -0.148032,-7.74366 -0.269916,-15.08739 -0.499062,-21.98202 m -2.215553,4.27584 c 0.04664,-4.56162 0.06159,-9.33774 0.05015,-14.27722 11.233583,-4.06297 22.302421,-9.14516 33.288741,-14.44937 3.128702,-1.51054 6.32661,-2.80081 9.58193,-3.93059 m -6.477804,8.69434 c 15.944564,-5.54424 31.780474,-12.56016 47.708834,-22.443447 15.93154,-9.885263 32.47554,-7.653961 49.81214,-7.728022 l 1e-5,0 c 15.44388,-0.06598 29.09983,-8.136863 44.0599,-13.604565 m 4.9309,-7.989009 c 13.72185,-3.23805 26.18257,-6.691782 38.68252,-8.428937 -0.13277,3.454256 -0.26376,6.986789 -0.38029,10.616416 -0.66237,20.630869 0.41386,32.780858 1.40624,48.343504 0.99239,15.56265 -0.77501,33.9723 -2.15625,51.906 l 0,1e-5 c -0.88514,11.49236 -0.53658,21.88233 -0.005,32.17374 m 2.1174,-19.20417 c -0.78038,15.36265 0.21404,33.77811 0.81297,51.33428 l 0,1e-5 c 0.59904,17.55968 -0.69725,33.02558 -1.93751,49.06225 -1.24025,16.03667 -1.52089,33.74226 -4.40625,51.2185 l 0,10e-6 c -2.11952,12.8376 -0.65919,23.8483 1.0131,33.98956 m -1.60152,-22.52805 c -0.36052,8.97561 -0.1782,18.79722 0.22301,28.99068 -6.4298,3.03059 -12.73307,6.27613 -19.05218,9.52821 -9.14869,4.70831 -18.89286,8.4355 -28.48542,12.48578 m 10.43663,-0.26159 c -15.3326,6.44337 -30.9753,10.47318 -45.99743,14.20802 l 0,10e-6 c -15.02513,3.73559 -31.3975,11.71425 -47.22536,17.93064 l -1e-5,0 c -10.88482,4.27501 -22.01643,7.82092 -33.57413,11.10532 m 7.08611,-2.30469 c -16.57094,6.44296 -30.979252,9.43803 -45.996674,11.11427 -5.193123,0.57966 -10.525894,2.16789 -15.92095,4.26209 0.09446,-10.69489 -0.03413,-19.5779 0.138491,-30.05507 l 10e-7,0 c 0.263847,-16.0137 1.94836,-33.25846 5.521199,-49.78033 l 10e-7,0 c 0.94975,-4.39193 1.397505,-8.69725 1.538546,-12.90747 m -8.055278,21.5823 c -0.190243,-16.19474 1.040622,-33.30767 2.802565,-49.92687 l 0,-1e-5 c 1.762295,-16.62252 -0.366947,-35.95394 -1.38505,-57.84282 -1.018102,-21.88889 0.268024,-33.19231 0.521201,-49.56159 0.185977,-12.02447 1.176539,-23.81942 3.147953,-35.03 m -4.662227,18.0677 c 1.350162,-17.51572 1.738518,-31.78042 4.89539,-45.36357 2.0114,-8.6545 1.744345,-19.73445 1.570389,-30.85626 5.626517,-2.13022 11.283262,-4.27402 17.408977,-5.99045 l 4e-6,0 c 16.876272,-4.72872 30.051842,-12.16078 42.530892,-21.259266 l 0,-2e-6 c 3.70722,-2.702932 8.12458,-4.567667 12.9846,-5.910141 m -13.3249,12.412559 c 14.80055,-4.58625 33.45978,-11.021965 52.77202,-17.850271 19.3161,-6.829673 29.65241,-10.449152 41.3434,-16.103022 11.691,-5.65387 33.05844,-8.98088 51.56215,-11.696772 4.69133,-0.688572 9.09347,-1.698655 13.33502,-2.914847 0.53667,11.328851 -0.0432,21.224598 0.6184,31.8031" id="path837" sodipodi:nodetypes="ccccc" inkscape:path-effect="#path-effect839" inkscape:original-d="M 64.873296,122.36308 283.4464,52.474147 282.44834,371.84007 62.877195,452.34504 Z" />
<path style="fill:none;stroke:#191919;stroke-width:18.8297;stroke-linecap:round;stroke-linejoin:round" d="m 65.936055,214.44312 c 17.188838,-5.50448 31.650668,-9.21011 46.882285,-13.85935 5.95409,-1.8174 12.04555,-3.72549 18.13577,-5.73022 m -5.28987,0.96591 c 3.99276,-1.21965 7.80104,-2.39169 11.46809,-3.53753 m -4.13433,-3.59846 c 9.05602,-3.58947 19.14392,-5.97695 29.45164,-8.05216 m -0.0705,3.77094 c 14.75365,-4.42246 31.35348,-9.79766 46.04,-15.54749 l 0,0 c 14.68945,-5.75098 33.8041,-9.86865 53.3926,-15.80015 l 0,0 c 9.13349,-2.76566 16.3771,-4.56156 22.81923,-5.79127 M 68.122655,208.03707 c 15.689506,-5.16089 29.569528,-8.74971 40.695685,-12.42205 10.78285,-3.55902 32.02079,-9.23669 50.3579,-14.48455 m -7.96738,4.69849 c 14.48742,-4.26134 27.24996,-7.02567 39.34084,-8.78959 m 1.23245,2.52202 c 10.45893,-2.56955 20.19204,-5.93558 29.75186,-9.75653 m -4.90925,-3.84613 c 0.48394,-0.1057 0.97053,-0.21352 1.45964,-0.32329 m 1.65774,5.55448 c 17.32428,-4.22459 32.06434,-9.41197 48.10096,-14.45386 5.1525,-1.61994 10.17099,-3.2667 15.05589,-4.98435" id="path841" sodipodi:nodetypes="cc" inkscape:path-effect="#path-effect907" inkscape:original-d="M 64.716503,211.66243 280.62176,149.5117" />
<path style="fill:none;stroke:#191919;stroke-width:18.8297" d="m 408.88399,174.92583 c 17.40532,2.88236 32.08364,7.56356 47.53174,11.30116 0.91689,0.22184 1.83695,0.44158 2.75969,0.65922 -0.27311,5.4879 -0.46254,10.90991 -0.65286,16.2624 m 1.01097,-7.33135 c 0.20593,3.76703 0.22739,7.58168 0.10761,11.42252 m -3.10522,-4.95362 c -0.78974,9.37591 -0.54759,19.95382 -0.0856,30.844 m 2.63289,0.21104 c -1.40024,16.84982 -0.9526,32.74829 -2.42168,48.26935 l 0,0 c -1.46938,15.52416 1.49241,32.68219 4.92123,48.02946 3.42883,15.34728 -1.82832,35.14913 -5.04751,55.43571 l 0,1e-5 c -1.10724,6.97757 -1.31138,12.85536 -0.98794,18.07573 m -1.92515,-22.07271 c -0.68259,12.3606 0.24019,24.5 1.80672,36.42651 -3.60541,-1.16508 -7.13246,-2.35607 -10.62199,-3.57261 -13.07527,-4.55841 -30.98505,-6.98054 -46.36912,-9.3727 m 5.55615,6.68285 c -13.49746,-3.94876 -26.63906,-6.9001 -37.90861,-10.04937 m 4.12316,-2.15874 c -10.8191,-1.79945 -20.94115,-4.73485 -31.17005,-8.0644 m 5.17698,2.08762 c -0.47232,-0.16281 -0.9463,-0.3221 -1.42194,-0.47802 m -1.02215,1.89416 c -14.99723,-2.88909 -33.65035,-8.99029 -52.39355,-15.19466 -4.60596,-1.52466 -8.90989,-2.82219 -13.02559,-3.99398 -0.31147,-13.20446 1.1514,-25.22371 1.09607,-38.99184 -0.0699,-17.4007 -0.3956,-32.16215 -1.55429,-48.41262 m 2.71251,22.09503 c -0.18051,-17.45456 0.81853,-35.71247 2.05081,-57.17521 1.23254,-21.46704 -0.83435,-31.16136 -2.91804,-43.49818 l 0,-1e-5 c -1.66086,-9.83337 0.003,-25.42252 1.60965,-40.18249 m -2.13652,12.61167 c -0.76861,-13.03746 -0.0214,-25.50616 0.7984,-38.49533 4.41072,0.76148 8.83009,1.46097 13.19877,2.05367 10.64715,1.44452 21.08807,4.36046 31.91172,7.66723 m -4.09628,1.56177 c 16.74989,4.32813 32.49644,5.82122 48.81338,6.11279 l 0,0 c 16.3202,0.29163 31.76832,7.81085 46.60467,12.08414 l 10e-6,0 c 9.97114,2.87197 21.42152,5.94947 33.08628,9.6857 m 7.67281,6.35325 c 0.005,16.9018 1.27874,32.61327 4.29623,47.86308 2.4528,12.39599 -0.25134,26.94343 -3.04165,41.37712 m 3.08291,-9.65383 c -0.26131,7.88093 -0.49647,16.16177 -0.83889,24.89172 m -2.18457,0.002 c -0.0785,17.36988 -0.54457,32.11527 -1.17247,46.42529 -0.12769,2.91017 -0.18618,6.04061 -0.18726,9.33153 m -1.10132,1.39552 c -0.068,16.1935 -0.24457,30.91531 -0.32873,42.76975 -0.0395,5.56082 0.0558,13.7868 0.30429,23.19015 -8.24429,-0.29006 -16.29206,0.92915 -24.11635,1.49833 -13.12628,0.95487 -28.04048,-6.09516 -41.65056,-10.54202 m 15.27181,-3.61543 c -15.41309,-2.78378 -32.68343,-5.8852 -49.48704,-5.85097 l -1e-5,0 c -16.80696,0.0342 -31.87532,-8.41241 -47.02753,-13.4464 l -10e-6,0 c -8.1234,-2.69882 -17.04003,-4.57934 -26.26512,-6.15361 -0.40291,-7.27012 -1.03675,-14.31097 -1.58749,-21.45423 -0.76083,-9.86803 -0.28796,-20.83846 0.36758,-31.90744 m 1.90744,16.87425 c -0.58644,-17.96334 0.60193,-32.87385 1.39481,-48.64366 l 0,-1e-5 c 0.79303,-15.77296 -0.30928,-33.63971 -1.35555,-50.93568 -1.04626,-17.29597 -1.13291,-32.92303 -3.82429,-48.77944 -1.97702,-11.64772 -0.37419,-25.12235 1.44059,-39.46642 m -1.8174,14.56695 c -0.25634,-10.19506 0.0565,-19.50304 0.59073,-28.43306 7.1135,2.12854 14.34147,4.45251 21.55458,6.78262 10.78322,3.48339 20.97096,5.98565 31.31031,8.81101 m -4.18249,0.63683 c 16.54188,4.48452 32.77366,6.55546 49.62601,8.33145 l 0,0 c 16.85571,1.77634 32.36419,7.79575 48.41717,12.05289 l 10e-6,0 c 11.03963,2.92763 21.83249,5.12616 32.19925,7.06319 m -17.77441,-0.77688 c 5.36331,1.57151 10.99225,2.71953 16.76749,3.53572 0.0705,9.88229 0.64362,18.62471 0.95973,26.81073 l 0,0 c 0.48678,12.60536 -0.1947,33.64823 -0.17251,50.96696 0.0222,17.31873 1.46505,33.4064 4.79623,50.21697 0.88551,4.46866 1.26903,9.02394 1.34583,13.67431" id="path843" sodipodi:nodetypes="ccccc" inkscape:path-effect="#path-effect879" inkscape:original-d="m 280.59197,142.57007 178.65108,41.5795 -1.9961,236.20693 -178.65108,-43.34884 z" />
<path style="fill:none;stroke:#191919;stroke-width:18.8297;stroke-linecap:round;stroke-linejoin:round" d="m 135.9563,110.98917 c 1.17575,15.7684 -0.3755,33.33565 -1.15696,49.95929 -0.30548,6.49823 -0.47358,12.90578 -0.64293,19.21669 m 0.95604,-7.33159 c 0.23895,3.76717 0.29341,7.58196 0.20664,11.42295 m -3.11419,-4.95366 c -0.21878,2.91421 -0.3347,5.94687 -0.37395,9.06994 m 3.15513,-79.38297 c -1.25942,16.85042 -0.67581,32.74552 -1.99924,48.27114 -0.8781,10.30138 0.18635,21.32108 2.0467,32.05142" id="path845" sodipodi:nodetypes="cc" inkscape:path-effect="#path-effect905" inkscape:original-d="m 134.73684,108.20836 v 83.159" />
<path style="fill:none;stroke:#191919;stroke-width:18.8297;stroke-linecap:round;stroke-linejoin:round" d="m 206.8179,87.103086 c 1.55543,15.764074 0.38386,33.326994 -0.0179,49.946304 -0.15705,6.49655 -0.17674,12.9024 -0.19767,19.21162 m 0.80794,-7.3299 c 0.32795,3.76616 0.47143,7.57993 0.47366,11.4199 m -3.13838,-4.95338 c -0.2158,4.28122 -0.21267,8.81588 -0.071,13.51696 m 1.17322,-83.810855 c -0.87975,16.846085 0.084,32.737265 -0.86022,48.258155 -0.71048,11.67867 1.07823,24.28122 3.69226,36.33832" id="path847" sodipodi:nodetypes="cc" inkscape:path-effect="#path-effect903" inkscape:original-d="m 205.59844,84.322273 1.9961,87.582337" />
<path style="fill:none;stroke:#191919;stroke-width:18.8297;stroke-linecap:round;stroke-linejoin:round" d="m 339.69837,163.48662 c 1.10232,15.76824 -0.52237,33.33533 -1.37726,49.9588 -0.33418,6.49817 -0.53099,12.90566 -0.72904,19.2165 m 0.98468,-7.33152 c 0.22173,3.76713 0.25899,7.58188 0.155,11.42283 m -3.10952,-4.95365 c -0.74867,9.37618 -0.46545,19.95435 0.0376,30.84479 m 2.62161,0.21097 c -1.33286,16.85025 -0.81945,32.74784 -2.21954,48.27065 l 0,0 c -1.40037,15.52592 1.62478,32.68516 5.1234,48.03076 l 0,0 c 1.75761,7.70917 1.32144,16.54401 0.0527,25.99983 m 0.64696,-228.076 c -0.39701,16.11183 -2.6035,33.79572 -7.56386,51.39609 -4.80729,17.0573 0.8405,31.99595 3.58746,47.36441 m 1.05304,-7.23006 c 0.40891,14.35601 -0.90707,30.20903 -2.89471,47.06246 m 5.12604,-2.62685 c 0.40285,10.72856 0.0799,20.66063 -0.41638,30.1378 m -2.14697,-7.49896 c -0.0189,0.55921 -0.0351,1.11629 -0.0488,1.67142 m 1.79362,5.37481 c 1.23777,17.04813 -0.10916,33.13304 -0.15858,49.36428 -0.0177,5.80114 -0.20134,11.56894 -0.55031,17.24285" id="path847-1" sodipodi:nodetypes="cc" inkscape:path-effect="#path-effect901" inkscape:original-d="m 338.47891,160.70581 -0.99805,226.47555" />
<path style="fill:none;stroke:#191919;stroke-width:18.8297;stroke-linecap:round;stroke-linejoin:round" d="m 404.07263,178.96835 c 0.95634,15.76696 -0.81434,33.33276 -1.81522,49.95496 -0.39125,6.49766 -0.64513,12.90465 -0.90025,19.21499 m 1.04163,-7.33102 c 0.1875,3.76683 0.19053,7.58128 0.0523,11.42193 m -3.10021,-4.95357 c -0.83765,9.37539 -0.64342,19.95278 -0.22935,30.84244 m 2.64604,0.21118 c -1.47885,16.84897 -1.11139,32.74532 -2.65751,48.26681 l 0,0 c -1.54644,15.52459 1.33281,32.68253 4.68534,48.0269 l 0,10e-6 c 1.74471,7.98542 1.13528,17.17879 -0.31513,27.01909 m 2.77894,-229.07976 c -0.54299,16.11054 -2.89548,33.79315 -8.00182,51.39225 -4.94878,17.05605 0.55752,31.99346 3.16299,47.36068 m 1.13491,-7.22935 c 0.28114,14.35489 -1.16261,30.20678 -3.27801,47.05909 m 5.16138,-2.62653 c 0.31158,10.72775 -0.10265,20.65902 -0.69018,30.13538 m -2.1219,-7.49874 c -0.0234,0.55918 -0.0442,1.11622 -0.0625,1.67131 m 1.79485,5.37482 c 1.09178,17.04684 -0.40138,33.13027 -0.59656,49.36043 -0.0733,6.09366 -0.32986,12.15045 -0.76883,18.10025" id="path847-1-2" sodipodi:nodetypes="cc" inkscape:path-effect="#path-effect899" inkscape:original-d="m 402.85318,176.18754 -2.99415,227.36022" />
<path style="fill:none;stroke:#000000;stroke-width:14.1223;stroke-linecap:round;stroke-linejoin:round" d="m 99.028503,404.6995 c 14.150737,-11.35039 25.574467,-20.90192 37.767987,-31.39707 4.76649,-4.10259 9.67035,-8.29586 14.57296,-12.58578 m -4.10486,3.24611 c 3.28056,-2.59006 6.37665,-5.13251 9.3315,-7.64876 m -3.94078,-3.22603 c 2.57903,-2.5605 5.2903,-4.96696 8.09655,-7.2602 2.83906,5.82681 5.98362,12.01778 9.21879,18.33746 m 1.37615,0.49842 c 6.10941,15.13254 14.06461,29.31203 20.10727,43.11753 l 0,10e-6 c 6.04387,13.80825 16.51158,29.24969 27.45468,42.8766 l 0,0 c 3.58829,4.46832 6.24174,9.41641 8.33902,14.70379 M 101.2151,398.29346 c 12.65141,-11.0068 23.49333,-20.44154 31.58139,-29.95978 5.59907,-6.58914 16.53264,-14.25927 27.93303,-22.08159 3.0075,3.90437 6.08969,7.78439 8.9351,11.6995 m -3.12016,-6.26687 c 6.92219,12.85271 12.1195,27.20244 16.64516,42.55258 m 3.32471,-2.21109 c 5.05519,9.65477 9.38457,18.51306 13.54066,26.91644 m -3.42491,-7.204 c 0.21375,0.50552 0.43015,1.00891 0.64907,1.51036 m 1.73076,5.38931 c 8.68004,15.33042 14.77797,29.69989 22.16822,44.21117 1.35171,2.65418 2.66021,5.29983 3.9255,7.92876 M 96.340909,398.91907 c 13.994511,-9.97687 25.237541,-21.18035 36.768081,-32.17914 7.98218,-7.61407 17.83143,-13.46768 28.11304,-18.09575 2.84719,5.76319 5.77992,11.76888 8.67193,17.96998 7.48729,16.05437 12.74336,23.9938 18.85288,31.69365 m -8.946,-8.80112 c 6.86965,15.51765 15.52146,29.48563 24.45056,43.64855 5.5836,8.85644 9.53845,18.30832 13.0193,27.78973 m -4.48175,-8.88789 c 2.4739,5.60954 5.19559,11.1364 8.10758,16.67925" id="path883" inkscape:path-effect="#path-effect891" inkscape:original-d="m 97.808969,401.91885 65.871341,-53.08021 58.885,119.43047" />
<path style="fill:none;stroke:#000000;stroke-width:14.1223;stroke-linecap:round;stroke-linejoin:round" d="m 164.89982,351.61927 c 9.52033,-15.31834 16.31366,-28.83783 23.87678,-43.30094 2.95645,-5.65367 6.05027,-11.39802 9.14284,-17.23902 m -2.29876,4.79381 c 2.19509,-3.52024 4.20571,-6.99286 6.07509,-10.43929 m -3.64579,-2.97325 c 0.86746,-1.89465 1.77536,-3.74219 2.7174,-5.54954 7.88281,-0.36382 16.32599,-0.0677 24.91058,0.42922 m -0.17911,3.03103 c 15.40285,-0.001 32.65243,-0.9544 47.98757,-2.2833 l 0,0 c 15.33821,-1.32915 35.10359,-1.02482 55.34056,-2.53329 14.19227,-1.0579 24.11028,0.0771 33.45593,2.03301 m -195.19649,67.62551 c 8.021,-14.97475 14.23252,-28.37744 17.69018,-41.86364 2.05637,-8.0206 8.04992,-16.83906 14.8942,-25.86642 7.42317,-0.35335 15.18352,-0.7895 22.5109,-1.1615 m -8.33141,2.21921 c 15.05558,-0.39184 28.38627,0.71333 41.04531,2.81891 m 1.07532,1.45186 c 10.86475,0.19438 21.00369,-0.40773 30.96933,-1.46475 m -5.02072,-4.60535 c 0.50423,0.0325 1.0111,0.0629 1.52051,0.0913 m 1.65226,5.51714 c 17.97347,0.19681 33.35998,-0.57155 50.04852,-1.18966 9.28516,-0.3439 18.16587,-0.77022 26.64727,-1.50566 m -199.57587,66.18418 c 9.36411,-13.94483 15.97674,-29.11625 22.87688,-44.08301 4.10371,-8.90113 9.58543,-16.50293 15.53545,-23.14459 7.4292,1.24386 15.07608,2.93403 22.65235,4.96301 14.89633,3.98934 27.56144,-0.13627 41.08001,-4.50145 m -16.51074,3.51745 c 16.16308,0.38404 34.10833,-0.78159 52.33086,-1.75227 11.39501,-0.60699 21.16129,-0.61854 30.45355,-0.60055 m -8.74415,-1.94691 c 11.85143,0.41034 24.74668,0.46699 38.17744,1.03119" id="path885" sodipodi:nodetypes="ccc" inkscape:path-effect="#path-effect893" inkscape:original-d="m 163.68031,348.83864 39.92204,-69.00428 156.69395,-1.76933" />
<path style="fill:none;stroke:#000000;stroke-width:14.1223;stroke-linecap:round;stroke-linejoin:round" d="m 204.8215,282.61518 c -17.25223,-17.78387 -37.23347,-33.77092 -56.44201,-50.69682 -1.25065,-1.10203 -2.49749,-2.20659 -3.74117,-3.31371 m 59.33936,52.82315 c -4.08068,-4.0979 -8.34406,-8.14747 -12.74815,-12.17063 m 8.62105,6.86481 c -11.93547,-11.07313 -22.8439,-20.9478 -33.52831,-30.50709 m 33.45342,31.26522 c -19.51849,-16.55747 -37.22621,-34.05493 -56.7745,-51.91874 m 64.19436,51.96709 c -19.62596,-15.83677 -38.40889,-31.95534 -59.90981,-45.22885 -1.3999,-0.86422 -2.76751,-1.76782 -4.10535,-2.70779 m 56.48407,48.62373 c -16.80993,-14.77052 -31.38024,-29.84793 -45.29889,-45.22216 m 46.33215,42.78934 C 189.51658,264.46349 177.4549,254.50839 164.89737,245.13581 m 35.29085,32.09379 c -0.55353,-0.51223 -1.10929,-1.02605 -1.66718,-1.54145 m -0.94226,-4.36538 C 179.74023,256.5883 163.70362,240.62125 148.10359,226.53731 m 58.09296,56.70339 c -17.11679,-16.50354 -36.82155,-33.9728 -55.22331,-51.29109 -1.19812,-1.12758 -2.40178,-2.25628 -3.61098,-3.38649 m 54.77167,48.27136 c -17.40846,-16.40986 -37.56356,-34.04525 -57.44194,-51.47862 -1.29426,-1.13507 -2.57197,-2.25457 -3.83431,-3.35894 m 63.77544,54.61914 c -19.44888,-15.58685 -37.97759,-31.60339 -58.62863,-44.16645 -1.34457,-0.81797 -2.66697,-1.67432 -3.96906,-2.56547 m 58.50388,51.9498 c -19.60463,-17.76325 -36.46606,-34.49691 -54.09732,-52.85308 -1.14796,-1.19515 -2.29814,-2.37434 -3.4499,-3.5388" id="path887" inkscape:path-effect="#path-effect895" inkscape:original-d="m 203.60235,279.83436 -58.885,-53.96487" />
<path style="fill:none;stroke:#000000;stroke-width:14.1223;stroke-linecap:round;stroke-linejoin:round" d="m 200.82961,230.28388 c 1.57437,6.4198 4.28272,11.71213 7.99098,16.05969 3.67252,4.30566 8.22152,7.54567 13.15442,9.74849 4.28559,1.91376 8.85191,3.04055 13.39681,3.40552 0.68837,0.0553 1.37624,0.0937 2.06201,0.11571 5.21466,0.1671 10.29237,-0.61904 14.54795,-2.1972 m -51.99601,-28.31953 c 0.92916,4.02746 2.25252,7.57392 3.97683,10.73566 m -5.59607,-9.56591 c 1.10041,3.97991 3.19697,7.56869 5.93707,10.68372 3.8075,4.32848 8.87147,7.75828 14.42021,10.26828 0.20074,0.0908 0.40213,0.18041 0.6041,0.26881 m -11.81259,-6.71569 c 3.35651,4.32936 7.97784,7.40597 13.05773,9.37301 5.10155,1.97544 10.67042,2.83656 15.95725,2.76057 5.28519,-0.076 10.27424,-1.08785 14.30509,-2.84542" id="path889" sodipodi:nodetypes="cc" inkscape:path-effect="#path-effect897" inkscape:original-d="m 199.61014,227.50307 c 4.31758,26.9121 35.40108,33.21941 52.89668,27.42478" />
<path style="fill:none;stroke:#000000;stroke-width:10;stroke-linecap:round;stroke-linejoin:round" d="m 217.57506,210.5887 12.97465,-0.99805" id="path911" />
<path style="fill:none;stroke:#000000;stroke-width:10;stroke-linecap:round;stroke-linejoin:round" d="m 248.51463,215.57895 3.9922,13.97271" id="path913" />
</svg>
